<?xml version="1.0" encoding="UTF-8"?>
<svg width="28px" height="30px" viewBox="0 0 28 30" version="1.1" xmlns="http://www.w3.org/2000/svg" xmlns:xlink="http://www.w3.org/1999/xlink">
    <!-- Generator: Sketch 58 (84663) - https://sketch.com -->
    <title>beer</title>
    <desc>Created with Sketch.</desc>
    <g id="Page-1" stroke="none" stroke-width="1" fill="none" fill-rule="evenodd">
        <g id="Desktop-Web" transform="translate(-723.000000, -3989.000000)" fill="#34D8A7" fill-rule="nonzero">
            <g id="Group-15" transform="translate(0.000000, 3368.000000)">
                <g id="beer" transform="translate(723.000000, 621.000000)">
                    <path d="M13.5371599,13.479375 L13.5371599,23.7329167 C13.5371599,24.3692627 13.0192095,24.885 12.3801327,24.885 C11.741056,24.885 11.2231055,24.3692627 11.2231055,23.7329167 L11.2231055,13.479375 C11.2231055,12.843029 11.741056,12.3272917 12.3801327,12.3272917 C13.0192095,12.3272917 13.5371599,12.843029 13.5371599,13.479375 Z M17.9899068,13.4147953 C17.9539757,12.7795744 17.4098113,12.2928642 16.7696047,12.3290918 C16.1316578,12.3648694 15.643537,12.9087337 15.6794681,13.5439547 L16.2579817,23.7974964 C16.2925569,24.4108907 16.802824,24.885 17.4120712,24.885 C17.4339914,24.885 17.4559116,24.8843249 17.4780579,24.8831999 C18.1160047,24.8474223 18.6041256,24.3035579 18.5684204,23.668337 L17.9899068,13.4147953 Z M7.8182366,15.3821126 C7.17938583,15.3470101 6.63386561,15.8325952 6.5981605,16.4678161 L6.19184506,23.668337 C6.15591392,24.3035579 6.64403478,24.8474223 7.28220759,24.8831999 C7.30435385,24.8843249 7.32627407,24.885 7.3481943,24.885 C7.95721547,24.885 8.46770854,24.4108907 8.50228376,23.7974964 L8.9085992,16.5969755 C8.9443043,15.9617546 8.45618345,15.4178902 7.8182366,15.3821126 Z M28,14.0554167 L28,16.935625 C28,17.571971 27.4820495,18.0877083 26.8429728,18.0877083 C26.2038961,18.0877083 25.6859456,17.571971 25.6859456,16.935625 L25.6859456,14.0554167 C25.6859456,13.4201957 25.1668652,12.9033333 24.5289184,12.9033333 L22.4826525,12.9033333 L22.9676096,21.3063411 L24.4276785,20.5608622 C24.9962489,20.2703662 25.6936289,20.4940324 25.9851456,21.0601733 C26.2768882,21.6263143 26.0522622,22.3207145 25.4836918,22.6109855 L23.112916,23.8215731 L23.1590162,24.6206059 C23.2317824,25.8811471 22.7741691,27.1306624 21.903687,28.0487288 C21.0332048,28.9667952 19.8065751,29.4933333 18.5385908,29.4933333 L6.22167466,29.4933333 C4.95346438,29.4933333 3.72706072,28.9667952 2.85635257,28.0487288 C1.98587038,27.1306624 1.52848307,25.8811471 1.60124926,24.6206059 L2.18405647,14.5207503 C0.948161611,14.0477661 0.064572505,12.8810567 0.00333139065,11.5008069 C-0.0258202453,10.8444344 0.137112673,10.1997628 0.462074581,9.6419474 C0.233832916,9.12103476 0.11564438,8.55759401 0.11564438,7.97817708 C0.11564438,6.88077272 0.539812346,5.84434772 1.3101846,5.05971601 C1.84598759,4.51427656 2.50766252,4.1324239 3.23125652,3.94183515 C3.81654955,1.66917071 5.89897255,0 8.33053753,0 C9.5490318,0 10.71894,0.424155666 11.6472735,1.1739099 C12.5249871,0.423930664 13.6293606,0 14.7809642,0 C15.7655672,0 16.7196627,0.303546942 17.5397509,0.878013538 C17.9363491,1.15568359 18.2879769,1.48645755 18.586273,1.85953451 C19.159589,1.59806562 19.7943721,1.47228151 20.4368386,1.50198366 C21.4598585,1.54946211 22.4164398,1.98554362 23.1303166,2.72967246 C23.8435154,3.47335124 24.2374018,4.44429648 24.2396616,5.46384519 C24.2419214,6.52727214 23.8276966,7.52724447 23.0735951,8.2799239 C22.8245631,8.52834186 22.5488652,8.73963216 22.252377,8.9115446 L22.3497751,10.5991667 L24.5289184,10.5991667 C26.4427589,10.5991667 28,12.1495288 28,14.0554167 L28,14.0554167 Z M4.16252781,12.1486288 C4.3880577,11.9391386 4.51234776,11.654718 4.51234776,11.3480208 C4.51234776,11.2456384 4.49765895,11.143256 4.46895924,11.0442488 C4.31077192,10.4974593 4.5769786,9.91736732 5.09583299,9.67885013 C5.52497253,9.48151081 5.86191152,9.13476074 6.04427891,8.70227943 C6.27500639,8.15548991 6.88538342,7.8721944 7.45417979,8.04838216 C7.73643119,8.13546347 8.03111156,8.17979167 8.33053753,8.17979167 C9.04238047,8.17979167 9.7356928,7.91427246 10.282795,7.43228763 C10.494314,7.24574909 10.7670741,7.14291667 11.0495515,7.14291667 L20.2479177,7.14291667 C20.6967177,7.14291667 21.1183999,6.96875404 21.4354525,6.65238118 C21.752505,6.33600833 21.9265111,5.91567787 21.9256107,5.46857057 C21.9237993,4.5912321 21.2076628,3.84440306 20.3292712,3.80367513 C19.8440881,3.7811735 19.3903165,3.95848633 19.0511177,4.3023112 C18.7794875,4.57773112 18.3876349,4.69968997 18.0064035,4.62633464 C17.62585,4.55342936 17.3072156,4.29511068 17.1578416,3.9389099 C16.7479104,2.96121419 15.792685,2.30416667 14.7809642,2.30416667 C13.9421195,2.30416667 13.1405617,2.75374922 12.6368482,3.50665365 C12.4260071,3.82167643 12.0730234,4.0133903 11.6929219,4.01969076 C11.3125944,4.02644127 10.9537351,3.84552813 10.7324989,3.53748086 C10.1783913,2.765225 9.28033937,2.30416667 8.33053753,2.30416667 C6.78708129,2.30416667 5.49491695,3.50372845 5.38847947,5.0354142 C5.3473508,5.62855716 4.85945592,6.09299075 4.2626378,6.1076168 C3.25182088,6.13236856 2.42969879,6.97145429 2.42969879,7.97817708 C2.42969879,8.37128053 2.55105104,8.74750775 2.78087459,9.0665808 C3.1144239,9.52966432 3.05770244,10.1662354 2.64731935,10.5638391 C2.41885166,10.7848051 2.30088915,11.0813766 2.31512596,11.3990995 C2.33930604,11.944764 2.78607219,12.4019971 3.3320444,12.4395748 C3.64254353,12.4611764 3.93744986,12.3576689 4.16252781,12.1486288 Z M20.8488036,24.7526904 L19.9654404,9.44708333 L11.4581267,9.44708333 C10.5501315,10.1185319 9.45547528,10.4839583 8.33053753,10.4839583 C8.11721064,10.4839583 7.90478768,10.4711324 7.69439853,10.4459306 C7.45011214,10.7780546 7.15791759,11.0723759 6.8261762,11.3196688 C6.82640216,11.3291195 6.82640216,11.3385702 6.82640216,11.3480208 C6.82640216,12.2867887 6.43093385,13.1927043 5.74123723,13.8333256 C5.38282994,14.1663497 4.95753202,14.4154427 4.49924084,14.5684538 L3.91146193,24.7526904 C3.87462687,25.3924117 4.09744503,26.0010807 4.53901365,26.4668644 C4.98080817,26.9326481 5.57830425,27.1891667 6.22167466,27.1891667 L18.5385908,27.1891667 C19.1819612,27.1891667 19.7794573,26.9326481 20.2210259,26.4668644 C20.6628205,26.0010807 20.8856386,25.3924117 20.8488036,24.7526904 Z" id="Shape"></path>
                </g>
            </g>
        </g>
    </g>
</svg>