<?xml version="1.0" encoding="UTF-8"?>
<svg width="28px" height="28px" viewBox="0 0 28 28" version="1.1" xmlns="http://www.w3.org/2000/svg" xmlns:xlink="http://www.w3.org/1999/xlink">
    <!-- Generator: Sketch 52.5 (67469) - http://www.bohemiancoding.com/sketch -->
    <title>calendar (2)</title>
    <desc>Created with Sketch.</desc>
    <g id="Page-1" stroke="none" stroke-width="1" fill="none" fill-rule="evenodd">
        <g id="Desktop-Web" transform="translate(-155.000000, -2393.000000)" fill="#34D8A7" stroke="#34D8A7" stroke-width="0.5">
            <g id="calendar-(2)" transform="translate(156.000000, 2394.000000)">
                <circle id="Oval" cx="19.6015625" cy="10.6640625" r="1.015625"></circle>
                <path d="M21.9375,2.03125 L20.6171875,2.03125 L20.6171875,1.015625 C20.6171875,0.454695313 20.1624922,0 19.6015625,0 C19.0406328,0 18.5859375,0.454695313 18.5859375,1.015625 L18.5859375,2.03125 L13.9648438,2.03125 L13.9648438,1.015625 C13.9648438,0.454695313 13.5101484,0 12.9492188,0 C12.3882891,0 11.9335938,0.454695313 11.9335938,1.015625 L11.9335938,2.03125 L7.36328125,2.03125 L7.36328125,1.015625 C7.36328125,0.454695313 6.90858594,0 6.34765625,0 C5.78672656,0 5.33203125,0.454695313 5.33203125,1.015625 L5.33203125,2.03125 L4.0625,2.03125 C1.8224375,2.03125 0,3.8536875 0,6.09375 L0,21.9375 C0,24.1775625 1.8224375,26 4.0625,26 L11.8320312,26 C12.3929609,26 12.8476562,25.5453047 12.8476562,24.984375 C12.8476562,24.4234453 12.3929609,23.96875 11.8320312,23.96875 L4.0625,23.96875 C2.94246875,23.96875 2.03125,23.0575313 2.03125,21.9375 L2.03125,6.09375 C2.03125,4.97371875 2.94246875,4.0625 4.0625,4.0625 L5.33203125,4.0625 L5.33203125,5.078125 C5.33203125,5.63905469 5.78672656,6.09375 6.34765625,6.09375 C6.90858594,6.09375 7.36328125,5.63905469 7.36328125,5.078125 L7.36328125,4.0625 L11.9335938,4.0625 L11.9335938,5.078125 C11.9335938,5.63905469 12.3882891,6.09375 12.9492188,6.09375 C13.5101484,6.09375 13.9648438,5.63905469 13.9648438,5.078125 L13.9648438,4.0625 L18.5859375,4.0625 L18.5859375,5.078125 C18.5859375,5.63905469 19.0406328,6.09375 19.6015625,6.09375 C20.1624922,6.09375 20.6171875,5.63905469 20.6171875,5.078125 L20.6171875,4.0625 L21.9375,4.0625 C23.0575313,4.0625 23.96875,4.97371875 23.96875,6.09375 L23.96875,11.8828125 C23.96875,12.4437422 24.4234453,12.8984375 24.984375,12.8984375 C25.5453047,12.8984375 26,12.4437422 26,11.8828125 L26,6.09375 C26,3.8536875 24.1775625,2.03125 21.9375,2.03125 Z" id="Path"></path>
                <path d="M19.8554688,13.7109375 C16.4673437,13.7109375 13.7109375,16.4673437 13.7109375,19.8554688 C13.7109375,23.2435938 16.4673437,26 19.8554688,26 C23.2435938,26 26,23.2435938 26,19.8554688 C26,16.4673437 23.2435938,13.7109375 19.8554688,13.7109375 Z M19.8554688,23.96875 C17.5874258,23.96875 15.7421875,22.1235625 15.7421875,19.8554688 C15.7421875,17.587375 17.5874258,15.7421875 19.8554688,15.7421875 C22.1235117,15.7421875 23.96875,17.587375 23.96875,19.8554688 C23.96875,22.1235625 22.1235117,23.96875 19.8554688,23.96875 Z" id="Shape" fill-rule="nonzero"></path>
                <path d="M21.328125,18.8398437 L20.8710938,18.8398437 L20.8710938,17.7734375 C20.8710938,17.2125078 20.4163984,16.7578125 19.8554688,16.7578125 C19.2945391,16.7578125 18.8398438,17.2125078 18.8398438,17.7734375 L18.8398438,19.8554687 C18.8398438,20.4163984 19.2945391,20.8710937 19.8554688,20.8710937 L21.328125,20.8710937 C21.8890547,20.8710937 22.34375,20.4163984 22.34375,19.8554687 C22.34375,19.2945391 21.8890547,18.8398437 21.328125,18.8398437 Z" id="Path"></path>
                <circle id="Oval" cx="15.1835938" cy="10.6640625" r="1.015625"></circle>
                <circle id="Oval" cx="10.765625" cy="15.0820312" r="1.015625"></circle>
                <circle id="Oval" cx="6.34765625" cy="10.6640625" r="1.015625"></circle>
                <circle id="Oval" cx="6.34765625" cy="15.0820312" r="1.015625"></circle>
                <circle id="Oval" cx="6.34765625" cy="19.5" r="1.015625"></circle>
                <circle id="Oval" cx="10.765625" cy="19.5" r="1.015625"></circle>
                <circle id="Oval" cx="10.765625" cy="10.6640625" r="1.015625"></circle>
            </g>
        </g>
    </g>
</svg>