<?xml version="1.0" encoding="UTF-8"?>
<svg width="28px" height="28px" viewBox="0 0 28 28" version="1.1" xmlns="http://www.w3.org/2000/svg" xmlns:xlink="http://www.w3.org/1999/xlink">
    <!-- Generator: Sketch 58 (84663) - https://sketch.com -->
    <title>car insurance</title>
    <desc>Created with Sketch.</desc>
    <g id="Page-1" stroke="none" stroke-width="1" fill="none" fill-rule="evenodd">
        <g id="Desktop-Web" transform="translate(-722.000000, -3891.000000)" fill="#34D8A7" fill-rule="nonzero">
            <g id="Group-15" transform="translate(0.000000, 3368.000000)">
                <g id="car-insurance" transform="translate(722.000000, 523.000000)">
                    <path d="M27.6473083,15.9681091 C27.4422302,15.3998718 26.8152466,15.1057129 26.2472229,15.3105774 C25.6789856,15.5158691 25.384613,16.1426392 25.5896911,16.7108764 C25.7375183,17.1203919 25.8125,17.5514831 25.8125,17.9921875 L25.8125,21.984375 L22.382782,21.984375 L18.8748779,18.476471 C18.6697998,18.2713928 18.3916626,18.15625 18.1015625,18.15625 L9.8984375,18.15625 C9.60833737,18.15625 9.3302002,18.2713928 9.12512207,18.476471 L5.61721803,21.984375 L2.1875,21.984375 L2.1875,17.9921875 C2.1875,15.911499 3.88024902,14.21875 5.9609375,14.21875 L15.203125,14.21875 C15.807251,14.21875 16.296875,13.729126 16.296875,13.125 C16.296875,12.520874 15.807251,12.03125 15.203125,12.03125 L5.9609375,12.03125 C5.61123659,12.03125 5.26879883,12.0617981 4.93533327,12.1199036 L6.65200807,8.7164612 C7.328125,7.38772584 8.67437747,6.5625 10.1652527,6.5625 L13.8397827,6.5625 C14.4439087,6.5625 14.9335327,6.07287598 14.9335327,5.46875 C14.9335327,4.86462402 14.4439087,4.375 13.8397827,4.375 L10.1652527,4.375 C7.84701537,4.375 5.75372317,5.65844727 4.70056152,7.72802734 L1.59255983,13.8901978 C1.57632448,13.9222412 1.56222533,13.9544983 1.54962161,13.9871826 C0.587249742,15.046112 0,16.4519654 0,17.9921875 L0,26.90625 C0,27.510376 0.489624023,28 1.09375,28 L5.46875,28 C6.07287598,28 6.5625,27.510376 6.5625,26.90625 L6.5625,24.171875 L21.4375,24.171875 L21.4375,26.90625 C21.4375,27.510376 21.927124,28 22.53125,28 L26.90625,28 C27.510376,28 28,27.510376 28,26.90625 L28,17.9921875 C28,17.2974854 27.8812256,16.6164551 27.6473083,15.9681091 Z M10.351532,20.34375 L17.648468,20.34375 L19.289093,21.984375 L8.71090697,21.984375 L10.351532,20.34375 Z M4.375,25.8125 L2.1875,25.8125 L2.1875,24.171875 L4.375,24.171875 L4.375,25.8125 Z M25.8125,25.8125 L23.625,25.8125 L23.625,24.171875 L25.8125,24.171875 L25.8125,25.8125 Z M22.53125,17.0625 C23.135376,17.0625 23.625,17.552124 23.625,18.15625 C23.625,18.760376 23.135376,19.25 22.53125,19.25 C21.927124,19.25 21.4375,18.760376 21.4375,18.15625 C21.4375,17.552124 21.927124,17.0625 22.53125,17.0625 Z M5.46875,17.0625 C6.07287598,17.0625 6.5625,17.552124 6.5625,18.15625 C6.5625,18.760376 6.07287598,19.25 5.46875,19.25 C4.86462402,19.25 4.375,18.760376 4.375,18.15625 C4.375,17.552124 4.86462402,17.0625 5.46875,17.0625 Z M22.3125,13.7265625 C23.8381958,13.7265625 25.2713928,13.1294861 26.3486939,12.0455628 C27.4230042,10.9646301 28.0093994,9.53143308 27.9997864,8.01022337 C27.9861145,5.81481934 26.6366577,4.57943724 25.5525208,3.58651732 C24.561737,2.67947389 23.9546204,2.07363893 23.9546204,1.09375 C23.9546204,0.694702148 23.7373658,0.327484117 23.3876648,0.135223375 C23.0379639,-0.0568237031 22.6115723,-0.0433654922 22.2746887,0.170257555 L22.1992798,0.217895508 C18.5525208,2.51199342 16.625,5.20898437 16.625,8.01705931 C16.625,11.1652221 19.1763001,13.7265625 22.3125,13.7265625 Z M22.3125,11.5390625 C21.86026,11.5390625 21.4921875,11.1551819 21.4921875,10.6832885 C21.4921875,10.2635193 21.7261048,9.7668457 22.0373535,9.30563353 C22.2225647,9.52951048 22.4152527,9.71643066 22.5805969,9.8770752 C23.0151062,10.2991943 23.1328125,10.4470215 23.1328125,10.6832885 C23.1328125,11.1551819 22.76474,11.5390625 22.3125,11.5390625 Z M22.164032,2.89373777 C22.6235352,3.870636 23.4030456,4.5845642 24.0753174,5.20001223 C25.1474915,6.18161009 25.8050232,6.84341432 25.8125659,8.02389525 C25.8167725,8.7277832 25.6131897,9.40112305 25.2301635,9.9744873 C25.024231,9.20117187 24.5064087,8.69787598 24.1045837,8.30780027 C23.6331177,7.85000612 23.4682007,7.65560912 23.4682007,7.2734375 C23.4682007,6.84490964 23.2178345,6.45590209 22.8279724,6.27816771 C22.4381104,6.100647 21.9803161,6.16687012 21.6568909,6.44799805 C21.4443359,6.63278197 19.7752991,8.13262942 19.3862915,9.94628906 C19.0239868,9.39151002 18.8125,8.7288513 18.8125,8.01705931 C18.8125,6.31854245 19.9914856,4.5298767 22.164032,2.89373777 L22.164032,2.89373777 Z" id="Shape"></path>
                </g>
            </g>
        </g>
    </g>
</svg>