<?xml version="1.0" encoding="UTF-8"?>
<svg width="18px" height="14px" viewBox="0 0 18 14" version="1.1" xmlns="http://www.w3.org/2000/svg" xmlns:xlink="http://www.w3.org/1999/xlink">
    <!-- Generator: Sketch 54.1 (76490) - https://sketchapp.com -->
    <title>Accepted Copy 6</title>
    <desc>Created with Sketch.</desc>
    <g id="Page-1" stroke="none" stroke-width="1" fill="none" fill-rule="evenodd">
        <g id="Desktop-HD-Copy" transform="translate(-192.000000, -1051.000000)" fill="#000000" fill-rule="nonzero">
            <g id="Group-9" transform="translate(165.000000, 502.000000)">
                <g id="Group-2" transform="translate(24.000000, 543.000000)">
                    <g id="Card">
                        <path d="M4.5,9.75 L19.5,9.75 L19.5,9.25 C19.5,8.28350169 18.8284271,7.5 18,7.5 L6,7.5 C5.17157288,7.5 4.5,8.28350169 4.5,9.25 L4.5,9.75 Z M19.5,11.25 L4.5,11.25 L4.5,16.25 C4.5,17.2164983 5.17157288,18 6,18 L18,18 C18.8284271,18 19.5,17.2164983 19.5,16.25 L19.5,11.25 Z M7.875,14.5364601 C8.07403368,14.3583201 8.33686709,14.25 8.625,14.25 C9.24632034,14.25 9.75,14.7536797 9.75,15.375 C9.75,15.9963203 9.24632034,16.5 8.625,16.5 C8.33686709,16.5 8.07403368,16.3916799 7.875,16.2135399 C7.67596632,16.3916799 7.41313291,16.5 7.125,16.5 C6.50367966,16.5 6,15.9963203 6,15.375 C6,14.7536797 6.50367966,14.25 7.125,14.25 C7.41313291,14.25 7.67596632,14.3583201 7.875,14.5364601 Z M6,6 L18,6 C19.6568542,6 21,7.51103897 21,9.375 L21,16.125 C21,17.988961 19.6568542,19.5 18,19.5 L6,19.5 C4.34314575,19.5 3,17.988961 3,16.125 L3,9.375 C3,7.51103897 4.34314575,6 6,6 Z" id="Combined-Shape"></path>
                    </g>
                </g>
            </g>
        </g>
    </g>
</svg>