<?xml version="1.0" encoding="UTF-8"?>
<svg width="65px" height="65px" viewBox="0 0 65 65" version="1.1" xmlns="http://www.w3.org/2000/svg" xmlns:xlink="http://www.w3.org/1999/xlink">
    <!-- Generator: Sketch 55 (78076) - https://sketchapp.com -->
    <title>Shape</title>
    <desc>Created with Sketch.</desc>
    <g id="Page-1" stroke="none" stroke-width="1" fill="none" fill-rule="evenodd">
        <g id="Desktop-HD" transform="translate(-318.000000, -408.000000)" fill="#34D8A7" fill-rule="nonzero">
            <g id="green-energy" transform="translate(318.000000, 408.000000)">
                <path d="M62.4609256,9.01367188 L60.3027124,9.01367188 L60.3027124,2.5390625 C60.3027124,1.13673828 59.1659688,0 57.763638,0 C56.3613073,0 55.2245637,1.13673828 55.2245637,2.5390625 L55.2245637,9.01367188 L50.1464149,9.01367188 L50.1464149,2.5390625 C50.1464149,1.13673828 49.0096713,0 47.6073405,0 C46.2050097,0 45.0682662,1.13673828 45.0682662,2.5390625 L45.0682662,9.01367188 L42.7830992,9.01367188 C41.3807684,9.01367188 40.2440248,10.1504102 40.2440248,11.5527344 L40.2440248,18.0273438 C40.2440248,23.9149219 44.3761145,28.8550488 49.8925075,30.1013477 L49.8925075,43.6457227 C49.8925075,52.620293 42.5910182,59.921748 33.6164059,59.921748 C26.2167815,59.921748 19.7606771,54.9186523 17.9108344,47.7527832 C17.8403751,47.455332 15.906743,39.0482422 18.6869025,29.5301855 C19.0802051,28.1841016 18.3076918,26.7742871 16.9616015,26.3811133 C15.6158921,25.9871777 14.2056902,26.7601953 13.8125145,28.1064063 C12.019801,34.2439551 11.9372811,39.8999707 12.2324485,43.7745801 C10.7628323,43.0552637 9.11941637,42.0326563 7.78640233,40.427334 C5.61308161,37.8098145 4.74141738,34.1064648 5.19578474,29.4201172 C6.2338853,18.7151758 15.0486629,9.70594727 18.9973044,6.16789063 C22.1887939,10.4201855 29.1211017,21.0332129 28.07805,31.790459 C27.6874134,35.8189355 26.4279055,38.8495605 24.2274167,41.0558789 C23.2371777,42.0486523 23.2393359,43.6562598 24.232241,44.6466211 C25.2248921,45.6368555 26.832507,45.6346973 27.8229999,44.6417969 C30.8870279,41.5696582 32.6237548,37.5262012 33.1323314,32.280625 C33.7800493,25.6012402 31.9211929,18.0396582 27.756984,10.413584 C25.0122446,5.38712891 22.1349655,1.8912207 21.4207239,1.05320313 C21.4072668,1.03454102 21.3933019,1.01600586 21.379337,0.997597656 C20.5302705,-0.113369141 18.9427143,-0.328808594 17.8280606,0.515683594 C17.6632747,0.640605469 13.7437056,3.63225586 9.61605932,8.56870117 C4.06551578,15.2068262 0.789348114,22.2476465 0.141376334,28.9299512 C-0.448450644,35.0137988 0.809152895,39.9734766 3.87952858,43.6712402 C6.66210019,47.0224219 10.2975469,48.5242773 12.2506029,49.3310645 C12.4836899,49.4274219 12.7513084,49.537998 12.9568464,49.6283887 C13.0445714,49.7321094 13.1421989,49.8270703 13.2455392,49.9156836 C15.9665382,58.844043 24.2106588,65 33.6164059,65 C45.3912364,65 54.9706562,55.420625 54.9706562,43.6458496 L54.9706562,30.1808203 C60.6765911,29.0803906 65,24.0497461 65,18.0273438 L65,11.5527344 C65,10.1505371 63.8632564,9.01367188 62.4609256,9.01367188 Z M59.9218512,18.0273438 C59.9218512,22.0525195 56.647207,25.3271484 52.6220124,25.3271484 C48.5968178,25.3271484 45.3221736,22.0525195 45.3221736,18.0273438 L45.3221736,14.0917969 L59.9218512,14.0917969 L59.9218512,18.0273438 Z" id="Shape"></path>
            </g>
        </g>
    </g>
</svg>