<?xml version="1.0" encoding="UTF-8"?>
<svg width="25px" height="26px" viewBox="0 0 25 26" version="1.1" xmlns="http://www.w3.org/2000/svg" xmlns:xlink="http://www.w3.org/1999/xlink">
    <!-- Generator: Sketch 52.5 (67469) - http://www.bohemiancoding.com/sketch -->
    <title>co2</title>
    <desc>Created with Sketch.</desc>
    <g id="Page-1" stroke="none" stroke-width="1" fill="none" fill-rule="evenodd">
        <g id="Desktop-Web" transform="translate(-725.000000, -1686.000000)" fill="#34D8A7">
            <g id="co2" transform="translate(725.000000, 1686.000000)">
                <path d="M4.37051891,16.9940252 C5.08027004,16.9940252 5.66884859,17.5172956 5.80178727,18.2664819 C5.90006611,18.820055 6.38010469,19.179548 6.87432643,19.0694772 C7.36836576,18.9594064 7.68924277,18.4213168 7.59100953,17.8677437 C7.44457177,17.042673 7.04178812,16.2968593 6.45690357,15.7676612 C5.87407124,15.2404049 5.13312627,14.95 4.37051891,14.95 C2.55995349,14.95 1.08695652,16.6004992 1.08695652,18.6292453 L1.08695652,22.1040881 C1.08695652,24.1328341 2.55995349,25.7833333 4.37051891,25.7833333 C5.90070458,25.7833333 7.21481361,24.6191588 7.56620039,22.9522563 C7.68199157,22.4029245 7.37844447,21.8524175 6.88819037,21.722673 C6.39775384,21.5929285 5.90663324,21.9331053 5.79079645,22.482386 C5.63482724,23.2224253 5.05076358,23.7393082 4.37051891,23.7393082 C3.5658181,23.7393082 2.91115785,23.0057586 2.91115785,22.1040881 L2.91115785,18.6292453 C2.91115785,17.7275747 3.5658181,16.9940252 4.37051891,16.9940252 Z" id="Path"></path>
                <path d="M22.5585938,8.18263531 L22.5585938,7.53124492 C22.5585938,3.85639406 19.5725586,0.866666667 15.9022461,0.866666667 C14.3039551,0.866666667 12.7586426,1.44237766 11.5509277,2.48780936 C10.7519043,3.1793861 10.1336426,4.04642367 9.73974609,5.01001603 C9.13413086,4.70020959 8.45786133,4.53330425 7.76367188,4.53330425 C5.36743164,4.53330425 3.41796875,6.48517766 3.41796875,8.88438085 L3.41796875,9.77356491 C1.46376953,10.2123392 0,11.9487121 0,14.0176735 C0,14.1576412 0.00654296875,14.2985868 0.0194335938,14.436599 C0.06953125,14.9742748 0.545703125,15.3693427 1.0824707,15.3192809 C1.61948242,15.2691213 2.01416016,14.7925562 1.9640625,14.2548805 C1.95678711,14.1770011 1.953125,14.0972151 1.953125,14.0176735 C1.953125,12.6967551 3.04492188,11.6221369 4.38701172,11.6221369 L4.39453125,11.6221369 C4.93388672,11.6221369 5.37109375,11.1843893 5.37109375,10.6443669 L5.37109375,8.88438085 C5.37109375,7.56346244 6.44438477,6.4888443 7.76367188,6.4888443 C8.44897461,6.4888443 9.10288086,6.7847175 9.55771484,7.30058897 C9.80834961,7.5848756 10.2006348,7.69854137 10.5641602,7.59191555 C10.9276855,7.4853875 11.196875,7.17797661 11.2548828,6.80319736 C11.6061035,4.53364647 13.6040527,2.82220671 15.9022461,2.82220671 C18.4956055,2.82220671 20.6054688,4.93467885 20.6054688,7.53124492 L20.6054688,8.73380427 C20.6054688,9.09562806 20.8050293,9.42787432 21.1242188,9.59746853 C22.3101562,10.2276902 23.046875,11.4530805 23.046875,12.7954609 C23.046875,13.7985552 22.6367676,14.7311523 21.892041,15.421409 C21.4962402,15.7882683 21.4724121,16.4069034 21.8388184,16.8031447 C22.0313477,17.0113119 22.2931152,17.1166667 22.5557129,17.1166667 C22.7930176,17.1166667 23.0310059,17.030574 23.2188965,16.8563843 C24.3674805,15.7917883 25,14.3495775 25,12.7954609 C25,10.9312446 24.0780762,9.21374268 22.5585938,8.18263531 Z" id="Path"></path>
                <path d="M13.0434783,14.95 C11.2454257,14.95 9.7826087,16.6004992 9.7826087,18.6292453 L9.7826087,22.1040881 C9.7826087,24.1328341 11.2454257,25.7833333 13.0434783,25.7833333 C14.8415308,25.7833333 16.3043478,24.1328341 16.3043478,22.1040881 L16.3043478,18.6292453 C16.3043478,16.6004992 14.8415308,14.95 13.0434783,14.95 Z M14.4927536,22.1040881 C14.4927536,23.0057586 13.8426178,23.7393082 13.0434783,23.7393082 C12.2443388,23.7393082 11.5942029,23.0057586 11.5942029,22.1040881 L11.5942029,18.6292453 C11.5942029,17.7275747 12.2443388,16.9940252 13.0434783,16.9940252 C13.8426178,16.9940252 14.4927536,17.7275747 14.4927536,18.6292453 L14.4927536,22.1040881 Z" id="Shape" fill-rule="nonzero"></path>
                <path d="M22.8474104,23.7611111 L22.0841506,23.7611111 C23.6408275,22.0868628 23.8443634,21.2615433 23.8443634,20.7277778 C23.8443634,19.3339611 22.6492559,18.2 21.1802806,18.2 C21.1738868,18.2 21.1677061,18.2008089 21.1613656,18.20091 C21.1549718,18.2008089 21.1487911,18.2 21.1423973,18.2 C19.6734221,18.2 18.4783145,19.3339611 18.4783145,20.7277778 C18.4783145,21.2862144 18.9553985,21.7388889 19.5439477,21.7388889 C20.1324968,21.7388889 20.6095808,21.2862144 20.6095808,20.7277778 C20.6095808,20.4537667 20.8535575,20.2222222 21.1423973,20.2222222 C21.1487911,20.2222222 21.1549718,20.2214133 21.1613123,20.2213122 C21.1677061,20.2214133 21.1738335,20.2222222 21.1802273,20.2222222 C21.4653375,20.2222222 21.7067034,20.4478011 21.7129373,20.7171611 C21.7025474,20.7691828 21.5712614,21.2900061 20.3174375,22.6019733 C19.5746912,23.3792144 18.8356213,24.01672 18.8284816,24.0228878 C18.5019716,24.3035722 18.3911457,24.7459839 18.5496587,25.13602 C18.7081716,25.5260561 19.1033084,25.7833333 19.5439477,25.7833333 L22.8474104,25.7833333 C23.4359595,25.7833333 23.9130435,25.3306589 23.9130435,24.7722222 C23.9130435,24.2137856 23.4359595,23.7611111 22.8474104,23.7611111 Z" id="Path"></path>
            </g>
        </g>
    </g>
</svg>