<?xml version="1.0" encoding="UTF-8"?>
<svg width="29px" height="29px" viewBox="0 0 29 29" version="1.1" xmlns="http://www.w3.org/2000/svg" xmlns:xlink="http://www.w3.org/1999/xlink">
    <!-- Generator: Sketch 58 (84663) - https://sketch.com -->
    <title>distance</title>
    <desc>Created with Sketch.</desc>
    <g id="Page-1" stroke="none" stroke-width="1" fill="none" fill-rule="evenodd">
        <g id="Desktop-Web" transform="translate(-155.000000, -2218.000000)" fill="#3BD9AA" fill-rule="nonzero">
            <g id="distance" transform="translate(155.000000, 2218.000000)">
                <circle id="Oval" cx="6.29016797" cy="18.8046875" r="1.1328125"></circle>
                <circle id="Oval" cx="9.57532422" cy="20.6171875" r="1.1328125"></circle>
                <path d="M8.04483789,6.23046875 C8.04483789,5.26225391 7.25719336,4.47460938 6.28897852,4.47460938 C5.32076367,4.47460938 4.53311914,5.26225391 4.53311914,6.23046875 C4.53311914,7.19868359 5.32076367,7.98632813 6.28897852,7.98632813 C7.25719336,7.98632813 8.04483789,7.19868359 8.04483789,6.23046875 Z" id="Path"></path>
                <path d="M6.09260547,15.2929688 L6.42497266,15.2929688 C6.8129043,15.2929688 7.17381836,15.0945 7.38157617,14.7669473 C7.96123633,13.8531641 8.7039082,13.0426934 9.42211133,12.258957 C10.9417793,10.6006895 12.5131035,8.88589453 12.515709,6.23154492 C12.5116309,2.79544141 9.70480469,0 6.25878906,0 C2.81277344,0 0.005890625,2.79544141 0.00186914063,6.23398047 C0.00447460938,8.88583789 1.57579883,10.6005762 3.0954668,12.2589004 C3.81361328,13.0426934 4.5563418,13.8531074 5.13600195,14.7669473 C5.34375977,15.0945 5.70461719,15.2929688 6.09260547,15.2929688 Z M4.76574219,10.7281875 C3.37091016,9.20608398 2.26919336,8.00377344 2.26749414,6.23415039 C2.27004297,4.04589648 4.06050977,2.265625 6.25878906,2.265625 C8.45706836,2.265625 10.2475352,4.04589648 10.2500273,6.23171484 C10.2483281,8.00377344 9.14661133,9.20608398 7.75172266,10.7282441 C7.25186914,11.2736934 6.74125391,11.8309805 6.25878906,12.4435488 C5.77626758,11.8309805 5.26565234,11.2736934 4.76574219,10.7281875 Z" id="Shape"></path>
                <circle id="Oval" cx="16.1456934" cy="24.2421875" r="1.1328125"></circle>
                <path d="M22.7714004,13.2539062 C21.8031855,13.2539062 21.015541,14.0415508 21.015541,15.0097656 C21.015541,15.9779805 21.8031855,16.765625 22.7714004,16.765625 C23.7396152,16.765625 24.5272598,15.9779805 24.5272598,15.0097656 C24.5272598,14.0415508 23.7396152,13.2539062 22.7714004,13.2539062 Z" id="Path"></path>
                <circle id="Oval" cx="12.9171211" cy="22.4296875" r="1.1328125"></circle>
                <path d="M22.7412109,8.77929687 C19.2951387,8.77929687 16.4883125,11.5747383 16.484291,15.0132773 C16.4868398,17.6513145 18.0919219,19.3539316 19.6441016,21.0004746 C20.3943066,21.7962187 21.1700566,22.6190937 21.7581562,23.5462441 C21.9739004,23.8863711 22.3407617,24.0724355 22.7157793,24.0724355 C22.9233105,24.0724355 23.133334,24.0153984 23.3214941,23.8960566 C23.8497812,23.5609707 24.0064492,22.8610059 23.6713066,22.3326621 C22.9671504,21.2225625 22.1158984,20.3195977 21.2926836,19.4463125 C19.8729863,17.9402949 18.7516152,16.7507852 18.7498594,15.0134473 C18.7524648,12.8251934 20.5429316,11.0449219 22.7412109,11.0449219 C24.9394902,11.0449219 26.729957,12.8251934 26.7325059,15.0110117 C26.7310898,16.4560273 26.060748,17.5075605 24.9796484,18.7359258 C24.5663418,19.2055898 24.6119941,19.9214141 25.0816016,20.3347773 C25.551209,20.748084 26.2671465,20.7024883 26.6804531,20.2328242 C27.882877,18.8665957 28.9959219,17.2887012 28.9981875,15.0108418 C28.9941094,11.5747383 26.1872832,8.77929687 22.7412109,8.77929687 Z" id="Path"></path>
                <circle id="Oval" cx="19.4874902" cy="26.0546875" r="1.1328125"></circle>
                <circle id="Oval" cx="22.7443262" cy="27.8671875" r="1.1328125"></circle>
            </g>
        </g>
    </g>
</svg>