<?xml version="1.0" encoding="UTF-8"?>
<svg width="29px" height="29px" viewBox="0 0 29 29" version="1.1" xmlns="http://www.w3.org/2000/svg" xmlns:xlink="http://www.w3.org/1999/xlink">
    <!-- Generator: Sketch 53.2 (72643) - https://sketchapp.com -->
    <title>eco</title>
    <desc>Created with Sketch.</desc>
    <g id="Page-1" stroke="none" stroke-width="1" fill="none" fill-rule="evenodd">
        <g id="Connected-cars" transform="translate(-687.000000, -2510.000000)" fill="#34D8A7">
            <g id="Group-17" transform="translate(0.000000, 1956.000000)">
                <g id="Group-16">
                    <g id="eco" transform="translate(687.000000, 554.000000)">
                        <path d="M24.4207187,12.0114941 C26.6649336,12.0114941 28.4907441,10.1856836 28.4907441,7.94146875 L28.4907441,4.09749609 C28.4907441,1.85328125 26.6649336,0.0274707031 24.4207187,0.0274707031 C22.1765039,0.0274707031 20.3506934,1.85328125 20.3506934,4.09749609 L20.3506934,7.94141211 C20.3506934,10.1856836 22.1765039,12.0114941 24.4207187,12.0114941 Z M22.6117871,4.09749609 C22.6117871,3.10005469 23.4232207,2.28856445 24.4206621,2.28856445 C25.4181035,2.28856445 26.2295937,3.10005469 26.2295937,4.09749609 L26.2295937,7.94141211 C26.2295937,8.93885352 25.4181035,9.75034375 24.4206621,9.75034375 C23.4232207,9.75034375 22.6117871,8.93885352 22.6117871,7.94141211 L22.6117871,4.09749609 Z" id="Shape" fill-rule="nonzero"></path>
                        <path d="M14.754373,12.0115508 C16.6509844,12.0115508 18.2799121,10.7237129 18.7154785,8.87977734 C18.8590059,8.27208008 18.4827422,7.66313672 17.8750449,7.51955273 C17.2669512,7.37602539 16.6584043,7.7523457 16.5148203,8.35998633 C16.3214492,9.17866992 15.5974687,9.75045703 14.7543164,9.75045703 C13.756875,9.75045703 12.9453848,8.9389668 12.9453848,7.94152539 L12.9453848,4.09755273 C12.9453848,3.10011133 13.756875,2.28862109 14.7543164,2.28862109 C15.6340586,2.28862109 16.3635898,2.86743164 16.5284141,3.69625391 C16.6503047,4.30865234 17.2455977,4.70621289 17.8578262,4.58460547 C18.4702246,4.46271484 18.8679551,3.8675918 18.7461777,3.25519336 C18.5646445,2.34248633 18.0654141,1.51745898 17.3404141,0.932078125 C16.6180195,0.348736328 15.6996484,0.0275273438 14.754373,0.0275273438 C12.5101582,0.0275273438 10.6843477,1.85333789 10.6843477,4.09755273 L10.6843477,7.94146875 C10.6843477,10.1856836 12.5101582,12.0114941 14.754373,12.0115508 Z" id="Path"></path>
                        <path d="M5.08802734,12.0114941 C6.73508008,12.0114941 8.20960547,11.0295156 8.84460352,9.50979102 C9.08532617,8.93364258 8.81339453,8.27145703 8.23730273,8.03073437 C7.66104102,7.78995508 6.99902539,8.06194336 6.75824609,8.63803516 C6.47594922,9.31375781 5.82027734,9.75040039 5.08802734,9.75040039 C4.09058594,9.75040039 3.27915234,8.93891016 3.27915234,7.94146875 L3.27915234,6.81092187 L7.97097852,6.81092187 C8.59538477,6.81092187 9.10152539,6.30478125 9.10152539,5.680375 L9.10152539,3.47569531 C9.10152539,3.40166602 9.09421875,3.32780664 9.07983203,3.25519336 C8.89829883,2.34248633 8.39906836,1.51751562 7.67406836,0.932078125 C6.95173047,0.348736328 6.03330273,0.0274707031 5.08802734,0.0274707031 C2.8438125,0.0274707031 1.01800195,1.85328125 1.01800195,4.09749609 L1.01800195,7.94141211 C1.01800195,10.1856836 2.8438125,12.0114941 5.08802734,12.0114941 Z M5.08802734,2.28862109 C5.93361523,2.28862109 6.64049023,2.82342187 6.840375,3.60092773 L6.840375,4.54977148 L3.27915234,4.54977148 C3.27915234,4.54977148 3.27915234,4.09755273 3.27915234,4.09755273 C3.27915234,3.10005469 4.09058594,2.28862109 5.08802734,2.28862109 Z" id="Shape" fill-rule="nonzero"></path>
                        <path d="M28.9983008,14.1639512 C28.998584,14.1573242 28.9988672,14.1506973 28.9990371,14.1440703 C29.0164824,13.5237988 28.5307324,13.0054238 27.9106309,12.982541 C27.6574473,12.973082 21.6598281,12.7933613 18.147543,16.3055332 C16.7959277,17.6572051 16.1156172,19.1281621 16.125416,20.6775098 C16.1319297,21.6936426 16.4421504,22.5471602 16.7282422,23.159502 C15.7284785,24.2328418 15.0041016,25.1364863 14.5,25.8244434 C13.9959551,25.1364297 13.2715215,24.2328418 12.2717578,23.159502 C12.5579063,22.5471602 12.8680703,21.6936426 12.874584,20.6775098 C12.8843828,19.1281621 12.2040156,17.6572051 10.8524004,16.3054766 C7.34017187,12.7933613 1.34255273,12.9728555 1.08936914,12.9825977 C0.471419922,13.0054238 -0.0116679688,13.5202871 0.00220898437,14.1377266 C-0.0138769531,14.8528145 -0.0286601563,20.4777383 3.32707031,23.833582 C4.66888672,25.1753418 6.1374082,25.855709 7.69191016,25.855709 C7.71337695,25.855709 9.55079883,25.844834 10.9270527,25.0435957 C12.7699121,27.078127 13.453168,28.332207 13.4705566,28.3646055 C13.6682324,28.7414922 14.0490273,28.9600684 14.4467578,28.9691875 C14.4737188,28.9711133 14.5007363,28.9724727 14.5276406,28.9724727 C14.935,28.9724727 15.3279727,28.7516875 15.5291602,28.365002 C15.5478516,28.3297148 17.4722168,24.7791973 23.7089727,19.8600723 C24.1992539,19.4734434 24.2831953,18.7624902 23.8964531,18.2722656 C23.5098242,17.7819844 22.7988711,17.698043 22.3086465,18.0847852 C20.8080098,19.2684043 19.5429414,20.3782773 18.4814395,21.3898789 C18.4246855,21.1614473 18.3880957,20.9182324 18.3864531,20.663123 C18.3805059,19.7278164 18.825418,18.825418 19.7463379,17.9043848 C21.7551543,15.895625 24.9983398,15.3975273 26.7010137,15.2773359 C26.5811055,16.980123 26.0833477,20.2251777 24.0738516,22.2346738 C23.5852129,22.7233691 23.0881348,23.0843398 22.5962676,23.3077871 C22.0277656,23.5660117 21.7763379,24.2362402 22.0345625,24.8046855 C22.2239121,25.2215039 22.6347266,25.4678906 23.0645723,25.4678906 C23.220957,25.4678906 23.3798906,25.4352656 23.5315742,25.3663906 C24.2713008,25.0303984 24.9917129,24.5145723 25.6728164,23.8334687 C28.9907109,20.5156875 29.0138203,14.9798594 28.9983008,14.1639512 Z M10.5185039,21.3898789 C9.45700195,20.3782207 8.19199023,19.2683477 6.69129687,18.0847852 C6.20101562,17.698043 5.49011914,17.7820977 5.10349023,18.2722656 C4.71680469,18.7625469 4.80080273,19.4734434 5.2909707,19.8600723 C6.88160937,21.1146621 8.19108398,22.2799297 9.26068555,23.3208711 C8.71319727,23.5031406 8.06120703,23.5946152 7.69191016,23.5946152 C6.74578516,23.5945586 5.84106445,23.1497598 4.92603516,22.2346172 C2.91540625,20.2240449 2.41821484,16.9763281 2.29864648,15.2749004 C3.99854492,15.3919199 7.2352168,15.8860527 9.25349219,17.9043281 C10.1745254,18.825418 10.6193809,19.7278164 10.6134336,20.663123 C10.6119043,20.9182324 10.5753145,21.1614473 10.5185039,21.3898789 Z" id="Shape" fill-rule="nonzero"></path>
                    </g>
                </g>
            </g>
        </g>
    </g>
</svg>