<?xml version="1.0" encoding="UTF-8"?>
<svg width="100px" height="24px" viewBox="0 0 100 24" version="1.1" xmlns="http://www.w3.org/2000/svg" xmlns:xlink="http://www.w3.org/1999/xlink">
    <!-- Generator: Sketch 54.1 (76490) - https://sketchapp.com -->
    <title>ELOOP_Logo</title>
    <desc>Created with Sketch.</desc>
    <g id="Page-1" stroke="none" stroke-width="1" fill="none" fill-rule="evenodd">
        <g id="Desktop-Web" transform="translate(-144.000000, -6024.000000)">
            <g id="ELOOP_Logo" transform="translate(144.000000, 6024.000000)">
                <polygon id="Path" fill="#FFFFFF" points="0 0 0 24 16 24 16 19.5561778 5.08296943 19.5561778 5.08296943 14.3731187 14.3406114 14.3731187 14.3406114 9.96289814 5.08296943 9.96289814 5.08296943 4.44382219 15.650655 4.44382219 15.650655 0"></polygon>
                <polygon id="Path" fill="#FFFFFF" points="21 0 21 24 34 24 34 19.5561778 25.5836342 19.5561778 25.5836342 0"></polygon>
                <path d="M94.9396552,7.87394958 C94.9396552,10.1764706 93.3362069,11.2268908 91.8448276,11.2268908 L87.0431034,11.2268908 L87.0431034,4.44537815 L91.9827586,4.44537815 C94.1551724,4.44537815 94.9396552,6.49579832 94.9396552,7.87394958 M98.1034483,2.46218487 C96.6896552,0.848739496 94.6034483,0 92.0603448,0 L82,0 L82,24 L87.0517241,24 L87.0517241,15.6638655 L92.0689655,15.6638655 C94.612069,15.6638655 96.7068966,14.8235294 98.112069,13.2352941 C99.3275862,11.8571429 100,9.94957983 100,7.86554622 C99.9913793,5.77310924 99.3189655,3.85714286 98.1034483,2.46218487" id="Shape" fill="#FFFFFF" fill-rule="nonzero"></path>
                <path d="M53.1625964,0 C53.1960154,0.286746988 53.2127249,0.581927711 53.2127249,0.877108434 C53.2127249,5.44819277 49.5282776,9.16746988 45,9.16746988 C40.4717224,9.16746988 36.7872751,5.44819277 36.7872751,0.877108434 C36.7872751,0.581927711 36.8039846,0.286746988 36.8374036,1.49813227e-16 L32.033419,1.49813227e-16 C32.0167095,0.286746988 32,0.581927711 32,0.877108434 C32,8.11325301 37.8316195,14 45,14 C52.1683805,14 58,8.11325301 58,0.877108434 C58,0.581927711 57.9832905,0.286746988 57.966581,1.34831905e-15 L53.1625964,0 Z" id="Path" fill="#4ADEB5"></path>
                <path d="M57.9125964,24 C57.8374036,23.5533643 57.7872751,23.0986079 57.7872751,22.6357309 C57.7872751,18.2343387 61.4717224,14.6531323 66,14.6531323 C70.5282776,14.6531323 74.2127249,18.2343387 74.2127249,22.6357309 C74.2127249,23.0986079 74.1709512,23.5533643 74.0874036,24 L78.9248072,24 C78.9749357,23.5533643 79,23.0986079 79,22.6357309 C79,15.6682135 73.1683805,10 66,10 C58.8316195,10 53,15.6682135 53,22.6357309 C53,23.0986079 53.0250643,23.5533643 53.0751928,24 L57.9125964,24 Z" id="Path" fill="#4ADEB5"></path>
            </g>
        </g>
    </g>
</svg>