<?xml version="1.0" encoding="UTF-8"?>
<svg width="33px" height="33px" viewBox="0 0 33 33" version="1.1" xmlns="http://www.w3.org/2000/svg" xmlns:xlink="http://www.w3.org/1999/xlink">
    <!-- Generator: Sketch 53.2 (72643) - https://sketchapp.com -->
    <title>sun (1)</title>
    <desc>Created with Sketch.</desc>
    <g id="Page-1" stroke="none" stroke-width="1" fill="none" fill-rule="evenodd">
        <g id="Connected-cars" transform="translate(-402.000000, -2205.000000)" fill="#34D8A7">
            <g id="Group-17" transform="translate(0.000000, 1956.000000)">
                <g id="Group-16">
                    <g id="sun-(1)" transform="translate(402.000000, 249.000000)">
                        <path d="M8.45306455,5.47005005 C8.68049756,5.89950563 9.0931304,6.13953488 9.51742648,6.13953488 C9.72576862,6.13953488 9.93687311,6.08163603 10.1301758,5.95988109 C10.7173274,5.59019855 10.9185489,4.77144845 10.5794558,4.13114732 L9.9655401,2.97183145 C9.626447,2.33153032 8.87558045,2.11225094 8.28842883,2.48193348 C7.70127721,2.85161602 7.50005578,3.67036611 7.83914888,4.31066725 L8.45306455,5.47005005 Z" id="Path"></path>
                        <path d="M27.3296836,11.5116279 C27.5412354,11.5116279 27.7556285,11.4554491 27.9514297,11.3374162 L30.0850456,10.0512978 C30.6741788,9.69611517 30.8729449,8.91515965 30.5289647,8.30688541 C30.1849228,7.6985474 29.4284629,7.49353621 28.8392679,7.84859135 L26.7056521,9.13470973 C26.1165189,9.48989241 25.9177528,10.2708479 26.261733,10.8791222 C26.4914443,11.285191 26.9048505,11.5116279 27.3296836,11.5116279 Z" id="Path"></path>
                        <path d="M3.8372093,16.5 C3.8372093,15.8642128 3.26456977,15.3488372 2.55813953,15.3488372 L1.27906977,15.3488372 C0.572639535,15.3488372 0,15.8642128 0,16.5 C0,17.1357872 0.572639535,17.6511628 1.27906977,17.6511628 L2.55813953,17.6511628 C3.26456977,17.6511628 3.8372093,17.1357872 3.8372093,16.5 Z" id="Path"></path>
                        <path d="M2.89723238,10.0120338 L5.01735211,11.3266221 C5.2194398,11.451914 5.4428914,11.5116279 5.66354831,11.5116279 C6.0820698,11.5116279 6.49059249,11.2967966 6.72472605,10.907616 C7.08232314,10.3131885 6.89750047,9.53703415 6.31204237,9.17402165 L4.19192264,7.85943342 C3.60652664,7.49642092 2.84214579,7.68401206 2.4845487,8.2784395 C2.12701371,8.87286694 2.31177428,9.64902133 2.89723238,10.0120338 Z" id="Path"></path>
                        <path d="M16.5,5.37209302 C17.1357872,5.37209302 17.6511628,4.77082151 17.6511628,4.02906977 L17.6511628,1.34302326 C17.6511628,0.601271512 17.1357872,0 16.5,0 C15.8642128,0 15.3488372,0.601271512 15.3488372,1.34302326 L15.3488372,4.02906977 C15.3488372,4.77082151 15.8642128,5.37209302 16.5,5.37209302 Z" id="Path"></path>
                        <path d="M22.8375696,5.94150216 C23.0358806,6.07565336 23.255185,6.13953488 23.4718727,6.13953488 C23.8814558,6.13953488 24.2814246,5.91097352 24.5109518,5.49661778 L25.1463502,4.34957458 C25.4972736,3.71607159 25.317096,2.88816704 24.7438257,2.50037257 C24.1706163,2.1125781 23.4214279,2.31175396 23.0704436,2.94518971 L22.4350452,4.0922329 C22.0841217,4.72580314 22.2642993,5.55370769 22.8375696,5.94150216 Z" id="Path"></path>
                        <path d="M24.5462038,27.5294338 C24.2069181,26.889279 23.4559231,26.6703827 22.8691698,27.0404313 C22.2822325,27.41048 22.0815334,28.2294336 22.4208192,28.8695884 L23.0351915,30.0286682 C23.2626505,30.4578256 23.6750349,30.6976744 24.0990193,30.6976744 C24.3074517,30.6976744 24.5188302,30.6396368 24.7122255,30.5177376 C25.2991628,30.1476889 25.4998619,29.3287353 25.1605762,28.6885805 L24.5462038,27.5294338 Z" id="Path"></path>
                        <path d="M16.8837209,6.90697674 C11.3825058,6.90697674 6.90697674,11.3825058 6.90697674,16.8837209 C6.90697674,22.384936 11.3825058,26.8604651 16.8837209,26.8604651 C18.1158488,26.8604651 19.3191977,26.6381628 20.4603837,26.1998256 C21.1198721,25.9465058 21.4490407,25.206564 21.1957209,24.5471395 C20.9424012,23.8877151 20.2023314,23.5585465 19.5430349,23.8118023 C18.6957791,24.1372616 17.8010698,24.3023256 16.8837209,24.3023256 C12.793064,24.3023256 9.46511628,20.974314 9.46511628,16.8837209 C9.46511628,12.7931279 12.793064,9.46511628 16.8837209,9.46511628 C20.9743779,9.46511628 24.3023256,12.7931279 24.3023256,16.8837209 C24.3023256,17.9075523 24.0980581,18.8984477 23.6950872,19.828907 C23.4143314,20.4771395 23.7122907,21.2301919 24.3604593,21.5109477 C25.0087558,21.7916395 25.7617442,21.4938081 26.0425,20.8455756 C26.5852733,19.592343 26.8604651,18.2593605 26.8604651,16.8837209 C26.8604651,11.3825058 22.384936,6.90697674 16.8837209,6.90697674 Z" id="Path"></path>
                        <path d="M5.04857026,21.6625584 L2.91495439,22.948672 C2.32582119,23.3038534 2.12705513,24.084806 2.4710353,24.693078 C2.7007466,25.0991453 3.11415281,25.3255814 3.53898592,25.3255814 C3.75053773,25.3255814 3.96493083,25.2694028 4.16073207,25.1513704 L6.29434794,23.8652567 C6.88348114,23.5100754 7.08224719,22.7291228 6.73826703,22.1208508 C6.3942251,21.5125788 5.63776522,21.3074408 5.04857026,21.6625584 Z" id="Path"></path>
                        <path d="M31.7209302,15.3488372 L30.4418605,15.3488372 C29.7354302,15.3488372 29.1627907,15.8642128 29.1627907,16.5 C29.1627907,17.1357872 29.7354302,17.6511628 30.4418605,17.6511628 L31.7209302,17.6511628 C32.4273605,17.6511628 33,17.1357872 33,16.5 C33,15.8642128 32.4273605,15.3488372 31.7209302,15.3488372 Z" id="Path"></path>
                        <path d="M30.1027676,22.9879581 L27.9826479,21.6733603 C27.3972519,21.3104082 26.6328089,21.4979376 26.2752739,22.0923694 C25.9176769,22.6868012 26.1024995,23.4629612 26.6879576,23.8259764 L28.8080774,25.1405742 C29.0101651,25.2658671 29.2336167,25.3255814 29.4542736,25.3255814 C29.8727951,25.3255814 30.2813177,25.1107486 30.5154513,24.7215651 C30.8729863,24.1271333 30.6882257,23.3509732 30.1027676,22.9879581 Z" id="Path"></path>
                        <path d="M16.5,27.627907 C15.8642128,27.627907 15.3488372,28.2291785 15.3488372,28.9709302 L15.3488372,31.6569767 C15.3488372,32.3987285 15.8642128,33 16.5,33 C17.1357872,33 17.6511628,32.3987285 17.6511628,31.6569767 L17.6511628,28.9709302 C17.6511628,28.2291785 17.1357872,27.627907 16.5,27.627907 Z" id="Path"></path>
                        <path d="M10.1648373,27.0599375 C9.59274291,26.6708574 8.84363243,26.86829 8.49178949,27.5013523 L7.85475066,28.6474029 C7.50296853,29.2803306 7.68156561,30.108942 8.25378166,30.4981565 C8.45250664,30.6332986 8.67233247,30.6976744 8.88966512,30.6976744 C9.29812157,30.6976744 9.69715257,30.4699711 9.92682952,30.056809 L10.5638683,28.9107584 C10.9156505,28.2776961 10.7369926,27.4491521 10.1648373,27.0599375 Z" id="Path"></path>
                    </g>
                </g>
            </g>
        </g>
    </g>
</svg>