<?xml version="1.0" encoding="UTF-8" standalone="no"?><!DOCTYPE svg PUBLIC "-//W3C//DTD SVG 1.1//EN" "http://www.w3.org/Graphics/SVG/1.1/DTD/svg11.dtd"><svg width="100%" height="100%" viewBox="0 0 100 125" version="1.1" xmlns="http://www.w3.org/2000/svg" xmlns:xlink="http://www.w3.org/1999/xlink" xml:space="preserve" xmlns:serif="http://www.serif.com/" style="fill-rule:evenodd;clip-rule:evenodd;stroke-linejoin:round;stroke-miterlimit:2;"><g><path d="M99.572,36.084c-0.198,-0.272 -4.944,-6.699 -15.203,-9.074c-5.931,-1.376 -12.491,-1.112 -19.511,0.777c-4.458,1.202 -9.552,1.155 -15.136,-0.14c-9.671,-2.24 -17.495,-7.487 -17.573,-7.539c-0.531,-0.361 -1.205,-0.435 -1.8,-0.2c-0.596,0.233 -1.04,0.746 -1.182,1.37l-9.21,39.748c-0.191,0.833 0.181,1.694 0.922,2.121c0.379,0.217 9.371,5.359 19.902,7.798c6.317,1.464 11.872,1.638 16.518,0.515c7.715,-1.861 14.261,-2.195 19.461,-0.991c8.184,1.897 10.117,6.937 10.189,7.132c0.28,0.822 1.071,1.358 1.935,1.311c0.869,-0.043 1.599,-0.655 1.796,-1.499l9.208,-39.75c0.126,-0.549 0.009,-1.123 -0.316,-1.579Zm-16.082,-5.29c-2.038,-0.472 -4.173,-0.726 -6.391,-0.76c2.218,0.034 4.353,0.288 6.391,0.76Zm-18.194,0.888c0.192,-0.046 0.383,-0.092 0.573,-0.141c2.957,-0.799 5.816,-1.275 8.559,-1.441l-1.479,6.446c-2.827,0.122 -5.9,0.55 -9.1,1.454l1.447,-6.318Zm-2.11,9.205c0.166,-0.046 0.334,-0.088 0.5,-0.14c2.925,-0.907 5.839,-1.402 8.66,-1.578c-2.821,0.176 -5.735,0.671 -8.66,1.578c-0.164,0.052 -0.333,0.094 -0.5,0.14l-1.523,6.64l1.523,-6.64Zm-2.792,0.589l-1.559,6.803c-3.08,0.604 -6.468,0.497 -9.849,-0.015l1.604,-6.996c3.307,0.511 6.657,0.664 9.804,0.208Zm-18.437,-12.143c2.126,0.797 4.444,1.534 6.887,2.098c0.429,0.101 0.855,0.192 1.28,0.277l-1.503,6.555c-2.855,-0.597 -5.643,-1.433 -8.177,-2.328l1.513,-6.602Zm4.856,11.204c-2.43,-0.562 -4.785,-1.275 -6.96,-2.032c2.175,0.758 4.53,1.47 6.96,2.032Zm-16.701,-6.126c1.672,0.828 4.224,2.016 7.291,3.196l-1.596,6.961c-3.189,-1.238 -5.786,-2.469 -7.301,-3.229l1.606,-6.928Zm1.275,29.429c-3.257,-1.324 -5.864,-2.619 -7.311,-3.381l1.513,-6.522c1.679,0.833 4.246,2.026 7.332,3.213l-1.534,6.69Zm10.591,3.39c-0.106,-0.024 -0.211,-0.047 -0.321,-0.07c-2.751,-0.638 -5.411,-1.485 -7.827,-2.373c2.415,0.889 5.074,1.735 7.827,2.373c0.108,0.023 0.215,0.046 0.321,0.07l1.58,-6.887l-1.58,6.887Zm-6.016,-11.753l1.704,-7.43c2.166,0.754 4.513,1.464 6.937,2.023c0.412,0.096 0.83,0.187 1.247,0.271l-1.71,7.458c-2.851,-0.593 -5.641,-1.428 -8.178,-2.322Zm18.334,12.592c-2.884,0.397 -6.155,0.285 -9.774,-0.332l1.587,-6.935c3.31,0.509 6.661,0.656 9.808,0.196l-1.621,7.071Zm-2.564,-9.386c1.655,0.014 3.272,-0.112 4.814,-0.417l1.663,-7.26l-1.663,7.26c-1.542,0.305 -3.159,0.43 -4.814,0.417Zm5.35,8.84c3.214,-0.747 6.256,-1.239 9.105,-1.478c-2.849,0.239 -5.891,0.731 -9.105,1.478Zm2.295,-10.011l1.627,-7.097c0.157,-0.043 0.318,-0.085 0.473,-0.134c2.933,-0.91 5.858,-1.405 8.685,-1.578l-1.69,7.365c-2.824,0.119 -5.896,0.545 -9.095,1.444Zm18.527,9.236c-0.092,-0.022 -0.177,-0.047 -0.267,-0.068c-2.643,-0.612 -5.571,-0.871 -8.756,-0.785l1.666,-7.272c3.196,0.026 6.229,0.442 8.964,1.11l-1.607,7.015Zm0.794,-9.859c-2.076,-0.425 -4.65,-0.783 -7.56,-0.848l1.7,-7.414l-1.7,7.414c2.91,0.066 5.484,0.424 7.56,0.848c0.466,0.098 0.929,0.206 1.391,0.32c-0.462,-0.112 -0.925,-0.22 -1.391,-0.32Zm-5.269,-10.842l1.593,-6.953c3.196,0.023 6.228,0.435 8.969,1.1l-1.608,7.014c-0.452,-0.109 -0.909,-0.215 -1.37,-0.309c-2.082,-0.426 -4.661,-0.786 -7.584,-0.852Zm8.576,14.391c0.863,0.275 1.687,0.576 2.469,0.895c-0.78,-0.319 -1.604,-0.62 -2.469,-0.895Zm8.374,1.054c-2.135,-1.421 -4.824,-2.659 -7.793,-3.592l1.713,-7.463c3.214,1.026 5.891,2.38 7.763,3.782l-1.683,7.273Zm-3.894,-20.598c3.226,1.029 5.91,2.387 7.787,3.793c-1.877,-1.406 -4.561,-2.764 -7.787,-3.793Zm8.418,1.071c-2.145,-1.427 -4.851,-2.671 -7.835,-3.603l1.353,-5.903c4.003,1.81 6.454,4.16 7.463,5.272l-0.981,4.234Z" style="fill-rule:nonzero;"/><path d="M33.564,9.2c0.612,-2.635 -1.031,-5.266 -3.665,-5.878c-2.635,-0.61 -5.267,1.031 -5.879,3.669c-0.453,1.961 0.343,3.917 1.866,5.043l-25.263,109.043c-0.243,1.047 0.41,2.09 1.454,2.331c1.047,0.244 2.09,-0.408 2.331,-1.453l25.262,-109.042c1.862,-0.34 3.44,-1.749 3.894,-3.713Z" style="fill-rule:nonzero;"/></g></svg>