<?xml version="1.0" encoding="UTF-8"?>
<svg width="24px" height="24px" viewBox="0 0 25 25" version="1.1" xmlns="http://www.w3.org/2000/svg" xmlns:xlink="http://www.w3.org/1999/xlink">
    <!-- Generator: Sketch 52.5 (67469) - http://www.bohemiancoding.com/sketch -->
    <title>green-energy</title>
    <desc>Created with Sketch.</desc>
    <g id="Page-1" stroke="none" stroke-width="1" fill="none" fill-rule="evenodd">
        <g id="Desktop-Web" transform="translate(-724.000000, -1641.000000)" fill="#34D8A7" fill-rule="nonzero">
            <g id="green-energy" transform="translate(724.000000, 1641.000000)">
                <path d="M24.0234329,3.46679688 L23.1933509,3.46679688 L23.1933509,0.9765625 C23.1933509,0.437207031 22.7561418,0 22.2167839,0 C21.6774259,0 21.2402168,0.437207031 21.2402168,0.9765625 L21.2402168,3.46679688 L19.2870827,3.46679688 L19.2870827,0.9765625 C19.2870827,0.437207031 18.8498736,0 18.3105156,0 C17.7711576,0 17.3339485,0.437207031 17.3339485,0.9765625 L17.3339485,3.46679688 L16.4550382,3.46679688 C15.9156802,3.46679688 15.4784711,3.90400391 15.4784711,4.44335938 L15.4784711,6.93359375 C15.4784711,9.19804688 17.0677363,11.0980957 19.1894259,11.5774414 L19.1894259,16.7868164 C19.1894259,20.2385742 16.3811609,23.0468262 12.9293869,23.0468262 C10.0833775,23.0468262 7.60026042,21.1225586 6.88878248,18.3664551 C6.86168274,18.2520508 6.11797809,15.0185547 7.1872702,11.3577637 C7.33854044,10.8400391 7.04141991,10.2978027 6.52369288,10.146582 C6.00611233,9.99506836 5.46372699,10.2923828 5.31250557,10.8101563 C4.6230004,13.170752 4.59126197,15.3461426 4.70478789,16.836377 C4.13955087,16.5597168 3.50746784,16.1664063 2.99477013,15.5489746 C2.15887754,14.5422363 1.82362207,13.1178711 1.99837875,11.3154297 C2.39764819,7.19814453 5.78794725,3.73305664 7.30665553,2.37226563 C8.5341515,4.00776367 11.2004237,8.08969727 10.79925,12.2270996 C10.6490051,13.7765137 10.164579,14.9421387 9.3182372,15.7907227 C8.93737604,16.1725586 8.93820613,16.7908691 9.32009268,17.1717773 C9.70188157,17.5526367 10.320195,17.5518066 10.7011538,17.1699219 C11.8796261,15.9883301 12.547598,14.4331543 12.7432044,12.415625 C12.9923267,9.84663086 12.2773819,6.93833008 10.6757631,4.00522461 C9.62009408,2.07197266 8.51344828,0.727392578 8.23873996,0.405078125 C8.23356416,0.397900391 8.22819304,0.390771484 8.22282192,0.383691406 C7.89625789,-0.0436035156 7.28565933,-0.126464844 6.85694639,0.198339844 C6.79356719,0.246386719 5.28604061,1.39702148 3.69848435,3.2956543 C1.56365992,5.8487793 0.303595429,8.55678711 0.054375513,11.1269043 C-0.172481017,13.4668457 0.311212652,15.3744141 1.49212638,16.7966309 C2.56234623,18.0855469 3.96059495,18.6631836 4.71177034,18.9734863 C4.8014192,19.0105469 4.90434937,19.0530762 4.98340247,19.0878418 C5.01714287,19.1277344 5.05469187,19.1642578 5.09443815,19.1983398 C6.14097625,22.6323242 9.31179186,25 12.9293869,25 C17.4581679,25 21.1425601,21.315625 21.1425601,16.7868652 L21.1425601,11.6080078 C23.3371504,11.1847656 25,9.24990234 25,6.93359375 L25,4.44335938 C25,3.90405273 24.5627909,3.46679688 24.0234329,3.46679688 Z M23.0468659,6.93359375 C23.0468659,8.48173828 21.7873873,9.74121094 20.2392355,9.74121094 C18.6910838,9.74121094 17.4316052,8.48173828 17.4316052,6.93359375 L17.4316052,5.41992188 L23.0468659,5.41992188 L23.0468659,6.93359375 Z" id="Shape"></path>
            </g>
        </g>
    </g>
</svg>