
<svg width="66px" height="62px" viewBox="0 0 66 62" version="1.1" xmlns="http://www.w3.org/2000/svg" xmlns:xlink="http://www.w3.org/1999/xlink">
    <g id="Page-1" stroke="none" stroke-width="1" fill="none" fill-rule="evenodd">
        <g id="Desktop-Web" transform="translate(-232.000000, -817.000000)">
            <g id="Group-12" transform="translate(233.000000, 817.000000)">
                <rect id="Rectangle-path-Copy" fill="#B6FFE0" fill-rule="nonzero" x="10" y="1.17239551e-13" width="54.144" height="54.144" rx="5.076"></rect>
                <g id="menu" transform="translate(0.000000, 8.000000)" fill="#000000" stroke="#1E1E1E" stroke-width="0.5">
                    <path d="M44.8644068,0 L37.1355932,0 C32.6496271,0 29,3.64962712 29,8.13559322 L29,15.8644068 C29,20.3503729 32.6496271,24 37.1355932,24 L44.8644068,24 C49.3503729,24 53,20.3503729 53,15.8644068 L53,8.13559322 C53,3.64962712 49.3503729,0 44.8644068,0 Z M48.9322034,15.8644068 C48.9322034,18.1073898 47.1073898,19.9322034 44.8644068,19.9322034 L37.1355932,19.9322034 C34.8926102,19.9322034 33.0677966,18.1073898 33.0677966,15.8644068 L33.0677966,8.13559322 C33.0677966,5.89261017 34.8926102,4.06779661 37.1355932,4.06779661 L44.8644068,4.06779661 C47.1073898,4.06779661 48.9322034,5.89261017 48.9322034,8.13559322 L48.9322034,15.8644068 Z" id="Shape" fill-rule="nonzero"></path>
                    <path d="M15.8644068,0 L8.13559322,0 C3.64962712,0 0,3.64962712 0,8.13559322 L0,15.8644068 C0,20.3503729 3.64962712,24 8.13559322,24 L15.8644068,24 C20.3503729,24 24,20.3503729 24,15.8644068 L24,8.13559322 C24,3.64962712 20.3503729,0 15.8644068,0 Z M19.9322034,15.8644068 C19.9322034,18.1073898 18.1073898,19.9322034 15.8644068,19.9322034 L8.13559322,19.9322034 C5.89261017,19.9322034 4.06779661,18.1073898 4.06779661,15.8644068 L4.06779661,8.13559322 C4.06779661,5.89261017 5.89261017,4.06779661 8.13559322,4.06779661 L15.8644068,4.06779661 C18.1073898,4.06779661 19.9322034,5.89261017 19.9322034,8.13559322 L19.9322034,15.8644068 Z" id="Shape" fill-rule="nonzero"></path>
                    <path d="M15.8644068,29 L8.13559322,29 C3.64962712,29 0,32.6496271 0,37.1355932 L0,44.8644068 C0,49.3503729 3.64962712,53 8.13559322,53 L15.8644068,53 C20.3503729,53 24,49.3503729 24,44.8644068 L24,37.1355932 C24,32.6496271 20.3503729,29 15.8644068,29 Z M19.9322034,44.8644068 C19.9322034,47.1073898 18.1073898,48.9322034 15.8644068,48.9322034 L8.13559322,48.9322034 C5.89261017,48.9322034 4.06779661,47.1073898 4.06779661,44.8644068 L4.06779661,37.1355932 C4.06779661,34.8926102 5.89261017,33.0677966 8.13559322,33.0677966 L15.8644068,33.0677966 C18.1073898,33.0677966 19.9322034,34.8926102 19.9322034,37.1355932 L19.9322034,44.8644068 Z" id="Shape" fill-rule="nonzero"></path>
                    <path d="M50.9661017,42.8305085 C49.8427797,42.8305085 48.9322034,43.7410847 48.9322034,44.8644068 C48.9322034,47.1073898 47.1073898,48.9322034 44.8644068,48.9322034 L37.1355932,48.9322034 C34.8926102,48.9322034 33.0677966,47.1073898 33.0677966,44.8644068 L33.0677966,37.1355932 C33.0677966,34.8926102 34.8926102,33.0677966 37.1355932,33.0677966 L44.8644068,33.0677966 C46.4818644,33.0677966 47.9458644,34.025661 48.5940678,35.5080678 C49.0440678,36.537322 50.2433559,37.0066441 51.2725085,36.5567458 C52.3017627,36.1066441 52.7711864,34.9074576 52.3211864,33.8783051 C51.0252881,30.9148136 48.0983051,29 44.8644068,29 L37.1355932,29 C32.6496271,29 29,32.6496271 29,37.1355932 L29,44.8644068 C29,49.3503729 32.6496271,53 37.1355932,53 L44.8644068,53 C49.3503729,53 53,49.3503729 53,44.8644068 C53,43.7410847 52.0894237,42.8305085 50.9661017,42.8305085 Z" id="Path"></path>
                </g>
            </g>
        </g>
    </g>
</svg>