
<svg width="66px" height="64px" viewBox="0 0 66 64" version="1.1" xmlns="http://www.w3.org/2000/svg" xmlns:xlink="http://www.w3.org/1999/xlink">
    <g id="Page-1" stroke="none" stroke-width="1" fill="none" fill-rule="evenodd">
        <g id="Desktop-Web" transform="translate(-584.000000, -817.000000)">
            <g id="Group-15" transform="translate(584.000000, 817.000000)">
                <rect id="Rectangle-path-Copy-2" fill="#B6FFE0" fill-rule="nonzero" x="11" y="1.17239551e-13" width="54.144" height="54.144" rx="5.076"></rect>
                <g id="gps" transform="translate(0.000000, 4.000000)" fill="#000000">
                    <path d="M51.2110375,42.0703125 C49.9165819,42.0703125 48.8672829,43.1196094 48.8672829,44.4140625 L48.8672829,50.625 C48.8672829,51.1756641 48.7710718,51.7040625 48.5958762,52.1953125 L29.8868552,33.4863281 L33.7206518,29.6525391 C34.4076063,30.4417969 35.1129592,31.2151172 35.814445,31.9833984 C37.7738238,34.1292187 39.7999996,36.3480469 41.3984402,38.8770703 C41.8279333,39.5565234 42.5757082,39.9685547 43.379616,39.9685547 L44.2765709,39.9685547 C45.0804787,39.9685547 45.8282536,39.5565234 46.2577466,38.8770703 C47.8563044,36.3480469 49.8823631,34.1292188 51.8417419,31.9833984 C55.8493278,27.5946094 59.9933203,23.0565234 60,16.1532422 C59.9898047,7.24628906 52.7352983,0 43.8282106,0 C38.1528089,0 33.1490101,2.94246094 30.2619732,7.3828125 L9.37501831,7.3828125 C4.20563321,7.3828125 0,11.5884375 0,16.7578125 L0,50.625 C0,55.794375 4.20563321,60 9.37501831,60 L44.1797738,60 C49.3491589,60 53.5547921,55.794375 53.5547921,50.625 L53.5547921,44.4140625 C53.5547921,43.1196094 52.5056104,42.0703125 51.2110375,42.0703125 Z M43.8282106,4.6875 C50.1534183,4.6875 55.3053424,9.8334375 55.312608,16.1535938 C55.3076861,21.2363672 52.0974455,24.751875 48.3803679,28.8225 C46.8464977,30.5022656 45.2743072,32.2241016 43.8282106,34.1546484 C42.382114,32.2241016 40.8099235,30.5022656 39.2760533,28.8225 C35.5589757,24.751875 32.3487351,21.23625 32.3438132,16.1585156 C32.351196,9.8334375 37.5031201,4.6875 43.8282106,4.6875 Z M4.68750916,50.625 L4.68750916,16.7578125 C4.68750916,14.173125 6.79032576,12.0703125 9.37501831,12.0703125 L28.185055,12.0703125 C27.8420466,13.3763672 27.6579446,14.7462891 27.656304,16.1581641 C27.660054,20.0266406 28.9651738,23.1527344 30.817443,25.9266797 L4.86059543,51.8835937 C4.74856396,51.4826953 4.68750916,51.0609375 4.68750916,50.625 Z M44.1797738,55.3125 L9.37501831,55.3125 C8.9721269,55.3125 8.58107145,55.2614063 8.20782853,55.1653125 L26.5723175,36.8008594 L45.0089942,55.2375 C44.7395796,55.2857813 44.4627822,55.3125 44.1797738,55.3125 Z" id="Shape" fill-rule="nonzero"></path>
                    <path d="M46.3333333,20.6666667 C46.3333333,19.3779667 45.2887,18.3333333 44,18.3333333 C42.7134,18.3333333 41.6666667,17.2866 41.6666667,16 C41.6666667,14.7134 42.7134,13.6666667 44,13.6666667 C45.2866,13.6666667 46.3333333,14.7134 46.3333333,16 C46.3333333,17.2887 47.3779667,18.3333333 48.6666667,18.3333333 C49.9553667,18.3333333 51,17.2887 51,16 C51,12.1402 47.8598,9 44,9 C40.1402,9 37,12.1402 37,16 C37,19.8598 40.1402,23 44,23 C45.2888167,23 46.3333333,21.9553667 46.3333333,20.6666667 Z" id="Path"></path>
                </g>
            </g>
        </g>
    </g>
</svg>