<?xml version="1.0" encoding="UTF-8"?>
<svg width="65px" height="65px" viewBox="0 0 65 65" version="1.1" xmlns="http://www.w3.org/2000/svg" xmlns:xlink="http://www.w3.org/1999/xlink">
    <!-- Generator: Sketch 55 (78076) - https://sketchapp.com -->
    <title>noun_car protection_1378913</title>
    <desc>Created with Sketch.</desc>
    <g id="Page-1" stroke="none" stroke-width="1" fill="none" fill-rule="evenodd">
        <g id="noun_car-protection_1378913" fill="#34D8A7" fill-rule="nonzero">
            <path d="M18.3923469,48.3708333 C20.6636829,48.3735676 22.7126094,46.9782237 23.5824287,44.8363244 C24.452248,42.6944252 23.9713778,40.228486 22.364349,38.5899189 C20.7573202,36.9513518 18.3411385,36.4633837 16.243983,37.3538599 C14.1468274,38.2443361 12.7823871,40.3375994 12.7877551,42.65625 C12.7950608,45.8118754 15.3011155,48.3671121 18.3923469,48.3708333 L18.3923469,48.3708333 Z M18.3923469,40.3067708 C19.6597763,40.3030368 20.690197,41.3488677 20.6938584,42.6427019 C20.6975197,43.936536 19.6730352,44.9884267 18.4056058,44.992168 C17.1381764,44.9959092 16.10775,43.9500841 16.1040816,42.65625 C16.10232,42.0349243 16.3424153,41.4383324 16.7715489,40.9977191 C17.2006824,40.5571057 17.7837014,40.308564 18.3923469,40.3067708 L18.3923469,40.3067708 Z" id="Shape"></path>
            <path d="M46.6076531,48.3708333 C48.8783873,48.3708269 50.9252776,46.9737443 51.7930055,44.8316277 C52.6607335,42.6895111 52.1782246,40.2246835 50.5706739,38.5875218 C48.9631233,36.95036 46.5474631,36.4636342 44.4511228,37.3545074 C42.3547826,38.2453806 40.9910604,40.3382153 40.9964286,42.65625 C41.0073792,45.8129697 43.5153389,48.3671262 46.6076531,48.3708333 Z M46.6076531,40.3067708 C47.8742256,40.3067762 48.9013237,41.3542698 48.9025404,42.6472287 C48.9037571,43.9401877 47.8786323,44.9896937 46.6120621,44.9921832 C45.3454918,44.9946726 44.3164157,43.9492041 44.3127551,42.65625 C44.3109927,42.0337528 44.5519976,41.4361349 44.9825656,40.9953263 C45.4131337,40.5545178 45.9978574,40.3067682 46.6076531,40.3067708 L46.6076531,40.3067708 Z" id="Shape"></path>
            <path d="M3.92653061,36.15625 C2.90346418,38.3345235 2.39894734,40.7287059 2.45408163,43.14375 L2.45408163,59.9692708 C2.46139825,62.6926689 4.62809238,64.8954127 7.29591837,64.8916667 L12.0316327,64.8916667 C13.2371462,64.895265 14.3944933,64.4089201 15.2481673,63.540002 C16.1018413,62.6710838 16.5816378,61.4910504 16.5816327,60.2604167 L16.5816327,57.6333333 L48.4581633,57.6333333 L48.4581633,60.2604167 C48.4581606,62.8155436 50.4852865,64.8879311 52.9882653,64.8916667 L57.7040816,64.8916667 C60.3719076,64.8954127 62.5386017,62.6926689 62.5459184,59.9692708 L62.5459184,43.1708333 C62.6032405,40.7468781 62.0987188,38.3433928 61.0734694,36.15625 C63.1622158,35.5580275 64.6184859,33.6309417 64.655102,31.4166667 C64.655102,30.4822917 64.655102,29.7239583 64.655102,29.0265625 C64.5854192,26.4102025 62.5222445,24.3070198 59.9591837,24.2395833 C59.5545918,24.2395833 59.1433673,24.2395833 58.7056122,24.2395833 C57.7332299,24.2570522 56.7778145,24.5026196 55.9132653,24.9572917 C54.7989796,22.2489583 53.127551,18.44375 51.9336735,16.65625 C50.5468404,14.6449313 48.5705225,13.1347763 46.2892857,12.3432292 C46.2892857,11.1854167 46.2892857,10.0411458 46.2892857,8.9578125 C46.2892857,8.125 46.2892857,7.29895833 46.2892857,6.5 C46.2813952,5.75708971 45.7998778,5.10626776 45.1020408,4.8953125 L33.0903061,0.216666667 C32.7100964,0.0688051067 32.2899036,0.0688051067 31.9096939,0.216666667 L19.8979592,4.8953125 C19.254142,5.14568869 18.8290592,5.77638215 18.830102,6.4796875 C18.830102,7.27864583 18.830102,8.1046875 18.830102,8.9375 C18.830102,10.0411458 18.7903061,11.1854167 18.830102,12.3229167 C16.5497757,13.112668 14.5735702,14.6203665 13.1857143,16.6291667 C11.9653061,18.4166667 10.2938776,22.2354167 9.20612245,24.9302083 C8.3328924,24.4733351 7.36837058,24.2277603 6.3872449,24.2125 L5.16020408,24.2125 C2.59714321,24.2799365 0.53396857,26.3831191 0.464285714,28.9994792 C0.464285714,29.6765625 0.464285714,30.4619792 0.464285714,31.3963542 C0.476348039,33.5845506 1.87807363,35.5116436 3.92653061,36.15625 Z M42.9066327,9.00520833 C43.0459184,16.2026042 43.1785714,23.6302083 34.1581633,27.8348958 L34.1581633,4.25885417 L42.8867347,7.64427083 C42.8867347,8.125 42.9,8.54479167 42.9066327,9.00520833 Z M22.0933673,9.00520833 C22.0933673,8.5515625 22.0933673,8.09791667 22.0933673,7.65104167 L30.8153061,4.265625 L30.8153061,27.8348958 C21.8214286,23.6234375 21.9540816,16.2026042 22.0933673,9.00520833 Z M3.66785714,29.16875 C3.6660838,28.764157 3.82274324,28.375612 4.10299791,28.0895187 C4.38325259,27.8034254 4.76386809,27.6435022 5.16020408,27.6453125 L6.26122449,27.6453125 C7.19083469,27.7025455 8.06497383,28.1160737 8.70867347,28.803125 C9.10786866,29.1765032 9.66048931,29.3274152 10.1889856,29.2073749 C10.7174819,29.0873347 11.1552851,28.7114624 11.3617347,28.2005208 C13.1591837,23.6572917 14.8637755,19.9875 15.8056122,18.6130208 C16.5941754,17.4595461 17.6672977,16.5392503 18.9163265,15.9453125 C19.5464286,22.2151042 22.1397959,28.4713542 31.9428571,31.9447917 C32.2951273,32.069651 32.678342,32.069651 33.0306122,31.9447917 C42.8469388,28.4375 45.4469388,22.2015625 46.0704082,15.9317708 C47.3186425,16.5238287 48.3916861,17.4417215 49.1811224,18.5927083 C50.1229592,19.946875 51.8341837,23.6369792 53.625,28.1802083 C53.8314496,28.6911499 54.2692528,29.0670222 54.7977491,29.1870624 C55.3262454,29.3071027 55.878866,29.1561907 56.2780612,28.7828125 C56.9147677,28.101349 57.7785512,27.6882416 58.6989796,27.625 L59.8265306,27.625 C60.2228666,27.6231897 60.6034821,27.7831129 60.8837368,28.0692062 C61.1639915,28.3552995 61.3206509,28.7438445 61.3188776,29.1484375 C61.3188776,29.778125 61.3188776,30.5026042 61.3188776,31.3421875 C61.297532,32.2233915 60.5970944,32.9294462 59.7336735,32.9401042 L58.4071429,32.9401042 L58.2214286,32.9401042 C57.5933627,32.9401042 57.0192019,33.3023478 56.7383223,33.8758103 C56.4574426,34.4492729 56.5180584,35.135517 56.894898,35.6484375 C57.0363946,35.8425347 57.1734694,36.0366319 57.3061224,36.2307292 C58.6369052,38.274337 59.309356,40.6911503 59.2295918,43.14375 L59.2295918,59.9692708 C59.2222961,60.8229532 58.5403656,61.5100105 57.7040816,61.50625 L52.9882653,61.50625 C52.3168441,61.5025249 51.7744799,60.9458359 51.7744898,60.2604167 L51.7744898,55.940625 C51.7744898,55.005768 51.0321048,54.2479167 50.1163265,54.2479167 L14.8903061,54.2479167 C13.9745278,54.2479167 13.2321429,55.005768 13.2321429,55.940625 L13.2321429,60.2604167 C13.2321528,60.9458359 12.6897885,61.5025249 12.0183673,61.50625 L7.29591837,61.50625 C6.45963437,61.5100105 5.77770391,60.8229532 5.77040816,59.9692708 L5.77040816,43.1098958 C5.70216083,40.6829971 6.371775,38.2940694 7.6872449,36.2713542 C7.81989796,36.0727431 7.95697279,35.8763889 8.09846939,35.6822917 C8.47530894,35.1693712 8.5359247,34.483127 8.25504509,33.9096645 C7.97416547,33.3362019 7.40000469,32.9739583 6.77193878,32.9739583 L6.59285714,32.9739583 L5.26632653,32.9739583 C4.40290558,32.9633004 3.70246802,32.2572456 3.68112245,31.3760417 C3.64132653,30.46875 3.64132653,29.7916667 3.66785714,29.16875 Z" id="Shape"></path>
        </g>
    </g>
</svg>