<?xml version="1.0" encoding="UTF-8"?>
<svg width="22px" height="31px" viewBox="0 0 22 31" version="1.1" xmlns="http://www.w3.org/2000/svg" xmlns:xlink="http://www.w3.org/1999/xlink">
    <!-- Generator: Sketch 58 (84663) - https://sketch.com -->
    <title>lamp</title>
    <desc>Created with Sketch.</desc>
    <g id="Page-1" stroke="none" stroke-width="1" fill="none" fill-rule="evenodd">
        <g id="Desktop-Web" transform="translate(-158.000000, -2311.000000)" fill="#3BD9AA" fill-rule="nonzero">
            <g id="lamp" transform="translate(158.000000, 2311.000000)">
                <path d="M20.7596348,17.8929685 C20.531736,17.6622845 20.2208271,17.5322901 19.8964164,17.5322901 L19.1077918,17.5322901 L19.1077918,15.712308 C19.1077918,15.0421739 18.5645641,14.4990068 17.8944906,14.4990068 C17.2243565,14.4990068 16.6811894,15.0421739 16.6811894,15.712308 L16.6811894,17.5322901 L14.1939189,17.5322901 L14.1939189,3.63990359 C14.1939189,2.97085932 14.7382364,2.4266024 15.4072201,2.4266024 L15.4678882,2.4266024 C16.1369325,2.4266024 16.6811894,2.97091987 16.6811894,3.63990359 L16.6811894,9.64580204 C16.6811894,10.3159362 17.224417,10.8591032 17.8944906,10.8591032 C18.5646247,10.8591032 19.1077918,10.3159362 19.1077918,9.64580204 L19.1077918,3.63990359 C19.1077918,1.63289186 17.4748999,0 15.4678276,0 L15.4071595,0 C13.4000873,0 11.7672559,1.63289186 11.7672559,3.63990359 L11.7672559,17.5322901 L9.34065355,17.5322901 L9.34065355,3.63990359 C9.34065355,1.63289186 7.70776169,0 5.70068941,0 L5.64002133,0 C3.63294905,0 2.00011773,1.63289186 2.00011773,3.63990359 L2.00011773,17.5322901 L1.39343686,17.5322901 C1.06121551,17.5322901 0.743646527,17.6684603 0.514597252,17.909074 C0.285608523,18.1496878 0.165241101,18.4736748 0.181588789,18.8054117 C0.188975522,18.9553261 0.272651467,20.3101256 0.921775782,21.7122729 C1.83839671,23.6921596 3.46626317,24.8076774 5.5186246,24.8697986 L5.5186246,27.3600964 C5.5186246,29.3671687 7.15151646,31 9.1585282,31 L11.888471,31 C13.8955433,31 15.5283746,29.3671081 15.5283746,27.3600964 L15.5283746,24.8728259 L15.5890427,24.8728259 C17.8090588,24.8728259 19.5331949,23.7443511 20.4438823,21.6953197 C21.0730866,20.2795494 21.1075984,18.9118533 21.109576,18.7605464 C21.1136531,18.4362567 20.9876548,18.1238342 20.7596348,17.8929685 Z M4.42672013,3.63990359 C4.42672013,2.97085932 4.9710376,2.4266024 5.64002133,2.4266024 L5.70068941,2.4266024 C6.36973369,2.4266024 6.91399061,2.97091987 6.91399061,3.63990359 L6.91399061,17.5322901 L4.42672013,17.5322901 L4.42672013,3.63990359 Z M13.1018933,27.360157 C13.1018933,28.0292012 12.5575759,28.5734582 11.8885921,28.5734582 L9.15864929,28.5734582 C8.48960502,28.5734582 7.94534809,28.0291407 7.94534809,27.360157 L7.94534809,24.8728865 L13.1018933,24.8728865 L13.1018933,27.360157 Z M18.2265303,20.7097963 C17.7000136,21.8944588 16.8619827,22.4462235 15.5891638,22.4462235 L5.70068941,22.4462235 C4.51427108,22.4462235 3.70330465,21.9057205 3.14851255,20.7452163 C3.0217877,20.4800205 2.92406485,20.2110707 2.84886548,19.958953 L18.4891226,19.958953 C18.4250033,20.1987797 18.3397532,20.4550751 18.2265303,20.7097963 Z" id="Shape"></path>
            </g>
        </g>
    </g>
</svg>