<?xml version="1.0" encoding="UTF-8"?>
<svg width="28px" height="28px" viewBox="0 0 28 28" version="1.1" xmlns="http://www.w3.org/2000/svg" xmlns:xlink="http://www.w3.org/1999/xlink">
    <!-- Generator: Sketch 58 (84663) - https://sketch.com -->
    <title>flashlight</title>
    <desc>Created with Sketch.</desc>
    <g id="Page-1" stroke="none" stroke-width="1" fill="none" fill-rule="evenodd">
        <g id="Desktop-Web" transform="translate(-156.000000, -4937.000000)" fill="#3BD9AA" fill-rule="nonzero">
            <g id="Group-19" transform="translate(155.000000, 4741.000000)">
                <g id="flashlight" transform="translate(1.000000, 196.000000)">
                    <path d="M22.509895,6.91764706 C22.7871725,6.91764706 23.0646148,6.8114479 23.2782431,6.59837884 L27.3409158,2.57488385 C27.7741585,2.14298863 27.7812977,1.43536684 27.3569517,0.994360849 C26.9325507,0.553410749 26.2372976,0.546144491 25.8041098,0.978039715 L21.7414371,5.0015347 C21.3081945,5.43342993 21.3010552,6.14105171 21.7254013,6.58205771 C21.9405124,6.8055231 22.2250939,6.91764706 22.509895,6.91764706 Z" id="Path"></path>
                    <path d="M19.3087509,3.93857489 C19.3640439,3.94826378 19.418927,3.95294118 19.4731438,3.95294118 C19.9671937,3.95294118 20.4023122,3.56371506 20.483535,3.01668254 L20.7397071,1.29089069 C20.8298465,0.683775907 20.4499698,0.112354105 19.8912491,0.0144072188 C19.332221,-0.0836510343 18.8066556,0.329240474 18.716465,0.936299574 L18.4602929,2.66209142 C18.3701535,3.26909484 18.7500302,3.840628 19.3087509,3.93857489 Z" id="Path"></path>
                    <path d="M21.0944603,7.32042538 L20.9646282,7.19173301 C17.3444076,3.60171821 13.9990415,3.00213624 13.8584221,2.97921393 C13.5085522,2.92207191 13.1524631,3.03575562 12.9016597,3.28440804 L11.4985477,4.69533041 C11.4775786,4.71612421 11.4574901,4.73779125 11.4382822,4.76016778 C9.49090979,7.03160435 8.84042806,9.51288915 9.49327638,12.1546301 L0.961228027,20.556091 C0.342722767,21.1658243 0.00127352047,21.9778196 3.82412851e-06,22.8427 C-0.00131321625,23.7075257 0.33760433,24.5206126 0.954238334,25.1322561 L2.89429087,27.0560377 C3.52881188,27.6852549 4.36355732,28 5.1983578,28 C6.02963592,28 6.86091403,27.6878201 7.49460949,27.0632964 L12.6118902,22.0107295 C13.0431597,21.5860665 13.0455814,20.8950682 12.6173388,20.4674035 C12.1890963,20.0396843 11.4923285,20.0373375 11.0610039,20.4620004 L5.94333798,25.5149494 C5.53127632,25.9211108 4.86153166,25.9201284 4.45062578,25.5126572 L2.51062828,23.5888755 C2.31051393,23.3904884 2.2005501,23.1266636 2.20099039,22.8460292 C2.20143069,22.5653947 2.31216504,22.3018973 2.51249954,22.1044926 L10.4740349,14.2647373 L14.1738939,17.9336703 C14.1752148,17.9349802 14.1765907,17.93629 14.1778566,17.9375999 L14.1946979,17.9543004 C14.2060905,17.9656524 14.2184188,17.9754217 14.2301967,17.9861187 C14.2398282,17.9947419 14.2490744,18.0037471 14.2590911,18.0120428 C14.3732928,18.1088622 14.5023544,18.1787752 14.6385159,18.2217273 C15.8089317,18.7002576 16.9508934,18.9399049 18.0607135,18.9399049 C19.9941066,18.9399049 21.8299191,18.2145231 23.5465767,16.7673071 C23.5691968,16.7482597 23.5909364,16.7282846 23.6119606,16.7074908 L25.0423709,15.316107 C25.2930642,15.0675091 25.4075961,14.7143419 25.3501376,14.3673965 C25.326912,14.2278979 24.7146809,10.9104948 21.0944603,7.32042538 Z M15.5865824,16.2480078 L11.9618488,12.6535722 C11.2301875,10.8288477 11.2744372,9.19203148 12.1152367,7.61432206 L20.6683092,16.0959019 C19.0773561,16.9296188 17.4268529,16.9735532 15.5865824,16.2480078 Z M22.4485344,14.7744857 L13.4477914,5.84897721 L14.0130759,5.28841773 C14.9658206,5.58526156 17.1088494,6.45483553 19.4083483,8.73511356 L19.5381804,8.8638605 C21.8376243,11.1440839 22.714528,13.2691998 23.013874,14.2139808 L22.4485344,14.7744857 Z" id="Shape"></path>
                    <path d="M27.9779831,8.16076406 C27.8604956,7.54122122 27.3045173,7.14287821 26.736827,7.27103775 L25.2140578,7.61472533 C24.6460524,7.74288488 24.2809324,8.34907895 24.3984725,8.96867908 C24.5011494,9.50996267 24.938222,9.88235294 25.4257666,9.88235294 C25.4963011,9.88235294 25.5678336,9.87456139 25.6395761,9.85840538 L27.1622927,9.5147178 C27.7304032,9.38650097 28.0955757,8.78036418 27.9779831,8.16076406 Z" id="Path"></path>
                    <path d="M10.0657845,16.7827069 L8.54288835,18.2747578 C8.13276271,18.6909161 8.13276271,19.3656808 8.54288835,19.7819457 C8.7480037,19.9900248 9.01678097,20.0941176 9.28561077,20.0941176 C9.55444056,20.0941176 9.82327036,19.9900248 10.0283332,19.7819457 L11.5512293,18.2898947 C11.9613549,17.8737365 11.9613549,17.1989717 11.5512293,16.7827069 C11.1410511,16.3665487 10.4759626,16.3665487 10.0657845,16.7827069 Z" id="Path"></path>
                </g>
            </g>
        </g>
    </g>
</svg>