<?xml version="1.0" encoding="UTF-8"?>
<svg width="26px" height="30px" viewBox="0 0 26 30" version="1.1" xmlns="http://www.w3.org/2000/svg" xmlns:xlink="http://www.w3.org/1999/xlink">
    <!-- Generator: Sketch 52.5 (67469) - http://www.bohemiancoding.com/sketch -->
    <title>lock</title>
    <desc>Created with Sketch.</desc>
    <g id="Page-1" stroke="none" stroke-width="1" fill="none" fill-rule="evenodd">
        <g id="Desktop-Web" transform="translate(-156.000000, -2438.000000)" fill="#34D8A7" stroke="#34D8A7" stroke-width="0.5">
            <g id="lock" transform="translate(157.000000, 2439.000000)">
                <path d="M22.9285714,19.796875 C23.5203214,19.796875 24,19.3072031 24,18.703125 L24,14.65625 C24,12.243875 22.0774286,10.28125 19.7142857,10.28125 L7.71230357,10.28125 L7.71230357,6.42392187 C7.71230357,4.08794531 9.634875,2.1875 11.9980179,2.1875 C14.3611607,2.1875 16.2837321,4.10107031 16.2837321,6.453125 C16.2837321,7.05720312 16.7634107,7.546875 17.3551607,7.546875 C17.9469107,7.546875 18.4265893,7.05720312 18.4265893,6.453125 C18.4265893,2.89488281 15.5427321,0 11.9980179,0 C8.45330357,0 5.56944643,2.88175781 5.56944643,6.42392187 L5.56944643,10.28125 L4.28571429,10.28125 C1.92257143,10.28125 0,12.243875 0,14.65625 L0,23.625 C0,26.037375 1.92257143,28 4.28571429,28 L19.7142857,28 C22.0774286,28 24,26.037375 24,23.625 C24,23.0209219 23.5203214,22.53125 22.9285714,22.53125 C22.3368214,22.53125 21.8571429,23.0209219 21.8571429,23.625 C21.8571429,24.8311875 20.8958571,25.8125 19.7142857,25.8125 L4.28571429,25.8125 C3.10414286,25.8125 2.14285714,24.8311875 2.14285714,23.625 L2.14285714,14.65625 C2.14285714,13.4500625 3.10414286,12.46875 4.28571429,12.46875 L19.7142857,12.46875 C20.8958571,12.46875 21.8571429,13.4500625 21.8571429,14.65625 L21.8571429,18.703125 C21.8571429,19.3072031 22.3368214,19.796875 22.9285714,19.796875 Z" id="Path"></path>
                <ellipse id="Oval" cx="12" cy="18.9765625" rx="1.07142857" ry="1.09375"></ellipse>
            </g>
        </g>
    </g>
</svg>