<?xml version="1.0" encoding="UTF-8"?>
<svg width="49px" height="36px" viewBox="0 0 49 36" version="1.1" xmlns="http://www.w3.org/2000/svg" xmlns:xlink="http://www.w3.org/1999/xlink">
    <!-- Generator: Sketch 58 (84663) - https://sketch.com -->
    <title>machine-wash</title>
    <desc>Created with Sketch.</desc>
    <g id="Page-1" stroke="none" stroke-width="1" fill="none" fill-rule="evenodd">
        <g id="Desktop-Web" transform="translate(-968.000000, -2719.000000)" fill="#34D8A7" fill-rule="nonzero">
            <g id="Group-2" transform="translate(0.000000, 2043.000000)">
                <g id="machine-wash" transform="translate(968.000000, 676.000000)">
                    <path d="M17.7142857,20.2860863 C18.766369,20.2860863 19.6190476,21.1387649 19.6190476,22.1904762 C19.6190476,23.2425595 18.766369,24.0952381 17.7142857,24.0952381 C16.6625744,24.0952381 15.8095238,23.2425595 15.8095238,22.1904762 C15.8095238,21.1387649 16.6625744,20.2860863 17.7142857,20.2860863 Z M22.4761905,22.1904762 C22.4761905,23.2425595 23.328869,24.0952381 24.3809524,24.0952381 C25.4330357,24.0952381 26.2857143,23.2425595 26.2857143,22.1904762 C26.2857143,21.1387649 25.4330357,20.2860863 24.3809524,20.2860863 C23.328869,20.2860863 22.4761905,21.1387649 22.4761905,22.1904762 Z M29.1428571,22.1904762 C29.1428571,23.2425595 29.9955357,24.0952381 31.047619,24.0952381 C32.0997024,24.0952381 32.952381,23.2425595 32.952381,22.1904762 C32.952381,21.1387649 32.0997024,20.2860863 31.047619,20.2860863 C29.9955357,20.2860863 29.1428571,21.1387649 29.1428571,22.1904762 Z M47.1897322,0.0297619048 C46.1532738,-0.154389905 45.1651786,0.536458286 44.9813989,1.57217257 L43.6659227,8.98363095 C43.0930059,9.2790179 42.5494791,9.42894343 42.0435268,9.42894343 C40.7094494,9.42894343 39.0732887,8.35119048 37.436756,6.39397324 C36.4181548,5.17522324 34.8846726,4.47656248 33.2299107,4.47656248 C31.5751488,4.47656248 30.0420387,5.17522324 29.0230655,6.39397324 C27.3865328,8.35081848 25.750744,9.42894343 24.4166667,9.42894343 C23.0825893,9.42894343 21.4464286,8.35119048 19.8102678,6.39397324 C18.7912947,5.17522324 17.2578125,4.47656248 15.6030506,4.47656248 C13.9486608,4.47656248 12.4151786,5.17522324 11.3962053,6.39397324 C9.75967257,8.35081848 8.1238839,9.42894343 6.78980657,9.42894343 C6.26078867,9.42894343 5.69084819,9.26525295 5.08891371,8.94233629 L3.7805059,1.57217257 C3.59672619,0.536458286 2.60863095,-0.154017905 1.57217257,0.0297619048 C0.536458286,0.213541714 -0.154017905,1.20238095 0.0297619048,2.23809524 L4.906622,29.7124256 C5.55357143,33.3556548 8.70833333,36 12.4084821,36 L36.3534227,36 C40.0587798,36 43.2135417,33.3761161 43.8552828,29.7615328 C44.0390625,28.7258185 43.3485863,27.7369791 42.3125,27.5531994 C41.2760417,27.3694196 40.2879465,28.0598958 40.1041667,29.0956101 C39.7860863,30.8887649 38.2087053,32.1904762 36.3534227,32.1904762 L12.4084821,32.1904762 C10.5584077,32.1904762 8.98102676,30.8683036 8.6577381,29.046503 L5.83891371,13.1674107 C6.15625,13.2135417 6.47321429,13.2384672 6.78980657,13.2384672 C9.34375,13.2384672 11.8768601,11.7578125 14.3188244,8.83742562 C14.6116071,8.48697914 15.0799851,8.28608629 15.6030506,8.28608629 C16.1264881,8.28608629 16.5944941,8.48697914 16.8876488,8.83742562 C19.329241,11.7578125 21.8623512,13.2384672 24.4166667,13.2384672 C26.9706101,13.2384672 29.5037202,11.7578125 31.9453125,8.83742562 C32.2384672,8.48697914 32.7068452,8.28608629 33.2299107,8.28608629 C33.7529762,8.28608629 34.2213542,8.48697914 34.514509,8.83742562 C36.9561011,11.7578125 39.4892113,13.2384672 42.0431548,13.2384672 C42.3355655,13.2384672 42.6283482,13.218378 42.921131,13.1785714 L41.5833333,20.7150297 C41.3991815,21.750744 42.0900297,22.7392113 43.125744,22.923363 C43.2384672,22.9430804 43.3504465,22.952753 43.4609375,22.952753 C44.3668154,22.952753 45.1703869,22.3039434 45.3340773,21.3805804 L48.7321429,2.23809524 C48.9162947,1.20238095 48.2254465,0.213541714 47.1897322,0.0297619048 L47.1897322,0.0297619048 Z" id="Shape"></path>
                </g>
            </g>
        </g>
    </g>
</svg>