<?xml version="1.0" encoding="UTF-8"?>
<svg width="41px" height="41px" viewBox="0 0 41 41" version="1.1" xmlns="http://www.w3.org/2000/svg" xmlns:xlink="http://www.w3.org/1999/xlink">
    <!-- Generator: Sketch 58 (84663) - https://sketch.com -->
    <title>distance</title>
    <desc>Created with Sketch.</desc>
    <g id="Page-1" stroke="none" stroke-width="1" fill="none" fill-rule="evenodd">
        <g id="Desktop-Web" transform="translate(-161.000000, -2729.000000)" fill="#3BD9AA" fill-rule="nonzero">
            <g id="Group-2" transform="translate(0.000000, 2043.000000)">
                <g id="distance" transform="translate(161.000000, 686.000000)">
                    <circle id="Oval" cx="8.89299609" cy="26.5859375" r="1.6015625"></circle>
                    <circle id="Oval" cx="13.5375273" cy="29.1484375" r="1.6015625"></circle>
                    <path d="M11.3737363,8.80859375 C11.3737363,7.43973828 10.2601699,6.32617188 8.89131445,6.32617188 C7.52245898,6.32617188 6.40889258,7.43973828 6.40889258,8.80859375 C6.40889258,10.1774492 7.52245898,11.2910156 8.89131445,11.2910156 C10.2601699,11.2910156 11.3737363,10.1774492 11.3737363,8.80859375 Z" id="Path"></path>
                    <path d="M8.61368359,21.6210938 L9.08358203,21.6210938 C9.63203711,21.6210938 10.1422949,21.3405 10.4360215,20.8774082 C11.255541,19.5855078 12.3055254,18.4396699 13.320916,17.3316289 C15.4694121,14.9871816 17.6909395,12.5628164 17.694623,8.81011523 C17.6888574,3.95217578 13.7205859,0 8.84863281,0 C3.97667969,0 0.008328125,3.95217578 0.00264257813,8.81355859 C0.00632617188,12.5627363 2.22785352,14.9870215 4.37634961,17.3315488 C5.39166016,18.4396699 6.44172461,19.5854277 7.26124414,20.8774082 C7.5549707,21.3405 8.06514844,21.6210938 8.61368359,21.6210938 Z M6.73777344,15.1674375 C4.76576953,13.015498 3.20816992,11.3156797 3.20576758,8.81379883 C3.20937109,5.72006055 5.7407207,3.203125 8.84863281,3.203125 C11.9565449,3.203125 14.4878945,5.72006055 14.491418,8.81035547 C14.4890156,11.3156797 12.931416,13.015498 10.959332,15.1675176 C10.2526426,15.9386699 9.53073828,16.7265586 8.84863281,17.5926035 C8.16644727,16.7265586 7.44454297,15.9386699 6.73777344,15.1674375 Z" id="Shape"></path>
                    <circle id="Oval" cx="22.8266699" cy="34.2734375" r="1.6015625"></circle>
                    <path d="M32.1940488,18.7382812 C30.8251934,18.7382812 29.711627,19.8518477 29.711627,21.2207031 C29.711627,22.5895586 30.8251934,23.703125 32.1940488,23.703125 C33.5629043,23.703125 34.6764707,22.5895586 34.6764707,21.2207031 C34.6764707,19.8518477 33.5629043,18.7382812 32.1940488,18.7382812 Z" id="Path"></path>
                    <circle id="Oval" cx="18.2621367" cy="31.7109375" r="1.6015625"></circle>
                    <path d="M32.1513672,12.4121094 C27.279334,12.4121094 23.3110625,16.3642852 23.305377,21.225668 C23.3089805,24.9553066 25.5782344,27.3624551 27.7726953,29.6903262 C28.8333301,30.8153437 29.9300801,31.9787187 30.7615312,33.2895176 C31.0665488,33.7703867 31.5852148,34.0334434 32.1154121,34.0334434 C32.4088184,34.0334434 32.705748,33.9528047 32.9717676,33.7840801 C33.7186562,33.3103379 33.9401523,32.3207324 33.4663301,31.5737637 C32.4707988,30.0043125 31.2673047,28.727707 30.1034492,27.4930625 C28.096291,25.3638652 26.5109043,23.6821445 26.5084219,21.2259082 C26.5121055,18.1321699 29.0434551,15.6152344 32.1513672,15.6152344 C35.2592793,15.6152344 37.7906289,18.1321699 37.7942324,21.2224648 C37.7922305,23.265418 36.8445059,24.7520684 35.3160547,26.4887227 C34.7317246,27.1527305 34.7962676,28.1647578 35.4601953,28.749168 C36.124123,29.333498 37.1363105,29.2690352 37.7206406,28.6050273 C39.4206191,26.6734629 40.9942344,24.4426465 40.9974375,21.2222246 C40.9916719,16.3642852 37.0234004,12.4121094 32.1513672,12.4121094 Z" id="Path"></path>
                    <circle id="Oval" cx="27.5512793" cy="36.8359375" r="1.6015625"></circle>
                    <circle id="Oval" cx="32.1557715" cy="39.3984375" r="1.6015625"></circle>
                </g>
            </g>
        </g>
    </g>
</svg>