<?xml version="1.0" encoding="UTF-8"?>
<svg width="41px" height="41px" viewBox="0 0 41 41" version="1.1" xmlns="http://www.w3.org/2000/svg" xmlns:xlink="http://www.w3.org/1999/xlink">
    <!-- Generator: Sketch 58 (84663) - https://sketch.com -->
    <title>parking</title>
    <desc>Created with Sketch.</desc>
    <g id="Page-1" stroke="none" stroke-width="1" fill="none" fill-rule="evenodd">
        <g id="Desktop-Web" transform="translate(-568.000000, -2424.000000)" fill="#3BD9AA" fill-rule="nonzero">
            <g id="Group-2" transform="translate(0.000000, 2043.000000)">
                <g id="parking" transform="translate(568.000000, 381.000000)">
                    <path d="M39.3984375,28.1875 C40.2829805,28.1875 41,27.4704805 41,26.5859375 L41,6.40625 C41,2.87384375 38.1261563,0 34.59375,0 L6.40625,0 C2.87384375,0 0,2.87384375 0,6.40625 L0,34.59375 C0,38.1261563 2.87384375,41 6.40625,41 L34.59375,41 C38.1261563,41 41,38.1261563 41,34.59375 C41,33.709207 40.2829805,32.9921875 39.3984375,32.9921875 C38.5138945,32.9921875 37.796875,33.709207 37.796875,34.59375 C37.796875,36.3599531 36.3599531,37.796875 34.59375,37.796875 L6.40625,37.796875 C4.64004688,37.796875 3.203125,36.3599531 3.203125,34.59375 L3.203125,6.40625 C3.203125,4.64004688 4.64004688,3.203125 6.40625,3.203125 L34.59375,3.203125 C36.3599531,3.203125 37.796875,4.64004688 37.796875,6.40625 L37.796875,26.5859375 C37.796875,27.4704805 38.5138945,28.1875 39.3984375,28.1875 Z" id="Path"></path>
                    <path d="M22.5019531,20.8203125 L20.0195313,20.8203125 C19.1349883,20.8203125 18.4179688,21.537332 18.4179688,22.421875 C18.4179688,23.306418 19.1349883,24.0234375 20.0195313,24.0234375 L22.5019531,24.0234375 C26.9174609,24.0234375 30.5097656,20.4311328 30.5097656,16.015625 C30.5097656,11.6001172 26.9174609,8.0078125 22.5019531,8.0078125 L13.6132812,8.0078125 C12.7287383,8.0078125 12.0117188,8.72483203 12.0117188,9.609375 L12.0117188,31.390625 C12.0117188,32.275168 12.7287383,32.9921875 13.6132812,32.9921875 C14.4978242,32.9921875 15.2148438,32.275168 15.2148438,31.390625 L15.2148438,11.2109375 L22.5019531,11.2109375 C25.1512578,11.2109375 27.3066406,13.3663203 27.3066406,16.015625 C27.3066406,18.6649297 25.1512578,20.8203125 22.5019531,20.8203125 Z" id="Path"></path>
                </g>
            </g>
        </g>
    </g>
</svg>