<?xml version="1.0" encoding="UTF-8"?>
<svg width="41px" height="41px" viewBox="0 0 41 41" version="1.1" xmlns="http://www.w3.org/2000/svg" xmlns:xlink="http://www.w3.org/1999/xlink">
    <!-- Generator: Sketch 58 (84663) - https://sketch.com -->
    <title>green-energy</title>
    <desc>Created with Sketch.</desc>
    <g id="Page-1" stroke="none" stroke-width="1" fill="none" fill-rule="evenodd">
        <g id="Desktop-Web" transform="translate(-153.000000, -2418.000000)" fill="#34D8A7" fill-rule="nonzero">
            <g id="Group-2" transform="translate(0.000000, 2043.000000)">
                <g id="green-energy" transform="translate(153.000000, 375.000000)">
                    <path d="M39.39843,5.68554687 L38.0370955,5.68554687 L38.0370955,1.6015625 C38.0370955,0.717019531 37.3200726,0 36.4355255,0 C35.5509784,0 34.8339555,0.717019531 34.8339555,1.6015625 L34.8339555,5.68554687 L31.6308156,5.68554687 L31.6308156,1.6015625 C31.6308156,0.717019531 30.9137927,0 30.0292456,0 C29.1446985,0 28.4276756,0.717019531 28.4276756,1.6015625 L28.4276756,5.68554687 L26.9862626,5.68554687 C26.1017155,5.68554687 25.3846926,6.40256641 25.3846926,7.28710937 L25.3846926,11.3710937 C25.3846926,15.0847969 27.9910876,18.200877 31.4706586,18.9870039 L31.4706586,27.5303789 C31.4706586,33.1912617 26.8651038,37.7967949 21.2041945,37.7967949 C16.5367391,37.7967949 12.4644271,34.6409961 11.2976033,30.1209863 C11.2531597,29.9333633 10.0334841,24.6304297 11.7871231,18.6267324 C12.0352063,17.7776641 11.5479287,16.8883965 10.6988563,16.6403945 C9.85002423,16.3919121 8.96051226,16.8795078 8.71250914,17.7286562 C7.58172065,21.6000332 7.52966963,25.1676738 7.71585214,27.6116582 C6.78886343,27.1579355 5.75224725,26.5129062 4.91142301,25.5003184 C3.54055917,23.8492676 2.99074019,21.5133086 3.27734114,18.5573047 C3.93214303,11.804957 9.49223349,6.12221289 11.9829151,3.89051562 C13.9960085,6.57273242 18.3686949,13.2671035 17.71077,20.0524434 C17.4643684,22.5934824 16.6699096,24.5051074 15.281909,25.8967852 C14.6572967,26.5229961 14.658658,27.5370254 15.284952,28.1617148 C15.9110858,28.7863242 16.9251198,28.7849629 17.5498923,28.1586719 C19.4825869,26.2208613 20.5780607,23.670373 20.8988552,20.361625 C21.3074157,16.1484746 20.1349063,11.3788613 17.5082515,6.56856836 C15.7769543,3.39803516 13.9620552,1.19292383 13.5115335,0.664328125 C13.5030452,0.652556641 13.4942366,0.640865234 13.485428,0.629253906 C12.9498629,-0.0715097656 11.9484813,-0.207402344 11.2453921,0.325277344 C11.1414502,0.404074219 8.6691066,2.29111523 6.06551434,5.40487305 C2.56440226,9.59199805 0.497896503,14.0331309 0.0891758413,18.248123 C-0.282868868,22.085627 0.510388749,25.2140391 2.44708726,27.5464746 C4.20224781,29.6602969 6.49537573,30.6076211 7.72730336,31.1165176 C7.87432749,31.1772969 8.04313297,31.2470449 8.17278006,31.3040605 C8.2281143,31.3694844 8.28969467,31.4293828 8.35487856,31.4852773 C10.071201,37.1170117 15.2713386,41 21.2041945,41 C28.6313953,41 34.6737985,34.957625 34.6737985,27.530459 L34.6737985,19.0371328 C38.2729267,18.3430156 41,15.1698398 41,11.3710937 L41,7.28710937 C41,6.40264648 40.2829771,5.68554687 39.39843,5.68554687 Z M37.79686,11.3710938 C37.79686,13.9100508 35.7313152,15.9755859 33.1923463,15.9755859 C30.6533774,15.9755859 28.5878326,13.9100508 28.5878326,11.3710938 L28.5878326,8.88867188 L37.79686,8.88867188 L37.79686,11.3710938 Z" id="Shape"></path>
                </g>
            </g>
        </g>
    </g>
</svg>