<?xml version="1.0" encoding="UTF-8"?>
<svg width="41px" height="41px" viewBox="0 0 41 41" version="1.1" xmlns="http://www.w3.org/2000/svg" xmlns:xlink="http://www.w3.org/1999/xlink">
    <!-- Generator: Sketch 58 (84663) - https://sketch.com -->
    <title>car insurance</title>
    <desc>Created with Sketch.</desc>
    <g id="Page-1" stroke="none" stroke-width="1" fill="none" fill-rule="evenodd">
        <g id="Desktop-Web" transform="translate(-972.000000, -2418.000000)" fill="#34D8A7" fill-rule="nonzero">
            <g id="Group-2" transform="translate(0.000000, 2043.000000)">
                <g id="car-insurance" transform="translate(972.000000, 375.000000)">
                    <path d="M40.4835586,23.3818741 C40.1832657,22.5498123 39.2651825,22.1190796 38.4334336,22.4190598 C37.6013718,22.7196655 37.1703262,23.637436 37.4706192,24.4694976 C37.6870804,25.0691452 37.796875,25.700386 37.796875,26.3457031 L37.796875,32.1914062 L32.7747879,32.1914062 L27.6382141,27.0548325 C27.3379211,26.7545395 26.9306488,26.5859375 26.5058594,26.5859375 L14.4941406,26.5859375 C14.0693512,26.5859375 13.6620789,26.7545395 13.3617859,27.0548325 L8.22521212,32.1914062 L3.203125,32.1914062 L3.203125,26.3457031 C3.203125,23.2989807 5.68179321,20.8203125 8.72851562,20.8203125 L22.2617188,20.8203125 C23.1463318,20.8203125 23.8632812,20.103363 23.8632812,19.21875 C23.8632812,18.334137 23.1463318,17.6171875 22.2617188,17.6171875 L8.72851562,17.6171875 C8.21645357,17.6171875 7.71502686,17.6619187 7.226738,17.7470017 L9.74044039,12.7633896 C10.7304688,10.8177414 12.701767,9.609375 14.8848343,9.609375 L20.2653961,9.609375 C21.1500092,9.609375 21.8669586,8.89242554 21.8669586,8.0078125 C21.8669586,7.12319946 21.1500092,6.40625 20.2653961,6.40625 L14.8848343,6.40625 C11.4902725,6.40625 8.42509464,8.2855835 6.88296509,11.31604 L2.33196261,20.3392182 C2.30818941,20.3861389 2.28754423,20.4333725 2.26908879,20.4812317 C0.859901408,22.0318069 0,24.0903778 0,26.3457031 L0,39.3984375 C0,40.2830505 0.716949463,41 1.6015625,41 L8.0078125,41 C8.89242554,41 9.609375,40.2830505 9.609375,39.3984375 L9.609375,35.3945312 L31.390625,35.3945312 L31.390625,39.3984375 C31.390625,40.2830505 32.1075745,41 32.9921875,41 L39.3984375,41 C40.2830505,41 41,40.2830505 41,39.3984375 L41,26.3457031 C41,25.3284607 40.8260803,24.3312378 40.4835586,23.3818741 Z M15.1576004,29.7890625 L25.8423996,29.7890625 L28.2447434,32.1914062 L12.7552566,32.1914062 L15.1576004,29.7890625 Z M6.40625,37.796875 L3.203125,37.796875 L3.203125,35.3945312 L6.40625,35.3945312 L6.40625,37.796875 Z M37.796875,37.796875 L34.59375,37.796875 L34.59375,35.3945312 L37.796875,35.3945312 L37.796875,37.796875 Z M32.9921875,24.984375 C33.8768005,24.984375 34.59375,25.7013245 34.59375,26.5859375 C34.59375,27.4705505 33.8768005,28.1875 32.9921875,28.1875 C32.1075745,28.1875 31.390625,27.4705505 31.390625,26.5859375 C31.390625,25.7013245 32.1075745,24.984375 32.9921875,24.984375 Z M8.0078125,24.984375 C8.89242554,24.984375 9.609375,25.7013245 9.609375,26.5859375 C9.609375,27.4705505 8.89242554,28.1875 8.0078125,28.1875 C7.12319946,28.1875 6.40625,27.4705505 6.40625,26.5859375 C6.40625,25.7013245 7.12319946,24.984375 8.0078125,24.984375 Z M32.671875,20.0996094 C34.9059296,20.0996094 37.0045395,19.2253189 38.582016,17.6381455 C40.1551132,16.0553513 41.0137634,13.9567413 40.9996872,11.7292557 C40.9796677,8.51455688 39.0036773,6.70560453 37.4161911,5.25168608 C35.9654007,3.92351534 35.0764084,3.03639986 35.0764084,1.6015625 C35.0764084,1.01724243 34.7582856,0.479530314 34.2462234,0.198005656 C33.7341614,-0.0832061367 33.1098022,-0.0634994707 32.6165085,0.249305705 L32.5060883,0.319061279 C27.1661911,3.67827608 24.34375,7.62744141 24.34375,11.7392654 C24.34375,16.3490753 28.0795822,20.0996094 32.671875,20.0996094 Z M32.671875,16.8964844 C32.0096665,16.8964844 31.4707031,16.3343735 31.4707031,15.6433868 C31.4707031,15.0287247 31.8132248,14.3014526 32.2689819,13.6261062 C32.540184,13.9539261 32.8223343,14.2276306 33.0644455,14.4628601 C33.7006912,15.0809631 33.8730469,15.2974243 33.8730469,15.6433868 C33.8730469,16.3343735 33.3340835,16.8964844 32.671875,16.8964844 Z M32.4544754,4.23725887 C33.1273193,5.667717 34.2687454,6.71311186 35.2531433,7.61430363 C36.8231125,9.05164335 37.7859268,10.0207138 37.7969715,11.7492752 C37.8031311,12.7799683 37.5050278,13.7659302 36.9441681,14.6054993 C36.6426239,13.4731445 35.8843842,12.7361755 35.2959976,12.1649932 C34.6056366,11.4946518 34.364151,11.2099991 34.364151,10.6503906 C34.364151,10.0229034 33.9975434,9.4532852 33.4266739,9.19303129 C32.8558044,8.93309025 32.1854629,9.03005981 31.7118759,9.44171143 C31.4006348,9.71228788 28.9566879,11.9084931 28.3870697,14.564209 C27.8565522,13.751854 27.546875,12.7815323 27.546875,11.7392654 C27.546875,9.25215145 29.2732468,6.63303373 32.4544754,4.23725887 L32.4544754,4.23725887 Z" id="Shape"></path>
                </g>
            </g>
        </g>
    </g>
</svg>