<?xml version="1.0" encoding="UTF-8"?>
<svg width="28px" height="31px" viewBox="0 0 28 31" version="1.1" xmlns="http://www.w3.org/2000/svg" xmlns:xlink="http://www.w3.org/1999/xlink">
    <!-- Generator: Sketch 53.2 (72643) - https://sketchapp.com -->
    <title>audio</title>
    <desc>Created with Sketch.</desc>
    <g id="Page-1" stroke="none" stroke-width="1" fill="none" fill-rule="evenodd">
        <g id="Connected-cars" transform="translate(-113.000000, -2516.000000)" fill="#34D8A7" stroke="#302D2F" stroke-width="1.4">
            <g id="Group-17" transform="translate(0.000000, 1956.000000)">
                <g id="Group-16">
                    <g id="audio" transform="translate(114.000000, 561.000000)">
                        <path d="M1.85714286,5.4375 C0.831535714,5.4375 0,6.24893359 0,7.25 L0,21.75 C0,22.7509531 0.831535714,23.5625 1.85714286,23.5625 C2.88275,23.5625 3.71428571,22.7509531 3.71428571,21.75 L3.71428571,7.25 C3.71428571,6.24893359 2.88275,5.4375 1.85714286,5.4375 Z" id="Path"></path>
                        <path d="M7.42857143,9.0625 C6.40296429,9.0625 5.57142857,9.87393359 5.57142857,10.875 L5.57142857,18.125 C5.57142857,19.1259531 6.40296429,19.9375 7.42857143,19.9375 C8.45417857,19.9375 9.28571429,19.1259531 9.28571429,18.125 L9.28571429,10.875 C9.28571429,9.87393359 8.45417857,9.0625 7.42857143,9.0625 Z" id="Path"></path>
                        <path d="M13,0 C11.9743929,0 11.1428571,0.811433594 11.1428571,1.8125 L11.1428571,27.1875 C11.1428571,28.1884531 11.9743929,29 13,29 C14.0256071,29 14.8571429,28.1884531 14.8571429,27.1875 L14.8571429,1.8125 C14.8571429,0.811433594 14.0256071,0 13,0 Z" id="Path"></path>
                        <path d="M18.5714286,4.53125 C17.5458214,4.53125 16.7142857,5.34268359 16.7142857,6.34375 L16.7142857,22.65625 C16.7142857,23.6572031 17.5458214,24.46875 18.5714286,24.46875 C19.5970357,24.46875 20.4285714,23.6572031 20.4285714,22.65625 L20.4285714,6.34375 C20.4285714,5.34268359 19.5970357,4.53125 18.5714286,4.53125 Z" id="Path"></path>
                        <path d="M24.1428571,9.0625 C23.11725,9.0625 22.2857143,9.87393359 22.2857143,10.875 L22.2857143,18.125 C22.2857143,19.1259531 23.11725,19.9375 24.1428571,19.9375 C25.1684643,19.9375 26,19.1259531 26,18.125 L26,10.875 C26,9.87393359 25.1684643,9.0625 24.1428571,9.0625 Z" id="Path"></path>
                    </g>
                </g>
            </g>
        </g>
    </g>
</svg>