<?xml version="1.0" encoding="UTF-8"?>
<svg width="65px" height="65px" viewBox="0 0 65 65" version="1.1" xmlns="http://www.w3.org/2000/svg" xmlns:xlink="http://www.w3.org/1999/xlink">
    <!-- Generator: Sketch 55 (78076) - https://sketchapp.com -->
    <title>Group 18</title>
    <desc>Created with Sketch.</desc>
    <g id="Page-1" stroke="none" stroke-width="1" fill="none" fill-rule="evenodd">
        <g id="Desktop-HD" transform="translate(-688.000000, -402.000000)" fill="#4ADEB5">
            <g id="Group-18" transform="translate(688.000000, 402.000000)">
                <path d="M55.478624,45.5761719 C54.076297,45.5761719 52.9395565,46.7129102 52.9395565,48.1152344 L52.9395565,54.84375 C52.9395565,55.4403027 52.8353278,56.0127344 52.6455325,56.5449219 L32.3774265,36.2768555 L36.5307061,32.123584 C37.2749068,32.9786133 38.0390391,33.816377 38.798982,34.6486816 C40.9216424,36.9733203 43.1166662,39.3770508 44.8483103,42.1168262 C45.3135944,42.8529004 46.1236838,43.2992676 46.994584,43.2992676 L47.9662851,43.2992676 C48.8371852,43.2992676 49.6472747,42.8529004 50.1125588,42.1168262 C51.8443298,39.3770508 54.0392266,36.9733203 56.161887,34.6486816 C60.5034385,29.8941602 64.9927637,24.9779004 65,17.4993457 C64.9889551,7.85014648 57.1299065,0 47.4805615,0 C41.3322096,0 35.9114276,3.18766602 32.7838043,7.99804688 L10.1562698,7.99804688 C4.55610265,7.99804688 0,12.5541406 0,18.1542969 L0,54.84375 C0,60.4439063 4.55610265,65 10.1562698,65 L47.8614216,65 C53.4615888,65 58.0176914,60.4439063 58.0176914,54.84375 L58.0176914,48.1152344 C58.0176914,46.7129102 56.8810779,45.5761719 55.478624,45.5761719 Z M47.4805615,5.078125 C54.3328698,5.078125 59.9141209,10.6528906 59.921992,17.4997266 C59.91666,23.0060645 56.4388993,26.8145313 52.4120653,31.224375 C50.7503726,33.0441211 49.0471661,34.9094434 47.4805615,37.0008691 C45.9139569,34.9094434 44.2107504,33.0441211 42.5490577,31.224375 C38.5222237,26.8145312 35.044463,23.0059375 35.0391309,17.5050586 C35.047129,10.6528906 40.6283801,5.078125 47.4805615,5.078125 Z M5.07813492,54.84375 L5.07813492,18.1542969 C5.07813492,15.3542188 7.35618624,13.0761719 10.1562698,13.0761719 L30.5338096,13.0761719 C30.1622171,14.4910645 29.9627734,15.9751465 29.960996,17.5046777 C29.9650585,21.6955273 31.3789382,25.0821289 33.3855633,28.0872363 L5.26564505,56.2072266 C5.14427763,55.7729199 5.07813492,55.3160156 5.07813492,54.84375 Z M47.8614216,59.921875 L10.1562698,59.921875 C9.71980414,59.921875 9.29616073,59.8665234 8.89181424,59.7624219 L28.7866773,39.8675977 L48.7597437,59.840625 C48.4678779,59.8929297 48.168014,59.921875 47.8614216,59.921875 Z" id="Shape" fill-rule="nonzero"></path>
                <path d="M50.1944444,22.3888889 C50.1944444,20.9927972 49.0627583,19.8611111 47.6666667,19.8611111 C46.27285,19.8611111 45.1388889,18.72715 45.1388889,17.3333333 C45.1388889,15.9395167 46.27285,14.8055556 47.6666667,14.8055556 C49.0604833,14.8055556 50.1944444,15.9395167 50.1944444,17.3333333 C50.1944444,18.729425 51.3261306,19.8611111 52.7222222,19.8611111 C54.1183139,19.8611111 55.25,18.729425 55.25,17.3333333 C55.25,13.1518833 51.8481167,9.75 47.6666667,9.75 C43.4852167,9.75 40.0833333,13.1518833 40.0833333,17.3333333 C40.0833333,21.5147833 43.4852167,24.9166667 47.6666667,24.9166667 C49.0628847,24.9166667 50.1944444,23.7849806 50.1944444,22.3888889 Z" id="Path"></path>
            </g>
        </g>
    </g>
</svg>