<?xml version="1.0" encoding="UTF-8"?>
<svg width="26px" height="26px" viewBox="0 0 26 26" version="1.1" xmlns="http://www.w3.org/2000/svg" xmlns:xlink="http://www.w3.org/1999/xlink">
    <!-- Generator: Sketch 58 (84663) - https://sketch.com -->
    <title>parking</title>
    <desc>Created with Sketch.</desc>
    <g id="Page-1" stroke="none" stroke-width="1" fill="none" fill-rule="evenodd">
        <g id="Desktop-Web" transform="translate(-156.000000, -2266.000000)" fill="#3BD9AA" fill-rule="nonzero">
            <g id="parking" transform="translate(156.000000, 2266.000000)">
                <path d="M24.984375,17.875 C25.5453047,17.875 26,17.4203047 26,16.859375 L26,4.0625 C26,1.8224375 24.1775625,0 21.9375,0 L4.0625,0 C1.8224375,0 0,1.8224375 0,4.0625 L0,21.9375 C0,24.1775625 1.8224375,26 4.0625,26 L21.9375,26 C24.1775625,26 26,24.1775625 26,21.9375 C26,21.3765703 25.5453047,20.921875 24.984375,20.921875 C24.4234453,20.921875 23.96875,21.3765703 23.96875,21.9375 C23.96875,23.0575313 23.0575313,23.96875 21.9375,23.96875 L4.0625,23.96875 C2.94246875,23.96875 2.03125,23.0575313 2.03125,21.9375 L2.03125,4.0625 C2.03125,2.94246875 2.94246875,2.03125 4.0625,2.03125 L21.9375,2.03125 C23.0575313,2.03125 23.96875,2.94246875 23.96875,4.0625 L23.96875,16.859375 C23.96875,17.4203047 24.4234453,17.875 24.984375,17.875 Z" id="Path"></path>
                <path d="M14.2695312,13.203125 L12.6953125,13.203125 C12.1343828,13.203125 11.6796875,13.6578203 11.6796875,14.21875 C11.6796875,14.7796797 12.1343828,15.234375 12.6953125,15.234375 L14.2695312,15.234375 C17.0696094,15.234375 19.3476562,12.9563281 19.3476562,10.15625 C19.3476562,7.35617188 17.0696094,5.078125 14.2695312,5.078125 L8.6328125,5.078125 C8.07188281,5.078125 7.6171875,5.53282031 7.6171875,6.09375 L7.6171875,19.90625 C7.6171875,20.4671797 8.07188281,20.921875 8.6328125,20.921875 C9.19374219,20.921875 9.6484375,20.4671797 9.6484375,19.90625 L9.6484375,7.109375 L14.2695312,7.109375 C15.9495781,7.109375 17.3164062,8.47620312 17.3164062,10.15625 C17.3164062,11.8362969 15.9495781,13.203125 14.2695312,13.203125 Z" id="Path"></path>
            </g>
        </g>
    </g>
</svg>