<?xml version="1.0" encoding="UTF-8"?>
<svg width="247px" height="80px" viewBox="0 0 247 80" version="1.1" xmlns="http://www.w3.org/2000/svg" xmlns:xlink="http://www.w3.org/1999/xlink">
    <!-- Generator: Sketch 58 (84663) - https://sketch.com -->
    <title>g10</title>
    <desc>Created with Sketch.</desc>
    <g id="Page-1" stroke="none" stroke-width="1" fill="none" fill-rule="evenodd">
        <g id="Desktop-Web" transform="translate(-97.000000, -6716.000000)" fill="#231F20" fill-rule="nonzero">
            <g id="WIESENTHAL_BEWEGT_CMYK_SCHWARZ" transform="translate(97.000000, 6716.000000)">
                <g id="g10" transform="translate(123.500000, 40.000000) scale(-1, 1) rotate(-180.000000) translate(-123.500000, -40.000000) translate(0.000000, -0.000000)">
                    <g id="g12">
                        <polyline id="path14" points="26.9631441 55.2905263 21.5699229 55.2905263 16.7980099 69.1721053 11.8820223 55.2905263 6.30019251 55.2905263 0 73.1163158 5.29711863 73.1163158 9.3538424 59.82 14.0297058 73.1163158 19.2797516 73.1163158 24.0025291 59.82 28.0596231 73.1163158 33.2619086 73.1163158 26.9631441 55.2905263"></polyline>
                        <polyline id="path16" points="35.6632563 55.2936842 35.6632563 73.0336842 40.8837362 73.0336842 40.8837362 55.2936842 35.6632563 55.2936842"></polyline>
                        <path d="M55.207409,69.9215789 C50.5551349,69.9215789 50.0863638,68.3021053 50.0863638,65.9652632 L60.4224411,65.9652632 C60.4224411,68.4836842 60.1394754,69.9215789 55.207409,69.9215789 L55.207409,69.9215789 Z M49.9917422,62.6573684 C49.9917422,59.6721053 50.9794777,58.4852632 55.5358608,58.4852632 C57.4610857,58.4852632 60.3748394,58.7015789 60.4224411,60.68 L65.4015803,60.68 C65.4015803,55.9678947 59.6692762,55.1415789 55.3480985,55.1415789 C46.1395471,55.1415789 44.6844685,58.8810526 44.6844685,63.9884211 C44.6844685,69.2384211 45.9992807,73.2647368 55.207409,73.2647368 C65.2132891,73.2647368 65.6824304,68.7705263 65.6824304,62.6573684 L49.9917422,62.6573684" id="path18"></path>
                        <path d="M84.198439,67.7552632 C84.198439,69.4594737 83.0628737,69.9673684 79.9380857,70.0394737 C75.3455782,70.1478947 74.588182,69.3136842 74.5405803,68.1542105 C74.4453769,66.1615789 75.9622848,66.1615789 78.2799593,66.0515789 C83.5833191,65.7994737 89.1246874,66.1247368 88.9813533,60.4710526 C88.8866788,56.1205263 84.4845782,54.9968421 78.2799593,55.0694737 C72.457212,55.1415789 68.6686445,56.3015789 68.6686445,60.6515789 L73.5933062,60.6515789 C73.5933062,59.1289474 74.4453769,58.4047368 78.2339443,58.3310526 C82.8259229,58.2215789 83.6325075,59.02 83.6774647,60.2884211 C83.7726681,62.3926316 82.1632013,62.4278947 79.511257,62.5352632 C74.3507024,62.7547368 69.0478715,62.6089474 69.188561,68.0452632 C69.2848223,72.4321053 73.7361113,73.4089474 79.8904839,73.3363158 C85.6206724,73.2647368 89.1246874,71.9605263 89.1246874,67.7552632 L84.198439,67.7552632" id="path20"></path>
                        <path d="M102.631938,69.9805263 C97.932591,69.9805263 97.4581606,68.3452632 97.4581606,65.9836842 L107.900919,65.9836842 C107.900919,68.5268421 107.615837,69.9805263 102.631938,69.9805263 L102.631938,69.9805263 Z M97.3645439,62.6405263 C97.3645439,59.6257895 98.3599486,58.4268421 102.964621,58.4268421 C104.910473,58.4268421 107.852788,58.6442105 107.900919,60.6410526 L112.931891,60.6410526 C112.931891,55.8842105 107.142994,55.0463158 102.774214,55.0463158 C93.4717816,55.0463158 91.9998308,58.8257895 91.9998308,63.9847368 C91.9998308,69.2905263 93.3295054,73.3589474 102.631938,73.3589474 C112.743071,73.3589474 113.215914,68.8173684 113.215914,62.6405263 L97.3645439,62.6405263" id="path22"></path>
                        <path d="M131.922859,55.2352632 L131.922859,64.6710526 C131.922859,68.1231579 132.35339,69.7742105 127.653514,69.7742105 C121.802206,69.7742105 122.234323,66.6894737 122.234323,63.5684211 L122.234323,55.2352632 L116.811959,55.2352632 L116.811959,73.1515789 L121.513951,73.1515789 L121.513951,71.7210526 C122.856319,72.6378947 124.968248,73.4473684 128.277625,73.4473684 C137.727623,73.4473684 137.342578,68.8926316 137.342578,65.0021053 L137.342578,55.2352632 L131.922859,55.2352632" id="path24"></path>
                        <path d="M149.994056,54.8515789 C144.629343,54.8515789 141.543165,56.6326316 141.543165,60.5942105 L141.543165,69.4621053 L141.543165,72.8773684 L141.543165,79.3842105 L146.907878,79.3842105 L146.907878,72.8773684 L156.356818,72.8773684 L156.356818,69.4621053 L146.907878,69.4621053 L146.907878,60.5942105 C146.907878,58.9578947 147.667919,58.1957895 150.278079,58.1957895 C152.606332,58.1957895 153.697469,58.9226316 153.697469,60.45 L158.634824,60.45 C158.634824,56.1952632 154.599257,54.8515789 149.994056,54.8515789" id="path26"></path>
                        <path d="M175.547184,55.3410526 L175.547184,64.5384211 C175.547184,67.9021053 175.96555,69.5126316 171.402133,69.5126316 C165.720604,69.5126316 166.141086,66.5073684 166.141086,63.4657895 L166.141086,55.3410526 L160.876865,55.3410526 L160.876865,79.4847368 L166.141086,79.4847368 L166.141086,71.6957895 C167.49033,72.4847368 169.167497,73.0910526 172.008261,73.0910526 C181.181111,73.0910526 180.810347,68.6526316 180.810347,64.8626316 L180.810347,55.3410526 L175.547184,55.3410526" id="path28"></path>
                        <path d="M193.989675,63.1126316 C190.712561,63.1126316 189.667968,62.6747368 189.667968,60.7857895 C189.667968,59.2594737 190.522683,58.4221053 194.18061,58.4221053 C199.688657,58.4221053 200.211218,60.0221053 200.211218,63.1126316 L193.989675,63.1126316 Z M200.544959,55.3336842 L200.544959,56.7857895 C199.070893,55.8052632 196.648495,55.0431579 193.325895,55.0431579 C187.815203,55.0431579 184.302197,56.3852632 184.302197,60.7115789 C184.302197,65.8757895 189.24061,66.4573684 194.18061,66.4573684 L200.116015,66.4573684 C200.116015,68.82 199.926137,69.8747368 195.224146,69.8747368 C193.134959,69.8747368 190.19,69.8005263 190.19,67.9115789 L184.967034,67.9115789 C184.967034,72.4557895 190.142927,73.3652632 195.509756,73.3652632 C201.7313,73.3652632 205.33951,71.4742105 205.33951,66.8947368 L205.33951,55.3336842 L200.544959,55.3336842" id="path30"></path>
                        <polyline id="path32" points="209.435901 55.3410526 209.435901 79.0984211 214.46846 79.0984211 214.46846 55.3410526 209.435901 55.3410526"></polyline>
                        <path d="M182.90588,28.1155263 C182.428276,27.4854211 181.767141,27.066 180.920889,26.8593684 C180.074107,26.6504737 179.38018,26.7399474 178.840165,27.1256316 C178.299621,27.5100526 178.220285,28.0446316 178.60533,28.7282105 C178.989846,29.4138421 179.494424,30.0213684 180.119593,30.5517895 C180.745291,31.0832632 181.412244,31.4677368 182.122039,31.7082632 C182.83342,31.9457368 183.259191,31.5643684 183.402525,30.5621053 C183.547445,29.5618947 183.38031,28.7436316 182.90588,28.1155263 L182.90588,28.1155263 Z M173.055499,15.4368947 C171.3503,13.1356842 169.889456,11.1994211 168.670323,9.63052632 C167.453835,8.06210526 166.197679,6.65584211 164.907143,5.41426316 C163.612906,4.17002632 162.614857,3.32113684 161.908236,2.86780526 C161.202672,2.41426842 160.492878,2.11431053 159.780968,1.96422632 C159.068529,1.81743684 158.644874,2.09580526 158.5063,2.80427895 C158.368784,3.51315789 158.518465,4.31846316 158.954814,5.2169 C159.390634,6.11636842 160.007869,7.04852632 160.807578,8.01152632 C161.606229,8.97368421 162.789925,10.2837368 164.358137,11.9383158 C165.92582,13.5937368 167.499321,15.0111053 169.075467,16.191 C170.653728,17.3721053 172.213478,18.4453158 173.762649,19.4105789 C175.308647,20.3758421 176.777424,21.2794211 178.16951,22.1184211 C176.462724,19.9636316 174.758054,17.7362105 173.055499,15.4368947 L173.055499,15.4368947 Z M164.856368,30.5538421 C165.110773,30.9331579 165.586261,31.3094211 166.282304,31.6825789 C166.978876,32.0577895 167.363392,32.0752632 167.439026,31.7380526 C167.512015,31.4008947 167.322137,31.0246842 166.865161,30.6093684 C166.407126,30.1941053 165.491058,29.7489474 164.115897,29.2709474 C164.357079,29.75 164.604079,30.1776316 164.856368,30.5538421 Z M120.954895,30.7944211 C121.207713,31.1716842 121.684259,31.5458421 122.380302,31.9210526 C123.075287,32.2962632 123.46139,32.3137368 123.535437,31.9765789 C123.610013,31.6404211 123.418548,31.2631579 122.961572,30.8478421 C122.505124,30.4325789 121.587469,29.9874737 120.213895,29.5104737 C120.45349,29.9884737 120.70049,30.4171579 120.954895,30.7944211 L120.954895,30.7944211 Z M112.406156,30.3307895 C112.114728,30.0419474 111.797912,30.0018421 111.455709,30.2094737 C111.108745,30.4181579 110.980749,30.6803158 111.064846,30.9979474 C111.15,31.3166316 111.40176,31.5077895 111.820126,31.5725789 C112.236906,31.6363158 112.512467,31.5160526 112.644694,31.2138421 C112.774805,30.9126316 112.694411,30.6186316 112.406156,30.3307895 L112.406156,30.3307895 Z M242.887212,41.4255789 C241.353379,41.5437895 239.367859,41.6085789 236.929064,41.6188421 C234.488683,41.6301579 232.142448,41.5921053 229.886655,41.5047368 C227.630334,41.4163158 225.330642,41.2724211 222.985994,41.0709474 C220.642931,40.8694737 218.316266,40.6402105 216.006525,40.3811579 C213.696784,40.1252105 211.439934,39.8507368 209.23333,39.5618947 C207.025668,39.272 205.367542,39.0489474 204.260537,38.8926842 C205.103088,39.8332632 205.854666,40.6433158 206.511041,41.3227895 C207.167415,41.9991579 207.852351,42.7074211 208.563203,43.4434737 C209.276171,44.1774211 210.240899,45.1046316 211.454214,46.2230526 C212.669645,47.3414737 213.056276,48.1772105 212.617283,48.7333684 C211.891092,48.6963158 211.040608,48.3375789 210.065831,47.6529474 C209.09264,46.9673158 208.064972,46.1202632 206.983884,45.1077368 C205.904912,44.0931579 204.88888,43.1494737 203.940548,42.2736316 C202.992745,41.3978421 196.96055,34.3532105 195.5563,33.0415263 C194.152578,31.7277895 193.257666,30.7296316 192.87315,30.045 C192.801747,29.9175789 192.736163,29.7931579 192.671107,29.6687895 C192.063392,29.6574737 191.484238,29.5115263 190.933116,29.2298421 C189.829814,28.6665263 188.761949,28.242 187.723702,27.9521053 C186.685985,27.6612105 186.049709,27.6426842 185.819105,27.8986316 C185.586385,28.1556316 185.609128,28.5493684 185.880987,29.0859474 C186.154961,29.6204737 186.303056,30.1941053 186.32527,30.8036842 C186.348542,31.4132632 186.176647,32.0546842 185.8117,32.7228421 C185.44834,33.3941053 184.80942,33.9358421 183.89388,34.3470526 L183.145475,34.3326316 C181.595775,33.5143684 180.331156,32.8472632 179.355321,32.3312105 C178.37737,31.8182632 177.421105,31.1397895 176.482822,30.2978947 C175.547184,29.456 175.067994,28.6788421 175.045779,27.9695789 C175.044722,27.9253684 175.052655,27.8842632 175.053184,27.8410526 C174.728964,27.7423684 174.290499,27.5573684 173.73303,27.2839474 C173.160223,27.0012105 172.408645,26.7337368 171.484642,26.4811053 C170.559054,26.2243158 169.365837,26.1241579 167.90182,26.1757895 C166.435687,26.2273684 165.491058,26.3906316 165.066874,26.6663158 C164.64269,26.9395789 164.46815,27.1955263 164.541668,27.434 C164.617302,27.6724737 165.173184,27.9469474 166.209844,28.2604737 C167.249148,28.5750526 168.17315,29.0705263 168.989784,29.7520526 C169.804831,30.4325789 170.243296,31.2302632 170.306236,32.1472105 C170.368118,33.0610526 170.135927,33.6963158 169.608077,34.0468947 C169.077054,34.3974211 168.461934,34.5793684 167.757957,34.5886316 L166.977289,34.5382632 C166.278073,34.346 165.597368,33.9944737 164.93782,33.4856316 C164.278272,32.9757368 163.62031,32.3774737 162.965522,31.6866842 C162.308619,30.9979474 161.838949,30.3359474 161.555983,29.6975789 C161.33437,29.1959474 161.20849,28.5236316 161.17464,27.691 C160.391857,27.5337368 159.761398,27.471 159.284852,27.5049474 C158.647518,27.5501579 158.080529,27.8256842 157.583884,28.3375789 C157.086711,28.8464211 156.816439,29.3162105 156.773069,29.7448421 C156.731814,30.1704211 156.821199,30.5621053 157.041754,30.9177895 C157.261251,31.2713684 157.412518,31.6455789 157.496086,32.0433684 C157.579124,32.4401579 157.520415,32.8503158 157.320488,33.2769474 C157.119503,33.6994211 156.755615,33.9944737 156.230409,34.1527368 C155.707319,34.3121053 155.109653,34.3922632 154.441113,34.3922632 C153.771516,34.3892105 153.316126,34.2000526 153.073887,33.8237895 C152.831647,33.4475789 152.783516,32.9613684 152.930024,32.3641053 C153.076002,31.7699474 153.234675,31.2703684 153.400223,30.8663684 C153.567358,30.4634211 153.570002,29.9946316 153.410272,29.4621579 C153.251071,28.9276316 152.891413,28.3735789 152.33606,27.7989474 C151.779649,27.2243158 151.146017,26.7874211 150.436752,26.4922105 C149.728015,26.1973684 148.948934,26.0090526 148.100036,25.9257895 C147.251668,25.8414737 146.585244,25.92 146.105525,26.1595263 C145.624747,26.3978421 145.430109,26.7337368 145.523726,27.1636316 C145.6184,27.5943684 146.069559,28.0610526 146.877201,28.5616842 C147.683257,29.0623158 148.061955,29.7181579 148.014353,30.5292105 C147.963578,31.3412632 147.570071,31.7843158 146.831186,31.8604211 C146.092302,31.9364737 145.495165,31.7339474 145.039246,31.2518421 C144.583857,30.7686842 144.278677,30.339 144.127938,29.9648421 C143.975612,29.5896316 143.676779,29.2000526 143.231439,28.7960526 C142.785041,28.3931053 142.136071,27.9294737 141.282942,27.4062632 C140.430343,26.882 139.616882,26.4274211 138.842561,26.0401053 C138.066124,25.6537895 137.352099,25.3852632 136.695724,25.2384737 C136.041994,25.0910526 135.601942,25.1322105 135.384032,25.3667895 C135.162949,25.5988947 135.326381,25.9743158 135.873272,26.4922105 C136.418576,27.0104737 137.093463,27.6560526 137.894229,28.426 C138.69764,29.1969474 139.497878,29.7489474 140.297587,30.08 C141.096767,30.411 141.703953,30.964 142.120203,31.7391053 C142.536454,32.5142105 142.61103,33.1474211 142.340229,33.6397895 C142.069428,34.1332105 141.365981,34.5238421 140.225655,34.8188947 L139.376229,34.7356316 C138.415732,33.9944737 137.4436,33.0805789 136.466178,31.9899474 C135.488756,30.8992632 134.376463,30.0090526 133.130884,29.3182632 C131.884777,28.6326316 130.762435,28.058 129.761212,27.5974737 C129.593548,27.5203684 128.209396,26.8902105 127.581054,26.7183158 C126.657051,26.4636316 125.462248,26.3626842 123.998231,26.4142632 C122.532627,26.4658947 121.587469,26.6288947 121.164343,26.9046316 C120.739101,27.1780526 120.564561,27.434 120.639666,27.6724737 C120.713713,27.911 121.269595,28.1864737 122.30837,28.5 C123.345559,28.8125263 124.271677,29.309 125.087782,29.9915789 C125.9023,30.6721053 126.340236,31.4707895 126.402647,32.3846842 C126.464529,33.3005789 126.232867,33.9337895 125.704488,34.2853684 C125.175051,34.6369474 124.559931,34.8168421 123.855955,34.8271053 L123.0737,34.7787895 C122.375013,34.5844737 121.693779,34.2329474 121.035818,33.7251053 C120.374683,33.2162632 119.718308,32.617 119.061934,31.9262105 C118.405559,31.2374737 117.93536,30.5744211 117.652394,29.9360526 C117.453525,29.4868421 117.33452,28.8967895 117.28639,28.1813158 C117.045208,28.1556316 116.807199,28.1350526 116.563901,28.1042105 C116.043456,28.0374211 115.521424,28.0785263 114.996218,28.2275789 C114.471013,28.3756316 114.09443,28.5791579 113.86224,28.8341053 C113.630049,29.088 113.659668,29.3264737 113.951625,29.5444211 C114.240938,29.7643684 114.455675,30.1416316 114.593191,30.6741579 C114.72912,31.2066316 114.755565,31.6938947 114.667767,32.1327895 C114.579439,32.5717368 114.311283,32.9099474 113.867,33.1494737 C113.418486,33.3910526 112.967857,33.5411053 112.514582,33.6007368 C112.060251,33.6583158 111.549854,33.5750526 110.987625,33.3498947 C110.422752,33.1258421 109.898075,32.7773684 109.406719,32.3055263 C108.916951,31.8346842 108.651968,31.3484737 108.618647,30.852 C108.581623,30.3534211 108.786839,29.9617368 109.235353,29.677 C109.683338,29.3933158 109.633092,29.0766842 109.083028,28.7261579 C108.533493,28.3776842 107.938471,28.0517895 107.297964,27.7454737 C106.658514,27.4401579 105.94343,27.0937368 105.156415,26.7074211 C104.370458,26.3184737 103.643739,26.0678421 102.975728,25.9557895 C102.309304,25.8404737 101.784627,25.9146842 101.406458,26.1801053 C101.026173,26.442 100.855865,26.7894737 100.892889,27.2191579 C100.930441,27.6488421 101.656103,28.4968947 103.073576,29.7643684 C104.491049,31.0339474 105.65782,31.9755263 106.576004,32.5902632 C107.496304,33.206 108.447281,33.9019474 109.43052,34.677 C110.41376,35.4500526 111.325069,36.1459474 112.164445,36.7596842 C113.003293,37.3713158 113.803531,37.9808947 114.563043,38.5832632 C115.323612,39.1825789 116.07043,39.9072632 116.80191,40.7574211 C117.536034,41.6054737 118.008878,42.36 118.222028,43.0188947 C118.098263,43.6706316 117.680955,44.0571579 116.976979,44.1805263 C116.318488,44.1218947 115.536762,43.8361579 114.626512,43.3242105 C113.71679,42.8092105 112.839861,42.1215263 111.995195,41.2600526 C111.148942,40.3965789 110.148777,39.2452632 108.997345,37.7999474 C107.845383,36.3566842 106.646878,35.2228421 105.403415,34.3974211 C104.160482,33.574 102.847203,32.4936316 101.465696,31.1583158 C100.084188,29.824 99.1834582,28.8289474 98.7650921,28.1792632 C98.3467259,27.5265263 98.1341049,26.7732105 98.127758,25.9146842 C98.2435889,24.6521579 99.0618094,23.8320526 100.590353,23.4547895 L101.984026,23.5131579 C103.09103,23.7600526 104.134565,24.0684737 105.11569,24.4373158 C106.094169,24.8032632 107.06736,25.2300526 108.034732,25.7088947 C108.999989,26.192 109.696561,26.5921053 110.121274,26.9169474 C110.545458,27.2397368 110.944784,27.4854211 111.315548,27.6508947 C111.68737,27.8164211 112.080878,27.6488421 112.499244,27.1482105 C112.91761,26.6484211 113.472964,26.3032632 114.168478,26.1120526 C114.862934,25.9226842 115.579075,25.8805263 116.314257,25.9827368 C116.667567,26.0316842 117.063719,26.1632632 117.500069,26.3711053 C117.63018,26.0205789 117.785679,25.7263684 117.975028,25.5063684 C118.299248,25.1284737 118.753051,24.8032632 119.336437,24.5331053 C119.92088,24.2615263 121.041636,24.0610526 122.701349,23.9348421 L123.618475,23.9521053 C125.13697,24.0499474 126.419043,24.2637895 127.468925,24.5998947 C128.432595,24.9072632 130.079615,25.6636316 130.170587,25.6916316 C131.04064,25.9568421 132.415272,26.6363158 134.301358,27.7331579 C133.276863,26.7422105 132.695064,25.9237368 132.561779,25.2794211 C132.42585,24.6336316 132.640587,24.0499474 133.206518,23.5316842 C133.771921,23.0115263 134.73612,22.7395263 136.097529,22.7216316 C136.732747,22.7321053 137.461582,22.8495263 138.285092,23.0664211 C139.108602,23.2853684 139.829503,23.6488421 140.443036,24.1558421 C141.057627,24.6646842 141.964704,25.5495263 143.166383,26.8141579 C143.407565,26.0742105 143.806891,25.3711053 144.363302,24.7027368 C144.920771,24.0374211 145.624747,23.6262105 146.479463,23.4743158 C147.332591,23.3188947 148.304195,23.2810526 149.390043,23.3589474 C150.478006,23.4342105 151.427396,23.6163684 152.23927,23.9021579 C153.049557,24.1878947 153.710692,24.6011579 154.223732,25.1416316 C154.735186,25.6821579 155.266739,26.3863158 155.816274,27.2551579 C156.697964,26.2547368 157.594463,25.6784737 158.503655,25.5263158 C159.202872,25.4089474 160.207797,25.5232105 161.51367,25.8630526 C161.62051,25.6332105 161.738985,25.4284737 161.87703,25.2678947 C162.202308,24.89 162.65664,24.5637368 163.240026,24.2935789 C163.824469,24.0222105 164.944167,23.8225789 166.60388,23.6953158 L167.522064,23.7136316 C169.038972,23.8104211 170.322632,24.0263158 171.372514,24.3616316 C172.421338,24.6963158 173.291921,25.0674211 173.988493,25.4767895 C174.468741,25.7594737 174.917784,26.1531579 175.339852,26.6436842 C175.441403,26.4389474 175.558291,26.2395263 175.712732,26.0505789 C176.177113,25.4837368 176.869454,25.191 177.787638,25.1751579 C178.707409,25.1589474 179.881585,25.1416316 181.311223,25.1231579 C179.823934,24.5526316 178.437137,23.9068421 177.143957,23.1821579 C175.853422,22.4584737 174.316944,21.5778947 172.533467,20.5394737 C170.748931,19.5020526 169.140522,18.4679474 167.707711,17.4358421 C166.275428,16.4047895 164.910846,15.3737895 163.614493,14.3457895 C162.318668,13.3168421 160.460086,11.4247368 158.037687,8.67168421 C156.934914,7.06989474 156.25897,5.59005263 156.011441,4.23005789 C156.170113,3.08162105 156.488516,2.17886316 156.965591,1.52220526 C157.443195,0.865336842 158.354503,0.358346842 159.700574,0 L160.447921,0.0121299474 C161.149253,0.116776316 161.887608,0.351151579 162.663516,0.714226316 C163.439424,1.07792105 164.502,1.90049474 165.849128,3.17948421 C167.198373,4.45682632 168.321773,5.65152632 169.21933,6.76252632 C170.116358,7.87478947 171.25827,9.30673684 172.642422,11.0604211 C174.02869,12.8141579 175.425535,14.6963158 176.840893,16.7094737 C178.254664,18.7220526 179.547844,20.3042632 180.717259,21.4551579 C181.885617,22.6046316 182.873088,23.4362632 183.68073,23.9473684 C184.488373,24.4598947 185.555709,24.9773684 186.883797,25.4973158 C188.212942,26.0185263 189.340574,26.4348421 190.264576,26.7452632 C190.671306,26.882 191.18276,27.1297368 191.787302,27.4751053 C191.702677,27.14 191.630745,26.5232105 191.630745,26.5006316 C191.636563,26.139 191.733882,25.7347895 191.925347,25.2853684 C192.09354,24.7942105 192.424636,24.3984211 192.917578,24.1021579 C193.411049,23.8083684 194.090167,23.6221053 194.952287,23.5495263 C195.27069,23.5316842 195.600199,23.5279474 195.939758,23.5326842 C196.484533,23.5431579 197.061043,23.5995263 197.671931,23.7027368 C198.621321,23.8558947 199.474979,24.0836842 200.229201,24.3920526 C200.983424,24.6994211 201.651435,25.0294211 202.234291,25.3768421 C202.817148,25.7273684 203.477754,26.2243158 204.213994,26.8717368 C204.950762,27.5172632 205.219976,27.9664737 205.021636,28.2224737 C204.824882,28.4794211 204.551437,28.5462632 204.2013,28.4290526 C203.851692,28.3087895 203.342353,28.0281579 202.670111,27.5871579 C201.997869,27.1451579 200.860188,26.6322105 199.2613,26.0505789 C197.661882,25.4662632 196.576563,25.2205789 196.007987,25.3121053 C195.438882,25.4037895 195.048548,25.6784737 194.835927,26.1356842 C194.622248,26.5952105 194.647636,27.1266316 194.907859,27.7300526 C195.169668,28.3324211 195.60443,28.9852105 196.215319,29.6842105 C196.825679,30.3842632 197.523837,31.2220526 198.31191,32.1955263 C199.098396,33.17 199.781745,33.9605263 200.359313,34.5711579 C200.938467,35.1786842 201.422418,35.6566842 201.812752,36.0031053 C202.204672,36.3495263 202.572263,36.6095789 202.9224,36.7863684 C203.269364,36.9611579 203.716291,37.0875789 204.258951,37.1667368 C204.801081,37.2438421 205.491835,37.3188947 206.328567,37.3908421 C207.167415,37.4627895 208.582773,37.5974737 210.577814,37.7917368 C212.568094,37.9870526 214.48803,38.1967368 216.331803,38.4239474 C218.177163,38.6501053 220.123544,38.8659474 222.173591,39.0746316 C224.223109,39.2812632 226.244066,39.4158947 228.240694,39.4755263 C230.235734,39.5351579 232.110713,39.6102105 233.867216,39.6996316 C235.623191,39.7880526 237.121058,39.86 238.354471,39.9196316 C239.588942,39.9741053 240.651518,39.9843684 241.53691,39.9442632 C242.421244,39.9042105 243.251101,39.8404737 244.024893,39.7541053 C244.797627,39.6656842 245.645467,39.7777368 246.569469,40.0892105 C245.648111,40.8622632 244.421045,41.3063158 242.887212,41.4255789" id="path34"></path>
                        <path d="M212.168769,27.2561579 C211.824979,27.5429474 211.389158,27.6807368 210.869242,27.6724737 C210.34721,27.6622105 209.924084,27.5193158 209.601979,27.2427895 C209.276171,26.9652632 208.860979,26.5067895 208.350582,25.8643158 C208.043287,25.3626842 207.892019,24.9288421 207.897837,24.5688947 C207.901011,24.4331579 207.924812,24.3100526 207.972942,24.198 C208.141135,23.7722105 208.508726,23.4847895 209.077831,23.3384211 C209.261891,23.2952105 209.430084,23.2779474 209.589814,23.28 C209.907687,23.2853684 210.166323,23.4146842 210.366251,23.6663158 C210.654505,24.0111053 210.950165,24.2541053 211.254816,24.3931053 C211.558409,24.5353684 211.867291,24.6932632 212.180405,24.8684211 C212.494047,25.0435789 212.669645,25.4153158 212.704024,25.9794211 L212.70085,26.1478421 C212.690801,26.6453684 212.515203,27.0145789 212.168769,27.2561579" id="path36"></path>
                    </g>
                </g>
            </g>
        </g>
    </g>
</svg>