<?xml version="1.0" encoding="UTF-8"?>
<svg width="107px" height="71px" viewBox="0 0 107 71" version="1.1" xmlns="http://www.w3.org/2000/svg" xmlns:xlink="http://www.w3.org/1999/xlink">
    <!-- Generator: Sketch 58 (84663) - https://sketch.com -->
    <title>EFS_Consulting_CMYK</title>
    <desc>Created with Sketch.</desc>
    <g id="Page-1" stroke="none" stroke-width="1" fill="none" fill-rule="evenodd">
        <g id="Desktop-Web" transform="translate(-455.000000, -6705.000000)" fill="#000000" fill-rule="nonzero">
            <g id="EFS_Consulting_CMYK" transform="translate(455.000000, 6705.000000)">
                <path d="M89.9292971,50 C95.2424296,50 99.4158299,48.7674057 102.449498,46.302217 C105.481059,43.8370283 107,39.9520424 107,34.6472593 C107,31.5026713 106.317425,28.9680703 104.954381,27.0413529 C103.58923,25.1167389 101.96706,23.6969417 100.087872,22.7798578 C98.2065761,21.8648774 95.7375074,20.9141391 92.6827722,19.9276429 C90.5676314,19.2713811 88.9096476,18.6845316 87.7109273,18.1670944 C86.5122071,17.6517605 85.511518,16.9702579 84.7130734,16.1246897 C83.9125222,15.2791216 83.5143532,14.2000757 83.5143532,12.8854487 C83.5143532,11.3836187 84.1147667,10.1510244 85.3113802,9.18766564 C86.5101004,8.22641033 88.1680843,7.74473097 90.2853318,7.74473097 C92.3056704,7.74473097 93.9046663,8.34420092 95.0823194,9.5410374 C96.255759,10.7378739 96.8456389,12.3701148 96.8456389,14.4356569 L96.8456389,15.0687813 L106.085686,15.0687813 L106.085686,14.2253166 C106.085686,9.48424551 104.6152,5.92739052 101.676334,3.55685499 C98.737468,1.18631946 94.9643434,0 90.3548533,0 C87.3928135,0 84.6877929,0.504816794 82.2440047,1.51445038 C79.8002166,2.52618737 77.8472928,4.04905137 76.3894467,6.09355938 C74.9316007,8.13596399 74.2026777,10.6116697 74.2026777,13.5227799 C74.2026777,16.7157461 74.8473322,19.2755879 76.1429612,21.2002019 C77.4343768,23.124816 78.9996653,24.5572336 80.8325064,25.4953515 C82.6674542,26.4355728 85.0648947,27.3736906 88.0269344,28.3118085 C90.2853318,29.0648269 92.036011,29.7210887 93.281079,30.2826974 C94.5261469,30.8464095 95.5731837,31.6330823 96.4200827,32.6427159 C97.264875,33.6523495 97.6883245,34.9543561 97.6883245,36.5508393 C97.6883245,38.1473224 97.087911,39.4977073 95.8891908,40.5998906 C94.6904706,41.7041774 92.8449892,42.255269 90.3527466,42.255269 C87.9068517,42.255269 86.0023824,41.5632493 84.6393385,40.1771066 C83.2741878,38.7930672 82.5937192,36.925245 82.5937192,34.577847 L82.6653475,33.4504228 L73.2841504,33.4504228 L73.2125222,35.000631 C73.2125222,38.1935972 73.964619,40.9154011 75.4688128,43.1681461 C76.9730065,45.4229944 78.9954519,47.1246477 81.5361488,48.2752093 C84.0747391,49.4257709 86.8724552,50 89.9292971,50 M39.2860012,49.1544319 L48.3132703,49.1544319 L48.3132703,29.0837575 L64.8888955,29.0837575 L64.8888955,21.0550671 L48.3132703,21.0550671 L48.3132703,8.87425855 L67.7097854,8.87425855 L67.7097854,0.845568129 L39.2860012,0.845568129 L39.2860012,49.1544319 Z M0,49.1544319 L31.2467809,49.1544319 L31.2467809,41.1278449 L9.02726915,41.1278449 L9.02726915,28.4527365 L27.718035,28.4527365 L27.718035,20.4240461 L9.02726915,20.4240461 L9.02726915,8.87425855 L30.8212247,8.87425855 L30.8212247,0.845568129 L0,0.845568129 L0,49.1544319 Z" id="Shape"></path>
                <path d="M8.5751073,71 C8.91630901,71 9.28111588,70.969112 9.67381974,70.9073359 C10.0665236,70.8455598 10.3798283,70.7528958 10.6201717,70.6293436 C10.8733906,70.5 11,70.3494208 11,70.1795367 C11,70.1138996 10.9678112,70.011583 10.9077253,69.8725869 C10.8454936,69.7316602 10.7660944,69.6061776 10.6695279,69.496139 C10.5708155,69.3861004 10.4678112,69.3301158 10.3583691,69.3301158 C10.3154506,69.3301158 10.2360515,69.3552124 10.1201717,69.4073359 C9.89484979,69.5 9.66309013,69.5752896 9.4248927,69.6332046 C9.18669528,69.6930502 8.90343348,69.7220077 8.57725322,69.7220077 C7.33690987,69.7220077 6.71888412,68.9787645 6.71888412,67.492278 C6.71888412,66.7548263 6.87339056,66.2046332 7.18025751,65.8397683 C7.48927039,65.4749035 7.96137339,65.2915058 8.60085837,65.2915058 C8.9055794,65.2915058 9.16523605,65.3146718 9.38197425,65.3590734 C9.59871245,65.4054054 9.78540773,65.457529 9.93562232,65.515444 C10.0879828,65.5733591 10.1738197,65.6042471 10.1974249,65.6042471 C10.2832618,65.6042471 10.3841202,65.546332 10.4957082,65.4324324 C10.6072961,65.3185328 10.7038627,65.1872587 10.7832618,65.0405405 C10.8626609,64.8938224 10.9034335,64.7760618 10.9034335,64.6833977 C10.9034335,64.5733591 10.8090129,64.469112 10.6201717,64.3706564 C10.4098712,64.2586873 10.1158798,64.1698842 9.73819742,64.1023166 C9.36266094,64.0328185 8.99141631,64 8.63090129,64 C6.21030043,64 5,65.1602317 5,67.4826255 C5,68.6891892 5.29184549,69.5772201 5.87553648,70.1467181 C6.45708155,70.7142857 7.3583691,71 8.5751073,71" id="Path"></path>
                <path d="M20.2726433,67.5 C20.2726433,68.2235391 20.1238447,68.7734289 19.8262477,69.1515987 C19.5264941,69.5297685 19.0865681,69.7188534 18.504313,69.7188534 C17.9220579,69.7188534 17.4799754,69.5297685 17.1780653,69.1515987 C16.8761553,68.7734289 16.7252002,68.2235391 16.7252002,67.5 C16.7252002,66.7764609 16.8761553,66.2265711 17.1780653,65.8541896 C17.4799754,65.4798787 17.9220579,65.2927233 18.504313,65.2927233 C19.0865681,65.2927233 19.5264941,65.4798787 19.8262477,65.8541896 C20.1260012,66.2285006 20.2726433,66.7783903 20.2726433,67.5 M22,67.5 C22,66.3732084 21.7002465,65.5068908 21.0985829,64.9049063 C20.4969193,64.3009923 19.6321627,64 18.504313,64 C17.3764633,64 16.5095502,64.3009923 15.9057301,64.9049063 C15.2997535,65.5068908 15,66.3732084 15,67.5 C15,68.6267916 15.30191,69.4931092 15.9057301,70.0950937 C16.5117067,70.6990077 17.3764633,71 18.504313,71 C19.6343192,71 20.4969193,70.6990077 21.0985829,70.0950937 C21.7002465,69.4931092 22,68.6287211 22,67.5" id="Shape"></path>
                <path d="M26.7249576,71 L27.0743633,71 C27.5568761,71 27.796944,70.8940286 27.796944,70.6820858 L27.796944,67.3302495 C27.796944,67.0319596 27.7874363,66.8062798 27.7731749,66.65321 L27.8207131,66.6433978 C27.9490662,66.8416036 28.0940577,67.0378469 28.2556876,67.2301654 L31.0247878,70.7291842 C31.1056027,70.8351556 31.2101868,70.9077656 31.3385399,70.9430894 C31.466893,70.9803757 31.6285229,70.9980376 31.8210526,70.9980376 L32.2774194,70.9980376 C32.7599321,70.9980376 33,70.8920662 33,70.6801234 L33,64.3179142 C33,64.1059714 32.7599321,64 32.2774194,64 L31.9280136,64 C31.4455008,64 31.2054329,64.1059714 31.2054329,64.3179142 L31.2054329,67.6187272 C31.2054329,67.9170171 31.2125637,68.1426969 31.229202,68.2938043 L31.1816638,68.3036165 C31.0533107,68.1054107 30.9083192,67.9091674 30.7466893,67.7168489 L28.0370119,64.2668909 C27.9561969,64.1609195 27.8516129,64.0902719 27.7232598,64.0529857 C27.5949066,64.0176619 27.4332767,64 27.240747,64 L26.7225806,64 C26.2400679,64 26,64.1059714 26,64.3179142 L26,70.6801234 C26.0023769,70.8940286 26.2424448,71 26.7249576,71" id="Path"></path>
                <path d="M38.5492716,71 C38.9755784,71 39.374036,70.9285517 39.7425021,70.7856552 C40.1109683,70.6427586 40.4130249,70.4110345 40.6486718,70.0904828 C40.8821765,69.7718621 41,69.3605517 41,68.8584828 C41,68.4471724 40.903599,68.1111724 40.7129392,67.8466207 C40.5222793,67.582069 40.2952014,67.3793103 40.0359897,67.2402759 C39.7746358,67.0993103 39.4383033,66.9525517 39.0269923,66.7961379 C38.7442159,66.6841379 38.5321337,66.5953103 38.386461,66.5277241 C38.2429306,66.4601379 38.1186804,66.3693793 38.0179949,66.2593103 C37.9173093,66.1492414 37.8658955,66.0082759 37.8658955,65.8383448 C37.8658955,65.6954483 37.940874,65.568 38.0886889,65.456 C38.2365039,65.344 38.4978578,65.289931 38.8748929,65.289931 C39.1576692,65.289931 39.4275921,65.3285517 39.688946,65.4077241 C39.7467866,65.4270345 39.8174807,65.454069 39.9010283,65.4849655 C39.9845758,65.5177931 40.0445587,65.5332414 40.0809769,65.5332414 C40.1602399,65.5332414 40.2459297,65.4830345 40.3401885,65.3826207 C40.4344473,65.2822069 40.5137104,65.1624828 40.5779777,65.0253793 C40.6443873,64.8882759 40.676521,64.7743448 40.676521,64.6835862 C40.676521,64.5793103 40.5972579,64.4750345 40.4387318,64.3707586 C40.2652099,64.2587586 40.0274207,64.169931 39.7275064,64.1023448 C39.4275921,64.0328276 39.0934019,64 38.7227935,64 C38.2750643,64 37.8551842,64.0695172 37.4652956,64.2104828 C37.0732648,64.3514483 36.7583548,64.5696552 36.5162811,64.8670345 C36.2742074,65.1624828 36.1520994,65.5332414 36.1520994,65.9773793 C36.1520994,66.5122759 36.2827763,66.9235862 36.541988,67.2151724 C36.8033419,67.5048276 37.1610968,67.7481379 37.617395,67.9431724 L38.1165381,68.1382069 C38.5278492,68.2888276 38.8277635,68.424 39.0119966,68.5456552 C39.1962296,68.6653793 39.2883462,68.8314483 39.2883462,69.04 C39.2883462,69.2948966 39.1898029,69.4725517 38.9905741,69.5729655 C38.7913453,69.6733793 38.5514139,69.7235862 38.2686375,69.7235862 C38.0158526,69.7235862 37.7952014,69.6946207 37.6066838,69.6347586 C37.4181662,69.5768276 37.2082262,69.4937931 36.9768638,69.3895172 C36.8183376,69.3122759 36.7176521,69.2717241 36.672665,69.2717241 C36.5998286,69.2717241 36.5098543,69.3238621 36.4005998,69.4281379 C36.2934876,69.5324138 36.1992288,69.654069 36.1178235,69.7892414 C36.0385604,69.9263448 36,70.0441379 36,70.1426207 C36,70.2662069 36.1006855,70.3917241 36.3041988,70.5133793 C36.5227078,70.6582069 36.8226221,70.774069 37.2039417,70.8667586 C37.5874036,70.9536552 38.0351328,71 38.5492716,71" id="Path"></path>
                <path d="M49,71 C49.9516678,71 50.6909462,70.791713 51.2137509,70.375139 C51.7385977,69.9566185 52,69.3706897 52,68.615406 L52,64.3153504 C52,64.1051168 51.7937372,64 51.3791695,64 L51.0381212,64 C50.6235534,64 50.4172907,64.1051168 50.4172907,64.3153504 L50.4172907,68.516129 C50.4172907,68.8645717 50.2845473,69.150723 50.0190606,69.3745829 C49.7535739,69.5984427 49.4145677,69.7093993 49,69.7093993 C48.5854323,69.7093993 48.2484683,69.5964961 47.9850238,69.3745829 C47.7236215,69.150723 47.5929204,68.8645717 47.5929204,68.516129 L47.5929204,64.3153504 C47.5929204,64.1051168 47.3866576,64 46.9720899,64 L46.6208305,64 C46.2062628,64 46,64.1051168 46,64.3153504 L46,68.615406 C46,69.3706897 46.2614023,69.9585651 46.7862491,70.375139 C47.3090538,70.791713 48.04629,71 49,71" id="Path"></path>
                <path d="M57.50074,71 L61.6250617,71 C61.7582634,71 61.8544647,70.960641 61.9136655,70.879955 C61.9703996,70.801237 62,70.6733202 62,70.5001406 L62,70.1911723 C62,70.0179927 61.9703996,69.8920439 61.9136655,69.8113579 C61.8544647,69.7326399 61.7582634,69.6913129 61.6250617,69.6913129 L58.9264924,69.6913129 L58.9264924,64.318808 C58.9264924,64.1062693 58.674889,64 58.1766157,64 L57.7498767,64 C57.2516034,64 57,64.1062693 57,64.318808 L57,70.5985381 C57,70.7382626 57.0394672,70.8386281 57.1184016,70.9035704 C57.197336,70.9685128 57.3256043,71 57.50074,71" id="Path"></path>
                <path d="M68.8022222,71 L69.1955556,71 C69.6466667,71 69.8711111,70.8937307 69.8711111,70.681192 L69.8711111,65.3086871 L71.6622222,65.3086871 C71.7822222,65.3086871 71.8688889,65.2693281 71.92,65.1886421 C71.9733333,65.1099241 72,64.9820073 72,64.8088277 L72,64.4998594 C72,64.3266798 71.9733333,64.200731 71.92,64.120045 C71.8688889,64.041327 71.7822222,64 71.6622222,64 L66.3377778,64 C66.2177778,64 66.1311111,64.039359 66.08,64.120045 C66.0266667,64.200731 66,64.3266798 66,64.4998594 L66,64.8088277 C66,64.9820073 66.0266667,65.1079561 66.08,65.1886421 C66.1311111,65.2673601 66.2177778,65.3086871 66.3377778,65.3086871 L68.1288889,65.3086871 L68.1288889,70.681192 C68.1266667,70.8937307 68.3511111,71 68.8022222,71" id="Path"></path>
                <path d="M75.7745223,71 L76.2254777,71 C76.7426752,71 77,70.8923679 77,70.6731898 L77,64.3268102 C77,64.109589 76.7426752,64 76.2254777,64 L75.7745223,64 C75.2573248,64 75,64.1076321 75,64.3268102 L75,70.6731898 C75,70.890411 75.2573248,71 75.7745223,71" id="Path"></path>
                <path d="M82.7249576,71 L83.0743633,71 C83.5568761,71 83.796944,70.8940286 83.796944,70.6820858 L83.796944,67.3302495 C83.796944,67.0319596 83.7874363,66.8062798 83.7731749,66.65321 L83.8207131,66.6433978 C83.9490662,66.8416036 84.0940577,67.0378469 84.2556876,67.2301654 L87.0247878,70.7291842 C87.1056027,70.8351556 87.2101868,70.9077656 87.3385399,70.9430894 C87.466893,70.9803757 87.6285229,70.9980376 87.8210526,70.9980376 L88.2774194,70.9980376 C88.7599321,70.9980376 89,70.8920662 89,70.6801234 L89,64.3179142 C89,64.1059714 88.7599321,64 88.2774194,64 L87.9280136,64 C87.4455008,64 87.2054329,64.1059714 87.2054329,64.3179142 L87.2054329,67.6187272 C87.2054329,67.9170171 87.2125637,68.1426969 87.229202,68.2938043 L87.1816638,68.3036165 C87.0533107,68.1054107 86.9083192,67.9091674 86.7466893,67.7168489 L84.0370119,64.2668909 C83.9561969,64.1609195 83.8516129,64.0902719 83.7232598,64.0529857 C83.5949066,64.0176619 83.4332767,64 83.240747,64 L82.7225806,64 C82.2400679,64 82,64.1059714 82,64.3179142 L82,70.6801234 C82.0023769,70.8940286 82.2424448,71 82.7249576,71" id="Path"></path>
                <path d="M98.5744382,67.1246209 L96.4087079,67.1246209 C96.2949438,67.1246209 96.2127809,67.1632203 96.1622191,67.242349 C96.1116573,67.3195478 96.0863764,67.4449959 96.0863764,67.6148332 L96.0863764,67.9274883 C96.0863764,68.0973256 96.1116573,68.2208437 96.1622191,68.2980425 C96.2106742,68.3771712 96.2928371,68.4157706 96.4087079,68.4157706 L97.3462079,68.4157706 L97.3462079,69.6567411 C97.0765449,69.7011304 96.7984551,69.72429 96.5140449,69.72429 C95.2963483,69.72429 94.6896067,68.9812517 94.6896067,67.4951751 C94.6896067,66.7579267 94.8412921,66.2078853 95.1425562,65.843121 C95.4438202,65.4783568 95.9094101,65.2950096 96.5351124,65.2950096 C96.8342697,65.2950096 97.0955056,65.3181693 97.3188202,65.3625586 C97.5421348,65.4088779 97.7338483,65.460987 97.8897472,65.5188861 C98.0456461,65.5767852 98.1341292,65.6076647 98.1573034,65.6076647 C98.241573,65.6076647 98.3405899,65.5497656 98.4501404,65.4358974 C98.559691,65.3220292 98.6544944,65.1907913 98.7324438,65.0441136 C98.8103933,64.8974359 98.8483146,64.7777778 98.8483146,64.6870692 C98.8483146,64.5577612 98.7261236,64.4400331 98.4859551,64.3338848 C98.2436798,64.2296664 97.9445225,64.1486077 97.5884831,64.0887786 C97.2324438,64.0308795 96.8911517,64 96.5646067,64 C94.1882022,64 93,65.1599118 93,67.4816653 C93,68.6878963 93.2865169,69.5756824 93.8595506,70.1450234 C94.4325843,70.7162945 95.3174157,71 96.5119382,71 C97.1039326,71 97.6664326,70.9440309 98.1994382,70.8340226 C98.7345506,70.7220844 99,70.5213675 99,70.2280121 L99,67.5106148 C99,67.373587 98.9662921,67.2751585 98.8988764,67.2114695 C98.8314607,67.1555004 98.7240169,67.1246209 98.5744382,67.1246209" id="Path"></path>
            </g>
        </g>
    </g>
</svg>