<?xml version="1.0" encoding="UTF-8"?>
<svg width="22px" height="31px" viewBox="0 0 22 31" version="1.1" xmlns="http://www.w3.org/2000/svg" xmlns:xlink="http://www.w3.org/1999/xlink">
    <!-- Generator: Sketch 58 (84663) - https://sketch.com -->
    <title>smartphone</title>
    <desc>Created with Sketch.</desc>
    <g id="Page-1" stroke="none" stroke-width="1" fill="none" fill-rule="evenodd">
        <g id="Desktop-Web" transform="translate(-158.000000, -5029.000000)" fill="#3BD9AA" fill-rule="nonzero">
            <g id="Group-19" transform="translate(155.000000, 4741.000000)">
                <g id="smartphone" transform="translate(3.000000, 288.000000)">
                    <path d="M20.2226562,21.3198867 C20.891457,21.3198867 21.4335938,20.7776895 21.4335938,20.1089492 L21.4335938,4.84375 C21.4335938,2.17290625 19.2606875,0 16.5898438,0 L4.84375,0 C2.17290625,0 0,2.17290625 0,4.84375 L0,26.15625 C0,28.8270938 2.17290625,31 4.84375,31 L16.5898438,31 C19.2606875,31 21.4335938,28.8270938 21.4335938,26.15625 C21.4335938,25.4874492 20.891457,24.9453125 20.2226562,24.9453125 C19.5538555,24.9453125 19.0117188,25.4874492 19.0117188,26.15625 C19.0117188,27.4916719 17.9252656,28.578125 16.5898438,28.578125 L4.84375,28.578125 C3.50832812,28.578125 2.421875,27.4916719 2.421875,26.15625 L2.421875,4.84375 C2.421875,3.50832813 3.50832812,2.421875 4.84375,2.421875 L16.5898438,2.421875 C17.9252656,2.421875 19.0117188,3.50832813 19.0117188,4.84375 L19.0117188,20.1089492 C19.0117188,20.7776895 19.5538555,21.3198867 20.2226562,21.3198867 Z" id="Path"></path>
                    <circle id="Oval" cx="10.7167969" cy="25.4976211" r="1.2109375"></circle>
                    <path d="M13.1386719,5.51715234 C13.1386719,4.84835156 12.5965352,4.30621484 11.9277344,4.30621484 L9.50585938,4.30621484 C8.83705859,4.30621484 8.29492188,4.84835156 8.29492188,5.51715234 C8.29492188,6.18595312 8.83705859,6.72808984 9.50585938,6.72808984 L11.9277344,6.72808984 C12.5965352,6.72808984 13.1386719,6.18589258 13.1386719,5.51715234 Z" id="Path"></path>
                </g>
            </g>
        </g>
    </g>
</svg>