<?xml version="1.0" encoding="UTF-8"?>
<svg width="65px" height="64px" viewBox="0 0 65 64" version="1.1" xmlns="http://www.w3.org/2000/svg" xmlns:xlink="http://www.w3.org/1999/xlink">
    <!-- Generator: Sketch 55 (78076) - https://sketchapp.com -->
    <title>noun_Power bank_2017321</title>
    <desc>Created with Sketch.</desc>
    <g id="Page-1" stroke="none" stroke-width="1" fill="none" fill-rule="evenodd">
        <g id="noun_Power-bank_2017321" transform="translate(0.000000, -0.762626)" fill="#34D8A7" fill-rule="nonzero">
            <g id="Group" transform="translate(0.000000, 0.751071)">
                <path d="M1.72348485,44.0618943 C2.62593434,44.0618943 3.36489899,43.4043377 3.36489899,42.5933808 L3.36489899,40.6044861 C3.36489899,39.7935292 2.62593434,39.1361201 1.72348485,39.1361201 C0.820871212,39.1361201 0.0820707071,39.7935292 0.0820707071,40.6044861 L0.0820707071,42.5933808 C0.0820707071,43.4043377 0.820871212,44.0618943 1.72348485,44.0618943 Z" id="Path"></path>
                <path d="M20.8049242,58.742014 C23.8645202,58.742014 26.344697,56.5134313 26.344697,53.7638773 L26.344697,31.8232003 C26.344697,29.0736463 23.8645202,26.8450635 20.8049242,26.8450635 L10.9564394,26.8450635 C7.89667929,26.8450635 5.41666667,29.0736463 5.41666667,31.8232003 L5.41666667,53.7638773 C5.41666667,56.5134313 7.89667929,58.742014 10.9564394,58.742014 L20.8049242,58.742014 Z M22.8566919,54.8701299 C22.8566919,55.5829991 22.21375,56.1607579 21.4204545,56.1607579 L18.1376263,56.1607579 C17.3443308,56.1607579 16.7013889,55.5829991 16.7013889,54.8701299 C16.7013889,54.1572607 17.3443308,53.5795018 18.1376263,53.5795018 L21.4204545,53.5795018 C22.21375,53.5795018 22.8566919,54.1572607 22.8566919,54.8701299 Z M12.7199747,42.1482248 C12.0904924,42.1482248 11.5169823,41.8052864 11.2453283,41.2949352 C10.9740025,40.784879 11.0527904,40.1708351 11.4477146,39.7305465 L17.8994571,32.5375445 C18.4657449,31.906243 19.4947475,31.8047628 20.1971086,32.3143765 C20.8994697,32.8231052 21.0102652,33.7584049 20.4434848,34.3894114 L16.1377273,39.1982178 L19.1712247,39.1982178 C19.8025126,39.1982178 20.3768434,39.512836 20.6473485,40.0249572 C20.9181818,40.5370784 20.8361111,41.1376999 20.437904,41.5766609 L13.9861616,48.6851452 C13.6629672,49.0418011 13.1931944,49.2244065 12.7186616,49.2244065 C12.3559091,49.2244065 11.9903662,49.1156988 11.687197,48.8934157 C10.9876263,48.381442 10.8830682,47.4740199 11.4532955,46.8452259 L15.7306566,42.1480773 L12.7199747,42.1480773 L12.7199747,42.1482248 Z M8.69949495,54.8701299 C8.69949495,54.1572607 9.34243687,53.5795018 10.1357323,53.5795018 L13.4185606,53.5795018 C14.2118561,53.5795018 14.854798,54.1572607 14.854798,54.8701299 C14.854798,55.5829991 14.2118561,56.1607579 13.4185606,56.1607579 L10.1357323,56.1607579 C9.34243687,56.1607579 8.69949495,55.5829991 8.69949495,54.8701299 Z" id="Shape"></path>
                <path d="M37.2190657,16.4541064 C36.3166162,16.4541064 35.5776515,17.1118105 35.5776515,17.9227674 L35.5776515,20.3411831 C35.5776515,21.1522876 36.3166162,21.8094016 37.2190657,21.8094016 C38.1215152,21.8094016 38.8604798,21.1522876 38.8604798,20.3411831 L38.8604798,17.9227674 C38.8604798,17.1118105 38.1215152,16.4541064 37.2190657,16.4541064 Z" id="Path"></path>
                <path d="M21.1448611,3.06063224 L26.9027778,3.06063224 C31.6993182,3.06063224 35.5776515,6.54193548 35.5776515,10.8521907 L35.5776515,12.8177803 C35.5776515,13.6288848 36.3166162,14.2862938 37.2190657,14.2862938 C38.1215152,14.2862938 38.8604798,13.6288848 38.8604798,12.8177803 L38.8604798,10.8521907 C38.8604798,4.92223415 33.5019192,0.110625262 26.9027778,0.110625262 L21.1448611,0.110625262 C14.546048,0.110625262 9.10984848,4.92223415 9.10984848,10.8521907 L9.10984848,15.3357588 C7.46843434,15.7089347 6.23737374,17.0824579 6.23737374,18.7194168 L6.23737374,22.3377479 C2.74936869,23.4001929 0.0820707071,26.40566 0.0820707071,29.9406534 L0.0820707071,35.1115731 C0.0820707071,35.92312 0.820871212,36.5800866 1.72348485,36.5800866 C2.62593434,36.5800866 3.36489899,35.92312 3.36489899,35.1115731 L3.36489899,29.9406534 C3.36489899,27.1403592 5.91926768,24.8167862 9.03532828,24.8167862 L13.7713005,24.8167862 L22.8560354,24.8167862 C25.972096,24.8167862 28.6018056,27.1403592 28.6018056,29.9406534 L28.6018056,55.9014523 C28.6018056,58.7015989 25.972096,60.9543718 22.8560354,60.9543718 L9.03549242,60.9543718 C5.91943182,60.9543718 3.36506313,58.7017464 3.36506313,55.9014523 L3.36506313,48.0939638 C3.36506313,47.2827119 2.62609848,46.6253029 1.72364899,46.6253029 C0.821035354,46.6253029 0.0822348485,47.2827119 0.0822348485,48.0939638 L0.0822348485,55.9017473 C0.0822348485,60.3211528 4.11748737,63.9046738 9.03549242,63.9046738 L22.8560354,63.9046738 C27.7740404,63.9046738 31.6794571,60.3211528 31.6794571,55.9017473 L31.6794571,29.9408009 C31.6794571,25.5215429 27.7740404,21.8669268 22.8560354,21.8669268 L15.4703283,21.8669268 L15.4703283,18.7195643 C15.4703283,17.0824579 14.2392677,15.7090822 12.3926768,15.3359063 L12.3926768,10.8523382 C12.3926768,6.54193548 16.3479924,3.06063224 21.1448611,3.06063224 Z" id="Path"></path>
                <path d="M61.307803,29.2419442 L59.6018813,29.2419442 C57.6177399,29.2419442 56.0953283,30.6479175 56.0953283,32.4313443 L56.0953283,36.534804 C56.0953283,38.0547951 57.2231439,39.3523556 58.7985732,39.696769 C58.2680682,43.5539031 54.5548611,46.5732352 50.1217298,46.5732352 L47.5701515,46.5732352 C42.7731187,46.5732352 38.8604798,43.0208368 38.8604798,38.7104341 L38.8604798,25.6865958 C38.8604798,24.8756389 38.1215152,24.2179348 37.2190657,24.2179348 C36.3166162,24.2179348 35.5776515,24.8756389 35.5776515,25.6865958 L35.5776515,38.7104341 C35.5776515,44.6399482 40.970846,49.5232422 47.5701515,49.5232422 L50.1217298,49.5232422 C56.3481061,49.5232422 61.4821212,45.1977945 62.0415152,39.731284 C63.6786616,39.4278758 64.9179293,38.0940302 64.9179293,36.534804 L64.9179293,32.4313443 C64.9179293,30.6479175 63.2924369,29.2419442 61.307803,29.2419442 Z" id="Path"></path>
            </g>
        </g>
    </g>
</svg>