<?xml version="1.0" encoding="UTF-8"?>
<svg width="24px" height="31px" viewBox="0 0 24 31" version="1.1" xmlns="http://www.w3.org/2000/svg" xmlns:xlink="http://www.w3.org/1999/xlink">
    <!-- Generator: Sketch 52.5 (67469) - http://www.bohemiancoding.com/sketch -->
    <title>pin (5)</title>
    <desc>Created with Sketch.</desc>
    <g id="Page-1" stroke="none" stroke-width="1" fill="none" fill-rule="evenodd">
        <g id="Desktop-Web" transform="translate(-157.000000, -2343.000000)" fill="#34D8A7" stroke="#FFFFFF" stroke-width="0.2">
            <g id="pin-(5)" transform="translate(157.000000, 2344.000000)">
                <path d="M12.8359357,17.905191 C13.5580211,17.8058268 14.064411,17.12824 13.9669192,16.3918555 C13.8694275,15.6554036 13.2050588,15.1392079 12.4831053,15.2383702 C12.324137,15.2602344 12.1615408,15.2713346 11.999934,15.2713346 C10.0359171,15.2713346 8.43798901,13.6416146 8.43798901,11.6385221 C8.43798901,9.63542969 10.0359171,8.00570964 11.999934,8.00570964 C13.963951,8.00570964 15.5618791,9.63542969 15.5618791,11.6385221 C15.5618791,11.8369141 15.5461801,12.0356424 15.515244,12.2292578 C15.3980296,12.9626823 15.8859501,13.6541949 16.6050013,13.7737413 C17.3249099,13.8932205 18.0021412,13.3956597 18.1193556,12.6623025 C18.1731805,12.325931 18.2004228,11.9814865 18.2004228,11.6384549 C18.2004228,8.15149306 15.4189395,5.31467014 12,5.31467014 C8.58106047,5.31467014 5.79957717,8.15149306 5.79957717,11.6384549 C5.79957717,15.1254167 8.58106047,17.9622396 12,17.9622396 C12.2792169,17.9622396 12.5605446,17.9429991 12.8359357,17.905191 Z" id="Path"></path>
                <path d="M10.8848474,28.4359071 C11.1265979,28.8259635 11.547567,29.0625 12,29.0625 C12.452433,29.0625 12.8734021,28.8259635 13.1151526,28.4358398 C14.3246968,26.4842122 15.8990106,24.772283 17.4215442,23.1168641 C20.3964939,19.882181 23.4726951,16.5373025 23.4773784,11.569566 C23.4738165,8.45543837 22.2739687,5.53990451 20.0987416,3.35994792 C17.936707,1.19324436 15.0604364,0 12,0 C8.94141057,0 6.07543002,1.19479167 3.93001776,3.36425347 C1.77880085,5.53963542 0.592145455,8.45375651 0.58858351,11.572526 C0.593266808,16.5454427 3.65449471,19.8962413 6.61493277,23.1367773 C8.12176744,24.7861415 9.67985455,26.4916124 10.8848474,28.4359071 Z M12,2.69097222 C16.8682554,2.69097222 20.8333598,6.67536024 20.8389006,11.5699023 C20.8352727,15.4717448 18.3615019,18.1614388 15.4971704,21.2759028 C14.3115704,22.5650803 13.0962216,23.8864822 12.0007915,25.3616059 C10.9157835,23.8969097 9.71580381,22.5834462 8.54537505,21.3022743 C5.69364228,18.1808138 3.23082114,15.4849306 3.22706131,11.5727279 C3.23266808,6.59227648 7.08623087,2.69097222 12,2.69097222 Z" id="Shape" fill-rule="nonzero"></path>
            </g>
        </g>
    </g>
</svg>