<?xml version="1.0" encoding="UTF-8"?>
<svg width="65px" height="65px" viewBox="0 0 65 65" version="1.1" xmlns="http://www.w3.org/2000/svg" xmlns:xlink="http://www.w3.org/1999/xlink">
    <!-- Generator: Sketch 55 (78076) - https://sketchapp.com -->
    <title>menu</title>
    <desc>Created with Sketch.</desc>
    <g id="Page-1" stroke="none" stroke-width="1" fill="none" fill-rule="evenodd">
        <g id="Desktop-HD" transform="translate(-1069.000000, -697.000000)" fill="#4ADEB5">
            <g id="menu" transform="translate(1069.000000, 697.000000)">
                <path d="M55.0223857,0 L45.5436521,0 C40.0419955,0 35.5660377,4.47595779 35.5660377,9.97761433 L35.5660377,19.4563479 C35.5660377,24.9580045 40.0419955,29.4339623 45.5436521,29.4339623 L55.0223857,29.4339623 C60.5240422,29.4339623 65,24.9580045 65,19.4563479 L65,9.97761433 C65,4.47595779 60.5240422,0 55.0223857,0 Z M60.0111928,19.4563479 C60.0111928,22.2071762 57.7732139,24.4451551 55.0223857,24.4451551 L45.5436521,24.4451551 C42.7928238,24.4451551 40.5548449,22.2071762 40.5548449,19.4563479 L40.5548449,9.97761433 C40.5548449,7.22678606 42.7928238,4.98880716 45.5436521,4.98880716 L55.0223857,4.98880716 C57.7732139,4.98880716 60.0111928,7.22678606 60.0111928,9.97761433 L60.0111928,19.4563479 Z" id="Shape" fill-rule="nonzero"></path>
                <path d="M19.4563479,0 L9.97761433,0 C4.47595779,0 0,4.47595779 0,9.97761433 L0,19.4563479 C0,24.9580045 4.47595779,29.4339623 9.97761433,29.4339623 L19.4563479,29.4339623 C24.9580045,29.4339623 29.4339623,24.9580045 29.4339623,19.4563479 L29.4339623,9.97761433 C29.4339623,4.47595779 24.9580045,0 19.4563479,0 Z M24.4451551,19.4563479 C24.4451551,22.2071762 22.2071762,24.4451551 19.4563479,24.4451551 L9.97761433,24.4451551 C7.22678606,24.4451551 4.98880716,22.2071762 4.98880716,19.4563479 L4.98880716,9.97761433 C4.98880716,7.22678606 7.22678606,4.98880716 9.97761433,4.98880716 L19.4563479,4.98880716 C22.2071762,4.98880716 24.4451551,7.22678606 24.4451551,9.97761433 L24.4451551,19.4563479 Z" id="Shape" fill-rule="nonzero"></path>
                <path d="M19.4563479,35.5660377 L9.97761433,35.5660377 C4.47595779,35.5660377 0,40.0419955 0,45.5436521 L0,55.0223857 C0,60.5240422 4.47595779,65 9.97761433,65 L19.4563479,65 C24.9580045,65 29.4339623,60.5240422 29.4339623,55.0223857 L29.4339623,45.5436521 C29.4339623,40.0419955 24.9580045,35.5660377 19.4563479,35.5660377 Z M24.4451551,55.0223857 C24.4451551,57.7732139 22.2071762,60.0111928 19.4563479,60.0111928 L9.97761433,60.0111928 C7.22678606,60.0111928 4.98880716,57.7732139 4.98880716,55.0223857 L4.98880716,45.5436521 C4.98880716,42.7928238 7.22678606,40.5548449 9.97761433,40.5548449 L19.4563479,40.5548449 C22.2071762,40.5548449 24.4451551,42.7928238 24.4451551,45.5436521 L24.4451551,55.0223857 Z" id="Shape" fill-rule="nonzero"></path>
                <path d="M62.5055964,52.5279821 C61.1279373,52.5279821 60.0111928,53.6447266 60.0111928,55.0223857 C60.0111928,57.7732139 57.7732139,60.0111928 55.0223857,60.0111928 L45.5436521,60.0111928 C42.7928238,60.0111928 40.5548449,57.7732139 40.5548449,55.0223857 L40.5548449,45.5436521 C40.5548449,42.7928238 42.7928238,40.5548449 45.5436521,40.5548449 L55.0223857,40.5548449 C57.0060601,40.5548449 58.8015318,41.7295843 59.5964982,43.5476303 C60.148385,44.8099232 61.6192101,45.3855069 62.8813783,44.8337448 C64.1436713,44.2817333 64.7193796,42.8110329 64.1674928,41.5488647 C62.5781836,37.914394 58.9884874,35.5660377 55.0223857,35.5660377 L45.5436521,35.5660377 C40.0419955,35.5660377 35.5660377,40.0419955 35.5660377,45.5436521 L35.5660377,55.0223857 C35.5660377,60.5240422 40.0419955,65 45.5436521,65 L55.0223857,65 C60.5240422,65 65,60.5240422 65,55.0223857 C65,53.6447266 63.8832555,52.5279821 62.5055964,52.5279821 Z" id="Path"></path>
            </g>
        </g>
    </g>
</svg>