<?xml version="1.0" encoding="UTF-8"?>
<svg width="33px" height="30px" viewBox="0 0 33 30" version="1.1" xmlns="http://www.w3.org/2000/svg" xmlns:xlink="http://www.w3.org/1999/xlink">
    <!-- Generator: Sketch 53.2 (72643) - https://sketchapp.com -->
    <title>heart (2)</title>
    <desc>Created with Sketch.</desc>
    <g id="Page-1" stroke="none" stroke-width="1" fill="none" fill-rule="evenodd">
        <g id="Connected-cars" transform="translate(-690.000000, -2206.000000)" fill="#34D8A7">
            <g id="Group-17" transform="translate(0.000000, 1956.000000)">
                <g id="Group-16">
                    <g id="heart-(2)" transform="translate(690.000000, 250.000000)">
                        <path d="M30.393425,2.35046104 C28.8485642,0.812740989 26.6742783,0 24.1054688,0 C21.298233,0 18.8726807,1.19371334 17.0909043,3.45188602 C16.8842011,3.71391449 16.6976394,3.97619447 16.5299606,4.23243924 C16.3690796,3.97946352 16.1895676,3.72070411 15.989914,3.46219614 C14.2396088,1.19723385 11.7861099,0 8.89453125,0 C6.32572172,0 4.15143584,0.812740989 2.606575,2.35046104 C0.876914994,4.07225479 0,6.58818107 0,9.82808049 C0,12.9731769 1.84169771,16.746689 5.47423555,21.0437552 C8.24420927,24.3208718 11.6285019,27.352808 13.8720245,29.0974853 C14.6457138,29.6992456 15.572731,30 16.5,30 C17.4270172,30 18.354538,29.6992456 19.1279755,29.0974853 C19.8744736,28.5168482 21.4057388,27.2793797 23.2723618,25.5130763 C23.7892456,25.0242246 23.8111496,24.2092205 23.3217087,23.6929589 C22.832016,23.1766974 22.0162812,23.1548198 21.4993973,23.6436714 C19.7115784,25.3352892 18.25383,26.513663 17.5440903,27.0656329 C16.9292679,27.5439229 16.0707321,27.5439229 15.4559097,27.0656329 C13.3151093,25.4009221 10.0861587,22.5082984 7.44408418,19.3828164 C4.26070406,15.6168483 2.578125,12.3130763 2.578125,9.82808049 C2.578125,3.83336127 6.01302339,2.57502096 8.89453125,2.57502096 C13.8506241,2.57502096 15.1968384,7.32950546 15.2539902,7.53973178 C15.2555008,7.54601844 15.2580185,7.5518022 15.2597809,7.55808885 C15.2680893,7.58751046 15.2774048,7.61642917 15.2877273,7.64509636 C15.2920074,7.65716677 15.2962876,7.66923718 15.3010712,7.68105614 C15.3118973,7.70871753 15.3237305,7.73587596 15.3363189,7.76278293 C15.3418579,7.77409893 15.3471451,7.78566637 15.3529358,7.79673091 C15.3670349,7.82414079 15.3818894,7.85054486 15.3977509,7.87694887 C15.4032898,7.88575023 15.4085769,7.89480303 15.4141159,7.90360439 C15.4324951,7.93277449 15.452385,7.96068733 15.4732818,7.98834872 C15.4765549,7.99262364 15.4795761,7.99715001 15.4828491,8.00117348 C15.6429749,8.2078793 15.8662949,8.36856665 16.1361923,8.44777868 C16.7165222,8.61777036 17.3192597,8.36202848 17.6108093,7.86311817 C17.6113129,7.86211231 17.6120682,7.86085499 17.6128235,7.85959767 C17.6301956,7.82942164 17.6463089,7.79874265 17.6614151,7.7668064 C17.6661987,7.75699918 17.6707306,7.74719195 17.6752625,7.73738473 C17.6858368,7.71374687 17.6956558,7.68960605 17.7047195,7.66496226 C17.7125244,7.64509636 17.7193222,7.62497901 17.7258682,7.60461021 C17.7288894,7.59530595 17.732666,7.58650459 17.7354355,7.57720034 C17.7394638,7.56412406 18.1433029,6.25196986 19.1659927,4.98256499 C20.4530411,3.38499579 22.114975,2.57502096 24.1054688,2.57502096 C26.9869766,2.57502096 30.421875,3.83336127 30.421875,9.82808049 C30.421875,12.2295893 28.8518372,15.3392289 25.7555694,19.0704945 C25.3013764,19.617938 25.3774109,20.4294216 25.9255142,20.8833194 C26.1659546,21.0824812 26.4575043,21.1795474 26.7472915,21.1795474 C27.117897,21.1795474 27.485733,21.0208717 27.7405243,20.7135792 C31.2796555,16.4489522 33,12.8881811 33,9.82808049 C33,6.58818107 32.123085,4.07225479 30.393425,2.35046104 L30.393425,2.35046104 Z" id="Path"></path>
                    </g>
                </g>
            </g>
        </g>
    </g>
</svg>