<?xml version="1.0" encoding="UTF-8"?>
<svg width="25px" height="30px" viewBox="0 0 25 30" version="1.1" xmlns="http://www.w3.org/2000/svg" xmlns:xlink="http://www.w3.org/1999/xlink">
    <!-- Generator: Sketch 53.2 (72643) - https://sketchapp.com -->
    <title>pin (5)</title>
    <desc>Created with Sketch.</desc>
    <g id="Page-1" stroke="none" stroke-width="1" fill="none" fill-rule="evenodd">
        <g id="Connected-cars" transform="translate(-408.000000, -2508.000000)" fill="#34D8A7">
            <g id="Group-17" transform="translate(0.000000, 1956.000000)">
                <g id="Group-16">
                    <g id="pin-(5)" transform="translate(408.000000, 552.000000)">
                        <path d="M13.2345915,15.2702037 C13.8691353,15.1849536 14.3141333,14.6036136 14.2284609,13.9718278 C14.1427885,13.3399842 13.5589641,12.8971107 12.9245363,12.9821876 C12.7848404,13.0009461 12.6419565,13.0104697 12.499942,13.0104697 C10.7740316,13.0104697 9.36982747,11.6122408 9.36982747,9.89367474 C9.36982747,8.17510865 10.7740316,6.77687981 12.499942,6.77687981 C14.2258524,6.77687981 15.6300566,8.17510865 15.6300566,9.89367474 C15.6300566,10.0638864 15.6162609,10.2343866 15.5890753,10.4005002 C15.4860713,11.0297465 15.9148391,11.6230342 16.5467164,11.7255998 C17.1793474,11.8281077 17.7744749,11.4012223 17.8774789,10.7720337 C17.9247784,10.4834416 17.9487179,10.1879233 17.9487179,9.89361702 C17.9487179,6.90195564 15.5044463,4.46808511 12.5,4.46808511 C9.49555374,4.46808511 7.05128205,6.90195564 7.05128205,9.89361702 C7.05128205,12.8852784 9.49555374,15.3191489 12.5,15.3191489 C12.7453662,15.3191489 12.9925873,15.3026415 13.2345915,15.2702037 Z" id="Path"></path>
                        <path d="M23.1258721,23.5012518 C22.2313953,23.0467584 21.003314,22.6638464 19.4757558,22.3631599 C18.8461047,22.2394273 18.2326163,22.6331526 18.1047093,23.2426918 C17.9768605,23.8522874 18.3833721,24.4469584 19.0126744,24.5708037 C21.3690116,25.0345896 22.3350581,25.5912454 22.6137209,25.8611818 C22.4084302,26.060438 21.7219767,26.5606623 19.7052907,27.030925 C17.7243023,27.4928524 15.1655233,27.7472448 12.5,27.7472448 C9.83447674,27.7472448 7.27569767,27.4928524 5.29476744,27.030925 C3.27802326,26.5606623 2.59162791,26.0604943 2.38633721,25.8611818 C2.665,25.5912454 3.63098837,25.0345896 5.98738372,24.5708037 C6.61668605,24.4469584 7.02319767,23.8522874 6.89534884,23.2426918 C6.7675,22.6330963 6.15354651,22.2394836 5.52430233,22.3631599 C3.99674419,22.6638464 2.76866279,23.0467584 1.87418605,23.5012518 C0.630581395,24.1331496 0,24.927809 0,25.8630404 C0,27.260537 1.405,28.3422538 4.17593023,29.0781163 C6.41459302,29.6726184 9.37081395,30 12.5,30 C15.629186,30 18.585407,29.6726184 20.8240698,29.0781163 C23.595,28.3422538 25,27.260537 25,25.8630404 C25,24.927809 24.3694186,24.1331496 23.1258721,23.5012518 Z" id="Path"></path>
                        <path d="M11.5032033,24.9814421 C11.7130884,25.3241135 12.0785691,25.5319149 12.4713663,25.5319149 C12.8641635,25.5319149 13.2296442,25.3241135 13.4395293,24.981383 C14.489642,23.266844 15.8564435,21.7628842 17.1782901,20.3085697 C19.761108,17.466844 22.4318314,14.5283097 22.4358974,10.1640662 C22.432805,7.42825059 21.3911106,4.86690307 19.5026029,2.95177305 C17.6255487,1.04828605 15.1284028,0 12.4713663,0 C9.81593327,0 7.32772113,1.04964539 5.46509828,2.95555556 C3.5974359,4.86666667 2.567195,7.42677305 2.56410256,10.1666667 C2.56816855,14.535461 5.22589226,17.4791962 7.79611136,20.3260638 C9.10432831,21.7750591 10.457042,23.2733452 11.5032033,24.9814421 Z M12.4713663,2.36406619 C16.697931,2.36406619 20.1403902,5.8644208 20.1452006,10.1643617 C20.1420509,13.5921986 17.9943508,15.9551418 15.5075704,18.691253 C14.4782458,19.823818 13.4230935,20.9846927 12.4720535,22.2806147 C11.5300617,20.9938534 10.4882528,19.8399527 9.47209968,18.7144208 C6.9962573,15.9721631 4.85806362,13.6037825 4.85479938,10.166844 C4.85966711,5.79143026 8.20528708,2.36406619 12.4713663,2.36406619 Z" id="Shape" fill-rule="nonzero"></path>
                    </g>
                </g>
            </g>
        </g>
    </g>
</svg>