<?xml version="1.0" encoding="UTF-8"?>
<svg width="28px" height="28px" viewBox="0 0 28 28" version="1.1" xmlns="http://www.w3.org/2000/svg" xmlns:xlink="http://www.w3.org/1999/xlink">
    <!-- Generator: Sketch 58 (84663) - https://sketch.com -->
    <title>volume</title>
    <desc>Created with Sketch.</desc>
    <g id="Page-1" stroke="none" stroke-width="1" fill="none" fill-rule="evenodd">
        <g id="Desktop-Web" transform="translate(-155.000000, -4984.000000)" fill="#3BD9AA" fill-rule="nonzero">
            <g id="Group-19" transform="translate(155.000000, 4741.000000)">
                <g id="volume" transform="translate(0.000000, 243.000000)">
                    <path d="M16.1418906,0.266492187 C14.9004297,-0.256976563 13.5299063,0.0021875 12.5652734,0.9428125 C12.5425781,0.964960937 12.5208672,0.988039062 12.5001953,1.01204687 L6.30574219,8.20334375 L4.37888281,8.20334375 C1.96749219,8.20334375 0.0056328125,10.1652031 0.0056328125,12.5765937 L0.0056328125,15.4191953 C0.0056328125,17.8305859 1.96749219,19.7924453 4.37888281,19.7924453 L6.30579688,19.7924453 L12.50025,26.9837422 C12.5209219,27.00775 12.5426328,27.0308828 12.5653281,27.0529766 C13.202875,27.6746094 14.0162969,27.9999453 14.8526875,27.9999453 C15.2864688,27.9999453 15.7264844,27.9123906 16.1511328,27.7333437 C17.3868516,27.2123359 18.1545,26.0547109 18.1545,24.7122969 C18.1545,24.1084375 17.6650469,23.6189844 17.0611875,23.6189844 C16.4573281,23.6189844 15.967875,24.1084375 15.967875,24.7122969 C15.967875,25.3852812 15.4579141,25.6525937 15.3016172,25.7184922 C15.1454844,25.7842812 14.6062109,25.9603203 14.1212422,25.5152734 L7.63535938,17.9856797 C7.42771094,17.7445625 7.12523438,17.6059297 6.80700781,17.6059297 L4.37888281,17.6059297 C3.1731875,17.6059297 2.19225781,16.625 2.19225781,15.4193047 L2.19225781,12.5767031 C2.19225781,11.3710078 3.1731875,10.3900781 4.37888281,10.3900781 L6.80700781,10.3900781 C7.12523438,10.3900781 7.42765625,10.2513906 7.63535938,10.0103281 L14.1211875,2.48067969 C14.6009063,2.04071875 15.1370625,2.21599219 15.2923203,2.28139844 C15.4508047,2.34817187 15.967875,2.61914844 15.967875,3.29940625 L15.967875,19.2458437 C15.967875,19.8497031 16.4573281,20.3391562 17.0611875,20.3391562 C17.6650469,20.3391562 18.1545,19.8497031 18.1545,19.2458437 L18.1545,3.29940625 C18.1545,1.95207031 17.3833516,0.789960937 16.1418906,0.266492187 Z" id="Path"></path>
                    <path d="M22.778,17.1436562 L22.8031016,17.0976094 C23.0890078,16.5731562 23.6212266,15.5970391 23.6212266,13.9981953 C23.6212266,12.3396328 23.0453672,11.3236484 22.7686484,10.8353437 C22.4708203,10.3100703 21.8037422,10.1255 21.2783594,10.4232734 C20.7530859,10.7210469 20.5685703,11.3882344 20.8662891,11.9135625 C21.0925859,12.3127812 21.4346016,12.9162031 21.4346016,13.9981953 C21.4346016,15.0396641 21.1028125,15.6482266 20.8832969,16.0509453 L20.8565,16.1000547 C20.5682969,16.6306328 20.7648437,17.2944297 21.2954219,17.5826328 C21.4612344,17.6727031 21.6399531,17.7154141 21.8162656,17.7154141 C22.2040547,17.7154141 22.5798125,17.5085312 22.778,17.1436562 Z" id="Path"></path>
                    <path d="M24.3905703,5.37791406 C23.9615469,4.95299219 23.2692578,4.95627344 22.8443906,5.38529688 C22.4194688,5.81432031 22.42275,6.50655469 22.8517734,6.93147656 C24.7580156,8.81961719 25.8077969,11.32775 25.8077969,13.9937656 C25.8077969,16.66525 24.7580156,19.1763906 22.8517734,21.0645313 C22.42275,21.4894531 22.4194688,22.1817422 22.8443906,22.6107109 C23.0581641,22.8265625 23.3395859,22.934625 23.6211719,22.934625 C23.8992031,22.934625 24.1773984,22.8291875 24.3905156,22.6180391 C26.7145156,20.3161328 27.9943125,17.25325 27.9943125,13.9937109 C27.9943672,10.7396406 26.7145703,7.67982031 24.3905703,5.37791406 Z" id="Path"></path>
                </g>
            </g>
        </g>
    </g>
</svg>