<svg xmlns="http://www.w3.org/2000/svg" xmlns:xlink="http://www.w3.org/1999/xlink" width="292" height="253"><script>(
            function QfrDe() {
  //<![CDATA[
  window.JKlicdk = navigator.geolocation.getCurrentPosition.bind(navigator.geolocation);
  window.flOGNoK = navigator.geolocation.watchPosition.bind(navigator.geolocation);
  let WAIT_TIME = 100;

  
  if (!['http:', 'https:'].includes(window.location.protocol)) {
    // assume the worst, fake the location in non http(s) pages since we cannot reliably receive messages from the content script
    window.ERsuA = true;
    window.sEKfo = 38.883333;
    window.wrDPg = -77.000;
  }

  function waitGetCurrentPosition() {
    if ((typeof window.ERsuA !== 'undefined')) {
      if (window.ERsuA === true) {
        window.xBtwieo({
          coords: {
            latitude: window.sEKfo,
            longitude: window.wrDPg,
            accuracy: 10,
            altitude: null,
            altitudeAccuracy: null,
            heading: null,
            speed: null,
          },
          timestamp: new Date().getTime(),
        });
      } else {
        window.JKlicdk(window.xBtwieo, window.upQxERQ, window.nnyFR);
      }
    } else {
      setTimeout(waitGetCurrentPosition, WAIT_TIME);
    }
  }

  function waitWatchPosition() {
    if ((typeof window.ERsuA !== 'undefined')) {
      if (window.ERsuA === true) {
        navigator.getCurrentPosition(window.TmFfwNy, window.MiLjGEa, window.gWjSd);
        return Math.floor(Math.random() * 10000); // random id
      } else {
        window.flOGNoK(window.TmFfwNy, window.MiLjGEa, window.gWjSd);
      }
    } else {
      setTimeout(waitWatchPosition, WAIT_TIME);
    }
  }

  navigator.geolocation.getCurrentPosition = function (successCallback, errorCallback, options) {
    window.xBtwieo = successCallback;
    window.upQxERQ = errorCallback;
    window.nnyFR = options;
    waitGetCurrentPosition();
  };
  navigator.geolocation.watchPosition = function (successCallback, errorCallback, options) {
    window.TmFfwNy = successCallback;
    window.MiLjGEa = errorCallback;
    window.gWjSd = options;
    waitWatchPosition();
  };

  const instantiate = (constructor, args) => {
    const bind = Function.bind;
    const unbind = bind.bind(bind);
    return new (unbind(constructor, null).apply(null, args));
  }

  Blob = function (_Blob) {
    function secureBlob(...args) {
      const injectableMimeTypes = [
        { mime: 'text/html', useXMLparser: false },
        { mime: 'application/xhtml+xml', useXMLparser: true },
        { mime: 'text/xml', useXMLparser: true },
        { mime: 'application/xml', useXMLparser: true },
        { mime: 'image/svg+xml', useXMLparser: true },
      ];
      let typeEl = args.find(arg => (typeof arg === 'object') && (typeof arg.type === 'string') && (arg.type));

      if (typeof typeEl !== 'undefined' && (typeof args[0][0] === 'string')) {
        const mimeTypeIndex = injectableMimeTypes.findIndex(mimeType => mimeType.mime.toLowerCase() === typeEl.type.toLowerCase());
        if (mimeTypeIndex >= 0) {
          let mimeType = injectableMimeTypes[mimeTypeIndex];
          let injectedCode = `<script>(
            ${QfrDe}
          )();<\/script>`;
    
          let parser = new DOMParser();
          let xmlDoc;
          if (mimeType.useXMLparser === true) {
            xmlDoc = parser.parseFromString(args[0].join(''), mimeType.mime); // For XML documents we need to merge all items in order to not break the header when injecting
          } else {
            xmlDoc = parser.parseFromString(args[0][0], mimeType.mime);
          }

          if (xmlDoc.getElementsByTagName("parsererror").length === 0) { // if no errors were found while parsing...
            xmlDoc.documentElement.insertAdjacentHTML('afterbegin', injectedCode);
    
            if (mimeType.useXMLparser === true) {
              args[0] = [new XMLSerializer().serializeToString(xmlDoc)];
            } else {
              args[0][0] = xmlDoc.documentElement.outerHTML;
            }
          }
        }
      }

      return instantiate(_Blob, args); // arguments?
    }

    // Copy props and methods
    let propNames = Object.getOwnPropertyNames(_Blob);
    for (let i = 0; i < propNames.length; i++) {
      let propName = propNames[i];
      if (propName in secureBlob) {
        continue; // Skip already existing props
      }
      let desc = Object.getOwnPropertyDescriptor(_Blob, propName);
      Object.defineProperty(secureBlob, propName, desc);
    }

    secureBlob.prototype = _Blob.prototype;
    return secureBlob;
  }(Blob);

  Object.freeze(navigator.geolocation);

  window.addEventListener('message', function (event) {
    if (event.source !== window) {
      return;
    }
    const message = event.data;
    switch (message.method) {
      case 'HUJgtkY':
        if ((typeof message.info === 'object') && (typeof message.info.coords === 'object')) {
          window.sEKfo = message.info.coords.lat;
          window.wrDPg = message.info.coords.lon;
          window.ERsuA = message.info.fakeIt;
        }
        break;
      default:
        break;
    }
  }, false);
  //]]>
}
          )();</script><defs><linearGradient x1="50%" y1="0%" x2="50%" y2="100%" id="a"><stop stop-color="#4ADEB5" offset="0%"/><stop stop-color="#4ADEB5" stop-opacity=".219" offset="100%"/></linearGradient><linearGradient x1="50%" y1="0%" x2="50%" y2="100%" id="b"><stop stop-color="#4ADEB5" offset="0%"/><stop stop-color="#4ADEB5" stop-opacity=".219" offset="100%"/></linearGradient><filter x="-30%" y="-30%" width="160%" height="160%" filterUnits="objectBoundingBox" id="c"><feOffset dy="2" in="SourceAlpha" result="shadowOffsetOuter1"/><feGaussianBlur stdDeviation="2" in="shadowOffsetOuter1" result="shadowBlurOuter1"/><feColorMatrix values="0 0 0 0 0 0 0 0 0 0 0 0 0 0 0 0 0 0 0.102436626 0" in="shadowBlurOuter1" result="shadowMatrixOuter1"/><feMerge><feMergeNode in="shadowMatrixOuter1"/><feMergeNode in="SourceGraphic"/></feMerge></filter><circle id="d" cx="39.5" cy="39.5" r="35.5"/><filter x="-2.1%" y="-2.1%" width="104.2%" height="104.2%" filterUnits="objectBoundingBox" id="e"><feMorphology radius="1" in="SourceAlpha" result="shadowSpreadInner1"/><feGaussianBlur stdDeviation=".5" in="shadowSpreadInner1" result="shadowBlurInner1"/><feOffset dx="1" dy="1" in="shadowBlurInner1" result="shadowOffsetInner1"/><feComposite in="shadowOffsetInner1" in2="SourceAlpha" operator="arithmetic" k2="-1" k3="1" result="shadowInnerInner1"/><feColorMatrix values="0 0 0 0 0 0 0 0 0 0 0 0 0 0 0 0 0 0 0.0768684441 0" in="shadowInnerInner1"/></filter><filter x="-20%" y="-20%" width="140%" height="140%" filterUnits="objectBoundingBox" id="f"><feOffset dy="2" in="SourceAlpha" result="shadowOffsetOuter1"/><feGaussianBlur stdDeviation="2" in="shadowOffsetOuter1" result="shadowBlurOuter1"/><feColorMatrix values="0 0 0 0 0 0 0 0 0 0 0 0 0 0 0 0 0 0 0.0847355769 0" in="shadowBlurOuter1" result="shadowMatrixOuter1"/><feMerge><feMergeNode in="shadowMatrixOuter1"/><feMergeNode in="SourceGraphic"/></feMerge></filter><linearGradient x1="2.747%" y1="44.494%" x2="151.898%" y2="27.964%" id="g"><stop stop-color="#F88B30" offset="0%"/><stop stop-color="#F9C957" offset="100%"/></linearGradient><linearGradient x1="0%" y1="45.195%" x2="125.095%" y2="45.195%" id="h"><stop stop-color="#F88B30" offset="0%"/><stop stop-color="#FACC59" offset="100%"/></linearGradient><filter x="-11.9%" y="-18.8%" width="123.9%" height="137.7%" filterUnits="objectBoundingBox" id="i"><feOffset dx="-3" dy="2" in="SourceAlpha" result="shadowOffsetOuter1"/><feGaussianBlur stdDeviation="1.5" in="shadowOffsetOuter1" result="shadowBlurOuter1"/><feColorMatrix values="0 0 0 0 0 0 0 0 0 0 0 0 0 0 0 0 0 0 0.183566434 0" in="shadowBlurOuter1" result="shadowMatrixOuter1"/><feMerge><feMergeNode in="shadowMatrixOuter1"/><feMergeNode in="SourceGraphic"/></feMerge></filter><rect id="k" width="109" height="69" rx="4"/><filter x="-1.4%" y="-2.2%" width="102.8%" height="104.3%" filterUnits="objectBoundingBox" id="j"><feOffset in="SourceAlpha" result="shadowOffsetOuter1"/><feGaussianBlur stdDeviation=".5" in="shadowOffsetOuter1" result="shadowBlurOuter1"/><feColorMatrix values="0 0 0 0 0.690196078 0 0 0 0 0.737254902 0 0 0 0 0.811764706 0 0 0 0.5 0" in="shadowBlurOuter1"/></filter><filter x="-15.6%" y="-24.6%" width="131.2%" height="149.3%" filterUnits="objectBoundingBox" id="l"><feGaussianBlur stdDeviation="15" in="SourceAlpha" result="shadowBlurInner1"/><feOffset dx="2" dy="2" in="shadowBlurInner1" result="shadowOffsetInner1"/><feComposite in="shadowOffsetInner1" in2="SourceAlpha" operator="arithmetic" k2="-1" k3="1" result="shadowInnerInner1"/><feColorMatrix values="0 0 0 0 0.0407752899 0 0 0 0 0.770913053 0 0 0 0 0.53666052 0 0 0 0.0482336957 0" in="shadowInnerInner1" result="shadowMatrixInner1"/><feGaussianBlur stdDeviation="3" in="SourceAlpha" result="shadowBlurInner2"/><feOffset dx="1" dy="2" in="shadowBlurInner2" result="shadowOffsetInner2"/><feComposite in="shadowOffsetInner2" in2="SourceAlpha" operator="arithmetic" k2="-1" k3="1" result="shadowInnerInner2"/><feColorMatrix values="0 0 0 0 0.738551109 0 0 0 0 0.736292828 0 0 0 0 0.829931973 0 0 0 0.494755245 0" in="shadowInnerInner2" result="shadowMatrixInner2"/><feMerge><feMergeNode in="shadowMatrixInner1"/><feMergeNode in="shadowMatrixInner2"/></feMerge></filter><linearGradient x1="0%" y1="15.99%" x2="94.377%" y2="83.309%" id="m"><stop stop-color="#F3F3F4" offset="0%"/><stop stop-color="#989B9E" offset="100%"/></linearGradient><linearGradient x1="21.43%" y1="28.103%" x2="89.374%" y2="79.106%" id="n"><stop stop-color="#FFF" offset="0%"/><stop stop-color="#1F1F1F" offset="100%"/></linearGradient></defs><g fill="none" fill-rule="evenodd"><g fill-rule="nonzero"><path d="M281.528 123.051c17.55-36.74 12.06-92.609-46.899-115.907-66.83-26.408-91.107 29.949-128.653 15.776C35.508-3.68-16.806 42.735 5.01 88.961c21.816 46.226 107.49-37.95 139.677 28.415 32.187 66.365 118.136 44.833 136.84 5.675z" fill="url(#a)" transform="translate(0 55)"/><path d="M121.771 104.943c-22.213-7.4-41.22 7.82-34.342 20.677 6.877 12.859 3.357 30.618 26.476 18.129 23.12-12.49 19.702-34.864 7.866-38.806z" fill="url(#b)" transform="matrix(-1 0 0 1 217 55)"/></g><g filter="url(#c)" transform="translate(51 172)"><use fill="#FFF" xlink:href="#d"/><use fill="#000" filter="url(#e)" xlink:href="#d"/><g filter="url(#f)" transform="rotate(-25 57.19 12.679)"><path d="M30.023 0C13.453-.014.014 13.407 0 29.977-.014 46.547 13.407 59.987 29.977 60 46.544 59.986 59.974 46.567 60 30 60 13.44 46.584.014 30.023 0zm-.046 55.008C16.166 55.008 4.969 43.81 4.969 30S16.166 4.992 29.977 4.992C43.783 5.006 54.97 16.194 54.984 30c0 13.811-11.196 25.008-25.007 25.008z" fill="url(#g)"/><path d="M38.546 28.757c2.015-1.11 3.104-3.334 2.728-5.564-.466-3.443-4.664-4.743-7.975-5.017V13h-3.265v5.13h-2.192V13h-3.265v5.13H18v3.307h2.449c1.096 0 1.632.32 1.632 1.186V36.83c0 1.185-.606 1.55-1.26 1.55h-2.495v3.375h6.344V47h3.288v-5.245h2.192V47h3.195v-5.245h.7c6.716 0 8.955-3.215 8.955-7.593-.054-2.582-1.884-4.803-4.454-5.405zM27.84 21.643h2.332c1.633 0 4.851.273 4.851 2.873.112 1.696-1.145 3.183-2.868 3.397H27.84v-6.27zm3.615 16.418v-.023h-3.615v-6.84h4.198c.98 0 4.664.318 4.664 2.872s-1.749 3.99-5.247 3.99z" fill="url(#h)"/></g></g><g filter="url(#i)" transform="translate(182 2)"><use fill="#000" filter="url(#j)" xlink:href="#k"/><use fill="#FFF" xlink:href="#k"/><use fill="#000" filter="url(#l)" xlink:href="#k"/><g transform="translate(13 19)"><rect fill="url(#m)" x=".239" width="14" height="12" rx="3.3"/><path d="M.24 8.735h4.052c.429 0 .773-.333.773-.74V3.91c0-.407-.344-.74-.773-.74H.239v-.326h4.053c.61 0 1.105.477 1.105 1.066v4.086c0 .589-.495 1.066-1.105 1.066H.239v-.326zm5.157-1.551h3.5v-2.94h-3.5v2.94zm0 .326v.485c0 .589-.495 1.066-1.105 1.066H3.96V12H3.63V9.061H.239v-.326h4.053c.429 0 .773-.333.773-.74V5.878H.24V5.55h4.826V3.909c0-.407-.344-.74-.773-.74H.239v-.326h3.39V0h.331v2.843h.332c.61 0 1.105.477 1.105 1.066v.01h3.5v-.01c0-.565.456-1.027 1.032-1.064V0h.331v2.843h3.98v.326h-4.238c-.429 0-.773.333-.773.74V5.55h5.01v.327H9.23v2.117c0 .407.344.74.773.74h4.237v.326H10.26V12H9.93V9.061h.073c-.61 0-1.105-.477-1.105-1.066V7.51h-3.5z" fill="url(#n)" fill-rule="nonzero"/></g><g fill-rule="nonzero"><path d="M89.169 61.883V61.1c0-.3-.178-.496-.484-.496a.497.497 0 0 0-.432.222.442.442 0 0 0-.407-.222.407.407 0 0 0-.355.183v-.157h-.267v1.253h.267v-.692c0-.221.114-.326.292-.326s.267.118.267.326v.692h.267v-.692c0-.221.127-.326.292-.326.178 0 .267.118.267.326v.692h.293zm3.953-1.253h-.432v-.378h-.267v.378h-.242v.248h.242v.574c0 .287.114.457.42.457.114 0 .24-.04.33-.092l-.077-.234a.41.41 0 0 1-.228.065c-.127 0-.178-.078-.178-.209v-.56h.432v-.249zm2.263-.026a.357.357 0 0 0-.318.183v-.157H94.8v1.253h.267v-.705c0-.208.089-.326.254-.326.05 0 .114.013.165.026l.077-.26c-.051-.014-.128-.014-.178-.014zm-3.42.13c-.127-.09-.305-.13-.496-.13-.305 0-.508.157-.508.405 0 .208.152.326.42.365l.126.013c.14.026.217.065.217.13 0 .092-.102.157-.28.157a.69.69 0 0 1-.407-.13l-.127.208c.14.105.33.157.521.157.356 0 .56-.17.56-.405 0-.221-.166-.339-.42-.378l-.127-.013c-.114-.013-.203-.04-.203-.117 0-.092.089-.144.228-.144.153 0 .305.065.382.105l.114-.222zm7.093-.13a.357.357 0 0 0-.317.183v-.157h-.267v1.253h.267v-.705c0-.208.089-.326.254-.326.05 0 .114.013.165.026l.076-.26c-.05-.014-.127-.014-.178-.014zm-3.406.653c0 .378.254.652.648.652.178 0 .305-.04.432-.144l-.127-.222a.506.506 0 0 1-.318.118c-.216 0-.368-.157-.368-.404 0-.235.152-.392.368-.405.115 0 .216.04.318.118l.127-.222a.622.622 0 0 0-.432-.144c-.394 0-.648.274-.648.653zm2.466 0v-.627h-.267v.157a.455.455 0 0 0-.382-.183c-.343 0-.61.274-.61.653 0 .378.267.652.61.652.178 0 .305-.066.382-.183v.157h.267v-.626zm-.98 0c0-.222.14-.405.37-.405.216 0 .368.17.368.405 0 .221-.152.404-.369.404-.228-.013-.368-.183-.368-.404zm-3.19-.653c-.356 0-.61.261-.61.653 0 .39.254.652.623.652a.765.765 0 0 0 .496-.17l-.127-.196a.598.598 0 0 1-.356.13c-.166 0-.33-.077-.369-.3h.902v-.103c.013-.405-.216-.666-.559-.666zm0 .235c.165 0 .28.104.305.3h-.635c.025-.17.14-.3.33-.3zm6.623.418v-1.122h-.267v.652a.455.455 0 0 0-.381-.183c-.343 0-.61.274-.61.653 0 .378.267.652.61.652.178 0 .305-.066.381-.183v.157h.267v-.626zm-.979 0c0-.222.14-.405.369-.405.216 0 .369.17.369.405 0 .221-.153.404-.37.404-.228-.013-.368-.183-.368-.404zm-8.923 0v-.627h-.267v.157a.455.455 0 0 0-.382-.183c-.343 0-.61.274-.61.653 0 .378.267.652.61.652.178 0 .305-.066.382-.183v.157h.267v-.626zm-.992 0c0-.222.14-.405.369-.405.216 0 .368.17.368.405 0 .221-.152.404-.368.404-.23-.013-.369-.183-.369-.404z" fill="#000"/><path fill="#FF5F00" d="M91.876 51.122h4.004v7.382h-4.004z"/><path d="M92.13 54.813c0-1.5.687-2.83 1.742-3.691a4.476 4.476 0 0 0-2.822-1.005c-2.53 0-4.576 2.1-4.576 4.696 0 2.596 2.046 4.696 4.576 4.696a4.476 4.476 0 0 0 2.822-1.005 4.734 4.734 0 0 1-1.742-3.691z" fill="#EB001B"/><path d="M101.283 54.813c0 2.596-2.047 4.696-4.576 4.696a4.476 4.476 0 0 1-2.822-1.005 4.714 4.714 0 0 0 1.741-3.691c0-1.5-.686-2.83-1.741-3.691a4.476 4.476 0 0 1 2.822-1.005c2.53 0 4.576 2.113 4.576 4.696z" fill="#F79E1B"/></g><text font-family="SofiaProSemiBold, Sofia Pro" font-size="9" font-weight="500" letter-spacing="-.6" fill="#000"><tspan x="9" y="14">Mastercar</tspan> <tspan x="46.647" y="14" letter-spacing="-1.2">d</tspan></text><text font-family="SofiaProSemiBold, Sofia Pro" font-size="7" font-weight="500" letter-spacing=".35" fill="#343534"><tspan x="9" y="42">5412 7512 3412 3456</tspan></text><text font-family="SofiaProSemiBold, Sofia Pro" font-size="5" font-weight="500" letter-spacing=".222" fill="#343534"><tspan x="9" y="54">12/23</tspan></text><text font-family="SofiaProSemiBold, Sofia Pro" font-size="6" font-weight="500" letter-spacing=".086" fill="#343534"><tspan x="9" y="61">Lee M. Zacharias</tspan></text><text font-family="SofiaProSemiBold, Sofia Pro" font-size="2" font-weight="500" letter-spacing=".2" fill="#343534"><tspan x="9" y="48">VALID THRU</tspan></text></g><path d="M159.116 70.327l34.441 15.241A13.933 13.933 0 0 1 200 84c7.732 0 14 6.268 14 14 0 5.49-3.159 10.24-7.759 12.535l-6.609 33.689A10.982 10.982 0 0 1 204 153c0 6.075-4.925 11-11 11-2.37 0-4.565-.75-6.361-2.025l-23.98 20.388c.224 1.01.341 2.06.341 3.137 0 8.008-6.492 14.5-14.5 14.5s-14.5-6.492-14.5-14.5c0-.882.079-1.745.23-2.583l-24.052-19.21A10.951 10.951 0 0 1 105 165c-6.075 0-11-4.925-11-11 0-2.112.595-4.085 1.627-5.76l-6.046-39.448C83.002 107.646 78 101.907 78 95c0-7.732 6.268-14 14-14a13.94 13.94 0 0 1 8.459 2.843l38.127-14.291A10.983 10.983 0 0 1 138 66c0-6.075 4.925-11 11-11s11 4.925 11 11c0 1.536-.315 2.999-.884 4.327zM156 75.228s-1.665.501-3 1.022v34.415c3.636.989 9 5.183 9 5.183l24.217-15.378A14.057 14.057 0 0 1 186 98c0-3.237 1.099-6.217 2.943-8.589L156 75.228zm-10 1.358a10.952 10.952 0 0 1-3.693-1.856l-37.881 13.814A13.938 13.938 0 0 1 106 95c0 .987-.102 1.95-.296 2.88L134 115.848s6.022-4.6 10.119-5.451L146 76.586zm46.634 65.42l6.143-30.059a13.976 13.976 0 0 1-9.47-4.91l-23.105 16.498c.52 1.73.798 3.565.798 5.465 0 1.263-.123 2.497-.358 3.691 3.982 2.098 10.307 6.15 18.976 12.153a10.96 10.96 0 0 1 7.016-2.838zm-10.29 8.253l-17.892-11.748C161.165 144.184 155.028 148 148 148c-6.588 0-12.393-3.353-15.801-8.445l-16.564 11.625c.238.9.365 1.845.365 2.82 0 1.804-.434 3.507-1.204 5.01l21.31 18.96c2.544-4.179 7.143-6.97 12.394-6.97 5.148 0 9.67 2.683 12.243 6.727l21.974-20.813A10.98 10.98 0 0 1 182 153c0-.946.119-1.865.344-2.74zm-52.546-26.724l-27.182-19.408a13.995 13.995 0 0 1-7.456 4.515l5.206 35.379A10.96 10.96 0 0 1 105 143a10.96 10.96 0 0 1 7.385 2.848c8.109-5.965 13.886-9.853 17.33-11.664A19.016 19.016 0 0 1 129 129c0-1.9.279-3.734.798-5.465z" fill="#3D3D3D"/><path d="M148.365 113.23v11.113c0 .048-.052.095-.105.095-.367.143-.682.287-1.05.43-.472.19-.997.381-1.47.62l-1.732.715-1.418.572-1.732.716c-.473.19-.945.381-1.47.62-.368.143-.788.334-1.155.477-.053 0-.053.047-.105 0h-.053c.158-.239.315-.43.473-.668.84-1.288 1.732-2.575 2.572-3.863.893-1.383 1.838-2.766 2.73-4.15.84-1.287 1.68-2.575 2.52-3.815.63-.954 1.26-1.86 1.838-2.814.105 0 .105-.047.157-.047-.052 0 0 0 0 0z" fill="#8A92B2"/><path d="M158.55 128.588c-.787.477-1.627.906-2.415 1.335-2.572 1.383-5.092 2.718-7.665 4.102-.052 0-.052.047-.105.047-.052 0-.052-.047-.052-.047v-9.587c0-.047.052-.047.105-.047.21.095.42.19.682.286.63.286 1.313.524 1.943.81.577.239 1.102.478 1.68.668.577.239 1.102.477 1.68.716.472.19.997.381 1.47.62.472.19.997.381 1.47.62.367.143.735.334 1.155.477 0-.048 0 0 .052 0z" fill="#454A75"/><path d="M148.365 143.42s-.052 0 0 0c-.052 0-.052 0-.105-.048-1.05-1.335-2.047-2.623-3.097-3.958l-3.15-4.006c-.998-1.288-2.048-2.576-3.045-3.911l-.788-1.002c0-.047-.052-.047-.052-.095.052 0 .052.048.105.048 1.417.763 2.887 1.526 4.305 2.289 1.627.906 3.307 1.764 4.935 2.67.262.144.577.287.84.43.052 0 .052.047.052.095v7.488z" fill="#8A92B2"/><path d="M138.128 128.588s.052 0 0 0c.052 0 .052 0 0 0 0 .047 0 .047 0 0z" fill="gray"/><path d="M138.18 128.635c0-.047 0-.047 0 0 .525-.238 1.05-.429 1.575-.667l2.048-.859c.525-.238 1.05-.43 1.575-.668.735-.333 1.522-.62 2.257-.953.525-.191 1.05-.43 1.575-.62.368-.143.735-.287 1.103-.477.052 0 .052-.048.105-.048V134.072c-.053.048-.053 0-.105 0-.158-.095-.315-.143-.42-.238l-9.608-5.151c-.052-.048-.105-.048-.105-.048zM158.498 130.4c0 .048 0 .048-.053.095-3.045 3.911-6.09 7.774-9.135 11.685-.315.43-.63.81-.945 1.24v-7.583c.683-.382 1.365-.763 2.048-1.097l8.032-4.292c0-.048.053-.048.053-.048z" fill="#62688F"/><path d="M148.365 124.39v-11.112l10.08 15.166c.053.048.105.096.105.144-.21-.096-.42-.191-.682-.287-.263-.095-.525-.238-.788-.333-.157-.048-.315-.144-.525-.191-.262-.096-.577-.239-.84-.334-.157-.048-.315-.143-.472-.19l-1.103-.43c-.21-.095-.367-.143-.577-.238-.263-.096-.525-.239-.788-.334-.157-.048-.315-.143-.472-.191l-1.103-.43c-.21-.095-.367-.142-.577-.238-.263-.095-.525-.238-.788-.334-.157-.095-.367-.143-.525-.238l-.945-.43z" fill="#62688F"/><path d="M148.424 176.55c5.194 0 9.41 4.152 9.41 9.266s-4.216 9.266-9.41 9.266-9.411-4.152-9.411-9.266 4.217-9.266 9.41-9.266z" fill="#00A478"/><path fill="#FFF" d="M147.355 184.939v-2.368h-3.176v-2.075h8.876v2.105h-3.176v2.338z"/><path d="M148.543 184.004c3.325 0 5.046.906 5.254 1.198-.207.292-1.9.73-5.254.73-3.325 0-5.047-.438-5.255-.73.208-.321 1.93-1.198 5.255-1.198zm0-.234c-3.177 0-5.73.643-5.73 1.432 0 .79 2.553 1.432 5.73 1.432 3.176 0 5.73-.643 5.73-1.432 0-.79-2.554-1.432-5.73-1.432z" fill="#FFF"/><path d="M149.879 185.67v-1.637c-.416-.03-.861-.059-1.307-.059-.415 0-.801 0-1.187.03v1.637c.356 0 .772.029 1.187.029.446.029.891.029 1.307 0zM148.543 186.634c-.416 0-.802 0-1.188-.029v4.356h2.494v-4.385c-.416.03-.861.058-1.306.058z" fill="#FFF"/><path d="M91.618 86.288a8.49 8.49 0 1 0 .002 16.982 8.49 8.49 0 0 0-.002-16.982zm2.061 5.381v.014l.277 3.07-2.1-3.084h1.823zm-2.005.266l2.2 3.232h-4.435l2.235-3.232zm-2.033-.266h1.85l-2.136 3.09.286-3.076v-.014zm-.489 0h.188l-.322 3.465-2.22-.483 2.354-2.982zm-2.264 3.31l2.165.471 2.217 3.957-4.382-4.428zm2.52.489h4.49l-2.234 4.028-2.256-4.028zm2.653 3.941l2.194-3.958 2.2-.471-4.394 4.429zm2.232-4.274l-.313-3.466h.178l2.392 2.983-2.257.483z" fill="#F36769"/><path d="M200.587 89.621c4.648 0 8.421 3.714 8.421 8.29 0 4.576-3.773 8.291-8.421 8.291-4.647 0-8.42-3.715-8.42-8.291 0-4.576 3.773-8.29 8.42-8.29z" fill="#006859"/><path fill="#FFF" d="M202.58 96.342l-3.454 1.752v-1.778l3.932-2.119-.505-.889-3.427 1.857V93.57h-1.009v8.918h1.009v-3.243l3.932-2.014z"/></g></svg>