<?xml version="1.0" encoding="UTF-8"?>
<svg width="29px" height="30px" viewBox="0 0 29 30" version="1.1" xmlns="http://www.w3.org/2000/svg" xmlns:xlink="http://www.w3.org/1999/xlink">
    <!-- Generator: Sketch 58 (84663) - https://sketch.com -->
    <title>sprout</title>
    <desc>Created with Sketch.</desc>
    <g id="Page-1" stroke="none" stroke-width="1" fill="none" fill-rule="evenodd">
        <g id="Desktop-Web" transform="translate(-722.000000, -3940.000000)" fill="#3BD8AA" fill-rule="nonzero">
            <g id="Group-15" transform="translate(0.000000, 3368.000000)">
                <g id="sprout" transform="translate(722.000000, 572.000000)">
                    <path d="M19.5374051,5.03244054 C21.5895558,2.98028979 24.9026939,2.47142679 26.6423058,2.34866783 C26.5197725,4.08827968 26.0113608,7.40344871 23.9583074,9.45627644 C23.3928038,10.0217801 22.8175968,10.4187157 22.2484826,10.6364775 C21.6525149,10.864394 21.3541926,11.5318959 21.5821091,12.1278635 C21.7581238,12.587984 22.1963552,12.8705102 22.6612145,12.8705102 C22.79819,12.8705102 22.9376479,12.8459133 23.0734951,12.7940115 C23.947927,12.4598092 24.7950542,11.8861818 25.5918591,11.0896025 C29.0200837,7.66137794 29.0049645,1.91494961 28.9884913,1.18426295 C29.0029336,0.555348902 28.5085129,0.0291101076 27.8780192,0.00428754024 C27.8775678,0.00428754024 27.8771165,0.00406187749 27.8766652,0.00406187749 C27.8739573,0.00406187749 27.8710237,0.00383621474 27.8683158,0.00383621474 C27.4950744,-0.00857510359 21.4555139,-0.152546066 17.9038533,3.39888885 C16.5230406,4.7799272 15.8280083,6.28259616 15.8379373,7.86537445 C15.8462868,9.17013974 16.3445437,10.2124626 16.6683656,10.8325759 C15.6023484,12.0468516 14.7522878,13.4197662 14.1375902,14.9244662 C14.0924583,15.0348138 14.0489059,15.1456128 14.0067076,15.2566375 C13.5109328,13.7666055 12.8371125,12.5234453 11.9974322,11.5549131 C10.4446666,9.7643022 8.39274153,8.89393207 5.72453934,8.89393207 C2.56800921,8.89393207 2.84217094e-14,11.4696137 2.84217094e-14,14.6353959 C2.84217094e-14,17.4879622 2.29315547,19.8086482 5.11164716,19.8086482 C5.18250439,19.8086482 5.25223327,19.8021041 5.32038252,19.7896928 C7.47746514,19.6773142 9.19767027,17.8896368 9.19767027,15.7084086 C9.19767027,15.0704681 8.68045787,14.5532557 8.04274308,14.5532557 C7.40480269,14.5532557 6.88759024,15.0704681 6.88759024,15.7084086 C6.88759024,16.6882237 6.08785169,17.4852543 5.10465169,17.4852543 C5.05568352,17.4852543 5.00716663,17.4884135 4.95932674,17.4945064 C3.48486524,17.4132688 2.31007998,16.1619849 2.31007998,14.6353959 C2.31007998,12.743238 3.84163347,11.2037864 5.72453934,11.2037864 C7.71034612,11.2037864 9.14915339,11.7963692 10.2521788,13.0684138 C11.7318305,14.774628 12.5636128,17.6892508 12.732632,21.7432302 C12.3052322,21.5870736 11.8505276,21.5042564 11.3852169,21.5042564 C9.37481325,21.5042564 7.71282839,23.0252039 7.4896508,24.976936 C5.75094153,25.1608488 4.39179224,26.6359873 4.39179224,28.4225364 C4.39179224,29.0604768 4.90877893,29.5776892 5.54671937,29.5776892 C6.18465981,29.5776892 6.70187221,29.0604768 6.70187221,28.4225364 C6.70187221,27.7857243 7.21998725,27.2676093 7.85679935,27.2676093 C8.01363297,27.2676093 8.16550204,27.298299 8.30789343,27.3590015 C8.72558984,27.5363701 9.20850194,27.452876 9.54225289,27.1453016 C9.87600378,26.8377272 9.99876275,26.3633902 9.85592007,25.9326055 C9.8017617,25.7685508 9.77400553,25.5979519 9.77400553,25.4255478 C9.77400553,24.537125 10.4967941,23.8143364 11.3852169,23.8143364 C12.2165479,23.8143364 12.9212836,24.4622059 12.9901099,25.2894749 C13.031857,25.7935991 13.3969746,26.2119724 13.8911697,26.3214174 C14.3851391,26.4308625 14.8928738,26.2063309 15.1438076,25.7669712 C15.4290416,25.2678116 15.9622759,24.9577549 16.5350006,24.9577549 C17.3439912,24.9577549 18.0270636,25.5622977 18.1238717,26.3638415 C18.1651674,26.7068445 18.3576553,27.0130649 18.6487565,27.1990087 C18.9396321,27.3849524 19.2986569,27.4307614 19.626992,27.3242499 C19.7425299,27.2867903 19.8628066,27.2676093 19.9842116,27.2676093 C20.6210237,27.2676093 21.1391387,27.78595 21.1391387,28.422762 C21.1391387,29.0607025 21.6563511,29.5776892 22.2940659,29.5776892 C22.9320064,29.5776892 23.4492187,29.0607025 23.4492187,28.422762 C23.4492187,26.5524931 21.9598636,25.0236476 20.1047139,24.9597859 C19.4895652,23.5864199 18.1098808,22.6476749 16.5350006,22.6476749 C16.2003471,22.6476749 15.871335,22.6914529 15.5547342,22.7738188 C16.4343563,21.2984546 18.4156499,19.4715124 19.4148718,19.1303147 C20.0185119,18.9240616 20.3405285,18.267617 20.1342754,17.6637512 C19.928248,17.0603367 19.2718034,16.7383202 18.6679377,16.9443476 C17.7172326,17.2690722 16.4955102,18.1843486 15.4211435,19.2738344 C15.6811037,16.4815192 16.8820655,13.8814663 18.8685493,11.8552664 L23.6949624,6.93204527 C24.1415432,6.47666364 24.1343221,5.74530005 23.6787148,5.29871917 C23.2233332,4.85213835 22.4919696,4.85935947 22.0453887,5.31496668 L18.3874424,9.04602684 C18.2538518,8.69174083 18.1507252,8.288261 18.1480173,7.85070658 C18.1419245,6.8952627 18.5964034,5.97344218 19.5374051,5.03244054 L19.5374051,5.03244054 Z" id="Path"></path>
                </g>
            </g>
        </g>
    </g>
</svg>