<?xml version="1.0" encoding="UTF-8"?>
<svg width="740px" height="276px" viewBox="0 0 740 276" version="1.1" xmlns="http://www.w3.org/2000/svg" xmlns:xlink="http://www.w3.org/1999/xlink">
    <!-- Generator: Sketch 53.2 (72643) - https://sketchapp.com -->
    <title>Group 10</title>
    <desc>Created with Sketch.</desc>
    <defs>
        <linearGradient x1="50%" y1="0%" x2="50%" y2="100%" id="linearGradient-1">
            <stop stop-color="#4ADEB5" offset="0%"></stop>
            <stop stop-color="#4ADEB5" stop-opacity="0.0870847902" offset="100%"></stop>
        </linearGradient>
    </defs>
    <g id="Page-1" stroke="none" stroke-width="1" fill="none" fill-rule="evenodd">
        <g id="Connected-cars" transform="translate(-273.000000, -199.000000)">
            <g id="Group-10" transform="translate(273.000000, 153.000000)">
                <path d="M419.624798,281.804326 C716.130874,323.286826 740,295.146743 740,226.039168 C740,184.951572 740,-48.0070686 594.862922,88.3493991 C565.17953,116.236983 538.814312,112.547701 443,112.547701 C349.568957,112.547701 296.953365,49.3810457 245,157.659104 C243.992022,159.75987 269.620656,139.640472 259.26985,138.793293 C203.993234,134.269084 172.082655,73.5420488 65,100.896868 C34.6229519,108.656842 -36.0911754,179.684162 24,281.804326 C84.0911754,383.92449 231.036816,255.42004 419.624798,281.804326 Z" id="Oval" fill="url(#linearGradient-1)" fill-rule="nonzero"></path>
                <g id="image2vector" transform="translate(45.000000, 124.000000)" fill="#000000">
                    <path d="M239.30346,0.543015088 C238.942355,0.949642344 238.644572,4.18731597 238.644572,7.7395503 C238.644572,16.0811632 236.87841,16.1540492 236.411198,7.83161685 C236.135663,2.89454818 236.014154,3.63875278 235.868685,11.1536848 C235.755733,16.9634676 235.271407,20.8398529 234.658727,20.8398529 C233.965611,20.8398529 233.726015,33.7368419 233.917692,60.6969963 L234.200072,100.552222 L231.976967,100.552222 C230.660902,100.552222 229.755573,99.8751488 229.755573,98.8911875 C229.755573,97.9781943 229.351683,97.2301536 228.8588,97.2301536 C228.367629,97.2301536 228.196489,96.234684 228.480581,95.0167203 C229.077859,92.4599555 227.286026,91.9766061 226.43375,94.4624029 C225.653353,96.7429681 222.629313,96.5473266 220.25047,94.0615298 C218.323437,92.0494921 218.219041,92.0494921 216.002781,94.0615298 C213.151593,96.6489835 210.425337,96.6969348 208.98434,94.1862033 C208.214211,92.8435661 208.013977,92.7687621 208.328875,93.9445286 C209.03397,96.5760974 205.571813,100.508106 202.181534,100.924324 C200.500942,101.129555 198.830618,101.628249 198.469513,102.032959 C197.201367,103.454236 195.303427,102.742638 195.253797,100.828421 C195.133999,96.1406994 193.903504,90.6569856 193.099147,91.215139 C192.61311,91.5507983 192.217778,91.0425143 192.217778,90.0854058 C192.217778,89.1263792 191.805331,87.4787716 191.30218,86.4219244 C190.799029,85.3631591 190.076819,83.5026476 189.6986,82.2846838 C189.00035,80.0367256 184.545582,88.5643897 185.146283,91.0003171 C185.276349,91.5316178 184.680782,91.6639635 183.821661,91.2956973 C182.890661,90.8948242 182.322477,91.1748599 182.416603,91.9900325 C182.695561,94.4182877 182.356705,96.1234369 181.598555,96.1215189 C181.191243,96.1215189 180.765105,91.8864576 180.650441,86.7115504 C180.530643,81.2757879 180.842118,77.3034999 181.391476,77.3034999 C181.913453,77.3034999 182.339591,76.5554592 182.339591,75.642466 C182.339591,74.7294727 181.923721,73.981432 181.413724,73.981432 C180.905439,73.981432 180.349235,72.3625952 180.179807,70.3831644 C179.791319,65.8642313 178.006332,65.674344 177.559657,70.1069647 C177.376537,71.9329513 176.823756,73.9718417 176.334296,74.6374061 C175.843125,75.3010525 175.718193,76.1565042 176.05705,76.5343607 C176.979493,77.5681913 177.356001,84.9948929 176.751877,90.202407 C175.928695,97.281941 170.06887,98.294673 170.736315,91.2419918 C171.410605,84.1049162 168.222272,73.8145614 164.590686,71.4112408 C162.381272,69.9477663 161.59574,68.6089653 161.59574,66.3053835 C161.59574,61.6771214 159.249414,59.9585458 157.798149,63.5242065 C157.170066,65.0701573 156.656647,67.0323256 156.656647,67.8820231 C156.656647,68.7317207 155.725646,70.1568341 154.589278,71.0487288 C150.745479,74.0677444 145.701991,86.7997808 147.536609,88.8540157 C149.603977,91.1710238 148.123618,95.6803667 145.296389,95.6784486 L142.332249,95.6746125 L142.332249,86.7652559 C142.332249,81.8665483 142.691642,77.23445 143.131471,76.472983 C143.593549,75.6731548 143.489153,75.0881486 142.88503,75.0881486 C142.31,75.0881486 141.839366,73.8836113 141.839366,72.4105465 C141.839366,68.7854262 140.836487,66.1097421 139.760018,66.8577828 C139.273981,67.1934421 138.875225,68.8352955 138.875225,70.5040017 C138.875225,72.1727079 138.324155,74.1578929 137.648153,74.9136058 C136.866045,75.7901561 136.777052,76.5708037 137.401712,77.0714155 C138.372075,77.8501451 138.431973,79.004813 138.07258,90.3769498 C137.899729,95.8568275 135.911085,97.968604 135.911085,92.6709413 C135.911085,91.4529776 135.467833,90.7643966 134.923608,91.142253 C134.381095,91.5181914 133.936132,91.358993 133.936132,90.7893313 C133.936132,90.2177514 133.205365,87.8221031 132.310304,85.4648159 L130.684477,81.1779672 L128.507579,86.4180883 C127.311312,89.3009221 126.085951,91.3858458 125.786457,91.0501865 C125.231964,90.4287373 123.830329,97.7557001 123.547948,102.738802 C123.349426,106.26802 116.495279,107.418852 113.782714,104.376819 C112.873962,103.358333 111.025652,102.456848 109.673648,102.370536 C106.57773,102.171058 106.837862,99.0427137 109.991968,98.5382658 C112.796949,98.0894413 112.947552,94.4336321 110.228141,92.801369 C107.866412,91.3858458 107.493328,88.1174833 109.807137,89.1110348 C111.065014,89.6538438 111.301187,89.0669196 111.042766,86.0325596 C110.794613,83.122873 110.224718,82.2060437 108.499629,81.9317621 C105.923976,81.5212987 105.8675,81.3275753 107.488193,78.4217249 C109.037008,75.6405479 107.49675,73.6975601 103.611878,73.5402798 C101.219344,73.4424591 100.801763,72.9265028 100.527939,69.7214361 C100.221599,66.142349 100.093244,66.0387741 96.8159178,66.7292732 C93.812415,67.3603127 93.3109755,67.11672 92.4655451,64.6232509 C91.3822304,61.4316106 86.5201498,60.4840924 86.5201498,63.4647469 C86.5201498,64.3873304 85.6422028,65.1238628 84.545197,65.1238628 C83.4481911,65.1238628 82.5702441,64.3873304 82.5702441,63.4647469 C82.5702441,62.5498355 82.2365216,61.7615157 81.829209,61.7116463 C81.4218963,61.6598589 80.1503279,61.4987424 79.0036915,61.3548885 C77.4685679,61.159247 77.0355843,61.5869729 77.3607498,62.9813975 C77.9905441,65.6781801 75.8684111,66.7331093 73.1250407,65.0893378 C70.2755637,63.3803525 67.3336712,65.4269152 68.0764178,68.6051292 C68.6548702,71.090926 66.6628034,73.0665207 64.8452991,71.8063598 C64.0974183,71.2884854 62.890883,71.1216148 62.1618277,71.4342575 C60.6575092,72.0825594 60.3306322,77.3034999 61.7938772,77.3034999 C62.3209876,77.3034999 62.4955502,78.0496226 62.1823644,78.9626159 C61.8691787,79.8775272 60.8611655,80.6236499 59.942145,80.6236499 C56.0161988,80.6236499 54.5375513,85.6662114 58.0390708,87.1181776 L60.1783178,88.0062362 L58.0390708,90.4038026 C55.2854321,93.48995 55.194728,97.2301536 57.8747766,97.2301536 C60.1971432,97.2301536 60.5531139,100.318219 58.3385654,101.271491 C57.3630688,101.691545 57.0430374,102.685097 57.4366589,104.075685 C57.8491057,105.529569 57.618067,106.13951 56.7264288,105.951541 C50.8032817,104.712479 44.2914138,109.229494 45.7615044,113.560458 C46.0455964,114.396729 45.4072451,114.943374 44.1510792,114.943374 C43.0061542,114.943374 42.0683083,114.291236 42.0683083,113.491408 C42.0683083,112.693498 40.8292565,111.011365 39.3146696,109.756958 L36.5593194,107.472557 L33.8809822,109.866287 C32.4074688,111.182072 31.2026449,112.829679 31.2026449,113.527851 C31.2026449,114.226022 29.980707,114.954882 28.4866569,115.146688 C26.2224779,115.44015 25.7176156,116.098042 25.4609059,119.095959 L25.151143,122.694226 L12.9249184,122.694226 C5.83802095,122.694226 0.440272893,123.160313 0.0860135882,123.800943 C-0.439385478,124.756134 1.52358758,125.425534 3.75696146,125.051514 C4.14544872,124.9863 5.70110914,125.465813 7.21398463,126.114115 C8.72686011,126.764335 11.7423427,127.529638 13.9158177,127.817346 C16.0892926,128.103136 19.6455769,128.885702 21.8190518,129.55702 C23.9925268,130.228339 26.6588843,130.939937 27.7456217,131.139414 C30.5608708,131.657289 33.6721917,132.457117 33.6721917,132.666184 C33.6721917,132.762087 34.5621184,132.988417 35.6488559,133.168714 C39.4995005,133.801672 44.5840628,134.97552 47.9965896,136.017023 C52.728604,137.463235 53.3806465,137.35966 51.92767,135.39941 C51.2396881,134.471072 50.4798276,133.934018 50.2368091,134.204463 C49.7422152,134.75878 39.3009784,130.460423 34.4919511,127.723362 C32.1267996,126.376888 27.2339139,119.751933 27.2544506,117.925946 C27.256162,117.808945 30.3674829,117.711124 34.1702084,117.711124 C37.9712225,117.711124 41.0825433,118.014177 41.0825433,118.384361 C41.0791205,121.570247 49.5060423,118.486018 49.7884229,115.200393 C50.34805,108.682849 52.211762,108.166892 73.9071494,108.531322 C90.7609931,108.815194 93.0748027,108.646406 92.7273889,107.161832 C92.3936664,105.734801 93.721711,105.468192 101.166291,105.468192 C108.273725,105.468192 109.897841,105.76549 109.476837,106.99688 C108.63483,109.451988 111.248134,110.480064 118.377816,110.499245 C124.793846,110.514589 125.045421,110.412932 125.045421,107.813971 C125.045421,106.327479 125.49723,104.798791 126.050012,104.41518 C126.602793,104.033488 126.785913,103.23366 126.459036,102.640981 C125.634142,101.146818 128.724926,96.1234369 130.467129,96.1234369 C132.397586,96.1234369 134.069621,99.9154279 134.536833,105.353108 C135.211123,113.194109 136.332089,113.032993 140.444577,104.501493 C142.984291,99.234519 147.185772,99.4666035 148.89717,104.965662 C149.65703,107.411179 150.560648,108.301156 152.278892,108.301156 C154.587567,108.301156 154.621795,108.141958 154.582433,97.5082712 C154.561896,91.5699789 154.739881,85.4667339 154.979477,83.9457178 C155.219073,82.4227837 155.472359,80.591043 155.542527,79.8736911 C155.610983,79.1544212 156.365709,77.7868493 157.217985,76.8297408 C160.767424,72.8516987 164.549612,80.2822364 164.566726,91.2707626 C164.571861,94.2437449 164.850818,99.234519 165.184541,102.360946 L165.793798,108.046055 L168.167507,105.732883 C169.473303,104.459296 170.320445,102.773327 170.050044,101.985007 C169.687228,100.924324 170.909166,100.552222 174.764945,100.552222 C177.626402,100.552222 180.439939,100.022839 181.01668,99.378373 C184.088639,95.9335497 191.687244,98.6993822 192.604553,103.596172 C193.352434,107.58764 195.181918,110.272915 195.181918,107.378572 C195.181918,106.872206 195.736411,106.431054 196.415836,106.400365 C200.442754,106.220068 205.890133,104.161997 208.193674,101.950482 C210.49037,99.7447212 226.791432,99.3380939 226.791432,101.486313 C226.791432,102.303404 227.679647,103.23366 228.766385,103.552057 C229.853122,103.870453 230.743049,104.601232 230.743049,105.174729 C230.743049,105.748227 231.177744,105.917016 231.709989,105.54875 C232.242233,105.178566 233.530916,105.389551 234.574868,106.016755 C237.604042,107.833151 237.73582,106.05128 237.586928,65.421161 C237.508204,44.4817754 237.657095,27.1157227 237.913805,26.8260966 C238.172226,26.5383887 240.088991,28.8093635 242.173474,31.8744124 C245.195802,36.3147053 246.549517,37.4463566 248.837656,37.4463566 C251.676865,37.4463566 251.704247,37.5038982 251.053916,42.3642448 C250.468618,46.7374058 250.646603,47.4394133 252.669475,48.7283449 L254.943923,50.1783931 L254.943923,79.5169332 L254.943923,108.855473 L258.89554,108.546667 C279.119125,106.968109 278.076884,107.886857 278.318191,91.4184527 C278.360976,88.5260286 278.787114,86.1591511 279.264594,86.1591511 C279.742074,86.1591511 280.133984,90.1448654 280.133984,95.0167203 L280.133984,103.872371 L285.543712,103.872371 C290.224384,103.872371 291.172499,104.246392 292.572422,106.640122 C294.095566,109.246756 294.699689,109.407873 302.909263,109.407873 C312.806276,109.407873 312.43148,109.118247 313.121173,117.283399 C313.405265,120.638074 313.91355,124.186472 314.250695,125.170433 C314.96606,127.259193 322.530437,129.054491 323.473417,127.358932 C324.233278,125.989442 365.512188,125.830243 368.686831,127.182471 C369.889943,127.696509 372.460462,127.826937 374.401187,127.474015 L377.928378,126.833385 L377.928378,116.68113 C377.928378,110.712149 378.380187,106.022509 379.025384,105.299403 C379.67058,104.576297 380.264435,98.4346909 380.464669,90.4095567 C380.759029,78.6960065 381.304965,71.2136814 381.864592,71.2136814 C381.946739,71.2136814 382.181201,69.7885679 382.384857,68.0469757 C382.870894,63.8867185 383.581124,63.2364985 385.403762,65.2792251 C387.442037,67.5636263 388.954912,84.3254923 388.162535,95.8472373 C387.363313,107.472557 389.049039,108.105515 394.470747,98.2179509 C401.853716,84.7551362 400.92785,85.2116329 424.466413,83.4182532 L431.984583,82.8466734 L435.332076,89.189675 C441.333948,100.567566 445.273585,100.162857 445.975258,88.0963847 C446.213142,84.0051775 449.050639,86.045986 449.054062,90.311736 C449.060908,96.2768812 452.228705,107.683543 453.993156,108.086334 C454.80607,108.270467 455.964686,109.143181 456.568809,110.023568 C458.233999,112.451823 458.928826,111.958883 458.928826,108.351025 C458.928826,99.9537889 470.862402,95.9335497 476.814643,102.326421 L479.498114,105.207336 L481.808501,100.673059 C484.183921,96.0141079 486.116089,95.1701645 489.615897,97.2704327 C491.342697,98.3042633 491.527528,99.6986879 491.527528,111.661585 C491.527528,124.169209 491.637058,124.90766 493.502481,124.90766 C495.340522,124.90766 495.477434,124.169209 495.477434,114.337269 C495.477434,104.503411 495.648574,103.590418 497.931578,101.219704 C499.281871,99.8176072 500.096496,98.3464605 499.742237,97.9513415 C497.890504,95.87409 508.663752,97.4603199 511.778496,99.7217045 C514.835052,101.940892 515.21156,102.746474 515.221828,107.088946 C515.233808,111.744061 515.317666,111.882161 517.041044,110.134815 C519.365122,107.777528 526.833661,107.700805 529.111531,110.010141 C530.559373,111.47937 531.368864,111.517731 534.868673,110.294013 L538.941799,108.8689 L539.083845,101.112293 C539.160858,96.8465429 539.318306,87.9717113 539.434681,81.3908711 C539.636626,70.0570954 541.769028,61.1630832 541.996644,70.7149876 C542.046274,72.8171738 542.181475,75.7805658 542.29785,77.3034999 C542.414225,78.8245161 542.595633,86.6712713 542.701739,94.7405206 C542.901973,110.000551 544.065723,113.441538 546.542116,106.087723 C547.972844,101.843071 550.214775,101.843071 551.784127,106.087723 C554.282767,112.846942 555.727187,110.192356 555.852119,98.6149879 C555.917152,92.6786136 555.889769,87.3540982 555.790508,86.7844364 C555.692959,86.2147746 555.888058,84.5230518 556.223492,83.0269704 C557.572073,76.9985295 558.843642,82.9502483 558.776897,94.9898675 C558.705018,107.877266 559.810581,113.696639 560.674837,104.981006 L561.16772,99.9979042 L564.958465,107.470639 C569.296858,116.028992 576.479594,118.911826 576.479594,112.096983 C576.479594,105.917016 587.232305,100.958849 593.949541,104.043078 C596.54402,105.234189 598.548066,105.846048 602.162538,106.549974 C602.980586,106.709172 603.795211,108.281975 603.980042,110.058093 C604.416449,114.229858 605.761607,115.119835 610.385803,114.291236 C628.654973,111.019037 651.271092,111.803521 651.63562,115.720185 C651.681828,116.207371 651.840988,117.851142 651.989879,119.372158 C652.138771,120.895093 651.820451,123.229363 651.283072,124.560492 C650.028618,127.671574 651.081127,131.149004 652.801082,129.570447 C653.473661,128.954752 656.246125,128.195203 658.962113,127.886396 C661.678101,127.575672 664.611437,127.004092 665.479115,126.614727 C666.971454,125.947244 670.608174,125.314287 674.578616,125.034251 C681.099041,124.573918 673.293357,122.694226 664.861301,122.694226 C656.256394,122.694226 654.669928,122.429535 655.132005,121.079226 C655.436634,120.191167 655.150831,117.647829 654.497077,115.430559 C653.53356,112.154525 653.562654,111.111104 654.654525,109.891222 C656.573002,107.744921 655.879886,96.522392 653.773156,95.6151528 C652.915745,95.2468867 649.065101,94.6887332 645.216168,94.3741725 C641.367234,94.0596118 636.217639,93.5800985 633.773763,93.307735 C628.689201,92.7399913 588.363539,92.6977941 583.888234,93.2540295 C582.258984,93.4554251 576.606237,93.957955 571.329999,94.3684183 L561.734192,95.116459 L561.7804,92.0226394 C561.932714,81.7035137 561.463791,73.4213605 560.628629,71.6720961 C560.099807,70.5634614 559.483704,67.515675 559.259511,64.8994506 C557.736367,47.1133442 556.57604,45.552049 555.31474,59.5883616 C555.068299,62.3292594 554.791052,64.5714635 554.698637,64.5714635 C554.510383,64.5714635 554.291324,67.33346 553.285022,82.3709962 C552.69459,91.1940405 550.79665,97.464156 550.79665,90.5879357 C550.79665,87.42123 548.948341,87.85471 547.781168,91.2956973 C546.377821,95.4329378 546.078327,94.5314528 545.33558,83.9303734 C544.508975,72.1228385 544.053744,66.938341 543.783343,66.2324975 C543.668679,65.927527 543.434218,64.4333637 543.266501,62.9104295 C543.098784,61.3874954 542.792443,58.6485155 542.587076,56.8206109 C542.383419,54.9946244 542.145535,52.2959237 542.059965,50.824777 C541.758759,45.6057545 539.97206,53.8936619 538.498547,67.3392141 C538.399286,68.2522074 538.021067,70.2450646 537.658251,71.7679987 C537.055839,74.2979107 536.172758,86.5657783 536.035846,94.3147128 C535.989638,96.8964123 535.621687,97.3835978 534.066027,96.9290192 C532.482984,96.4648504 531.952451,97.2493341 530.980377,101.503576 L529.804647,106.640122 L523.013821,106.640122 C516.431786,106.640122 516.221284,106.555728 516.211016,103.872371 C516.183633,97.8765374 501.979033,93.0085187 498.441574,97.7844709 C496.541923,100.350826 495.193342,99.7639017 495.884746,96.6720001 C496.227026,95.1490659 496.009678,89.3316109 495.403844,83.7481583 C494.342777,73.9660876 494.378717,73.5326076 496.398166,71.8255403 C498.089027,70.3946727 498.251609,69.7828138 497.240173,68.6492444 C496.418702,67.730497 496.334844,66.9767021 496.995443,66.4626639 C498.383387,65.3808819 498.1301,60.1752858 496.586419,58.0922801 C495.888169,57.14668 495.592097,55.3954975 495.930954,54.2005504 C496.269811,53.0036853 496.100383,51.7166717 495.556158,51.3388152 C495.010222,50.9628768 494.60291,47.0596387 494.647406,42.6672972 C494.760358,31.7305584 494.64056,30.5701363 493.490501,31.3661283 C492.941143,31.7459028 492.516716,35.3882857 492.54581,39.4583943 C492.627957,50.646398 492.123094,56.5846904 490.88062,59.0359623 C490.264517,60.253926 489.94962,63.1578584 490.180658,65.4882929 C490.498978,68.6818513 490.290188,69.5488113 489.336939,69.0021662 C488.6404,68.6032111 488.95872,69.1862992 490.045458,70.29877 C491.763701,72.0576247 492.042659,73.874021 492.188128,84.2219175 C492.338731,95.0013759 491.471052,99.0254512 489.94962,94.5851583 C489.646702,93.6951817 488.616441,93.2828003 487.512589,93.6069513 C486.439543,93.921512 485.599247,93.6088693 485.599247,92.8953536 C485.599247,92.1933461 484.029895,93.382539 482.109707,95.5326766 C478.271042,99.8348697 477.473531,100.14943 475.869951,97.9839484 C472.296553,93.1581268 458.685808,97.5485504 457.436488,103.931831 C456.892263,106.7015 456.524313,107.01606 454.937847,106.062788 C453.91272,105.449011 453.28806,104.32695 453.546481,103.569319 C453.806613,102.811688 453.120343,100.21848 452.023337,97.8055695 C450.471099,94.391435 450.168182,92.2470516 450.654219,88.1289916 C451.179618,83.6906168 451.02217,82.8390012 449.671877,82.8390012 C448.528663,82.8390012 448.042626,81.7955803 447.992996,79.2407336 C447.883466,73.5537061 446.28331,70.2086215 446.006063,75.0881486 C445.884554,77.2191056 445.735662,79.5054249 445.674052,80.1671532 C445.612442,80.8288815 444.790971,82.2348145 443.849702,83.2916617 C441.854213,85.5261936 441.635154,88.4761592 443.32088,90.3673596 C444.234767,91.3896819 444.238189,91.9957867 443.337994,93.0046826 C441.950051,94.5602236 442.418974,95.1471479 437.661288,85.8829514 L433.822624,78.4102166 L417.244315,78.4102166 L400.664295,78.4102166 L397.498209,84.6975946 C394.344103,90.960038 394.328701,90.9734644 393.58082,87.8374475 C393.166662,86.1054456 393.05371,84.2832952 393.327533,83.7865194 C393.601357,83.2897437 393.137568,80.6140596 392.297272,77.8405548 C391.366272,74.7697518 390.768994,68.9158538 390.768994,62.8720685 C390.768994,54.7874747 390.49517,52.9461437 389.286924,52.9461437 C387.818544,52.9461437 387.59264,49.5799605 387.585794,27.4839889 C387.585794,24.743091 387.190461,21.9523237 386.706136,21.2790871 C386.223522,20.6077685 385.78027,16.5645126 385.722082,12.2949264 C385.571479,1.15871013 382.561131,-2.71959323 382.311267,7.89874871 C381.469259,43.5361752 380.550239,54.2619281 378.410992,53.3431807 C377.168517,52.8080439 376.93919,54.4115363 376.93919,63.6296994 C376.93919,69.6351237 376.487381,76.2907679 375.932888,78.4178888 C375.378395,80.5450097 374.705816,86.2358732 374.438838,91.0636129 C373.846694,101.718398 373.860386,101.699217 368.721058,98.5133311 C366.450034,97.1054801 361.110473,93.9330203 356.855939,91.4644859 C352.599693,88.9940336 348.90992,86.3643828 348.654922,85.6182601 C347.924155,83.4853851 341.913726,85.2557481 332.377819,90.4133929 C327.698858,92.9452229 323.143117,95.0167203 322.253191,95.0167203 C321.363264,95.0167203 320.634208,95.5154141 320.634208,96.1234369 C320.634208,96.7333778 320.177265,97.2301536 319.617638,97.2301536 C319.059723,97.2301536 315.323742,98.9736638 311.31736,101.104621 C301.755781,106.191298 300.167604,106.154855 299.313617,100.828421 C298.259396,94.2514171 297.2839,93.0890769 296.541153,97.5293698 C295.736796,102.326421 290.012171,101.365476 290.012171,96.4341615 C290.012171,95.0454911 289.567208,93.9100036 289.024695,93.9100036 C288.48047,93.9100036 288.035507,95.1548201 288.035507,96.6777543 C288.035507,98.9928443 287.568295,99.4455049 285.175761,99.4455049 C282.281788,99.4455049 281.503102,96.127273 280.635424,80.0712506 C280.176769,71.6011281 275.270192,85.3861757 275.217139,95.2929199 C275.194891,99.2536996 270.545023,102.038713 270.132576,98.3368702 C270.064121,97.7288474 269.898115,96.7333778 269.761203,96.1234369 C269.626003,95.5154141 269.45144,94.393353 269.376139,93.6318859 C269.275166,92.6249081 268.99792,92.6728594 268.356146,93.8083468 C267.87182,94.6676346 267.70068,96.0294523 267.977927,96.8388707 C268.280844,97.7230932 267.360112,98.7837766 265.664117,99.5068826 C261.697098,101.198605 261.830587,101.288754 261.488307,96.6777543 C261.25898,93.5820166 259.590367,94.9956217 258.746648,99.0005166 C258.219538,101.49974 258.036418,95.7225638 258.252054,83.5007295 C258.493361,69.8461095 258.272591,64.0171462 257.511019,64.0171462 C256.913741,64.0171462 256.425993,63.2710235 256.425993,62.3561122 C256.425993,61.4431189 256.870956,60.6969963 257.413469,60.6969963 C259.934358,60.6969963 258.54128,42.987612 255.931399,41.8751412 C253.951312,41.0311979 253.461852,40.060663 253.461852,36.9745156 C253.461852,33.3820021 253.273599,33.1499177 250.634623,33.5258561 C248.21813,33.8672696 247.249479,33.1096386 243.990978,28.32026 L240.174561,22.7118728 L240.462076,11.2591777 C240.742745,0.0328129645 240.636639,-0.94923022 239.30346,0.543015088 M238.644572,18.0721023 C238.644572,19.5950365 238.20132,20.8398529 237.657095,20.8398529 C237.114582,20.8398529 236.669619,19.5950365 236.669619,18.0721023 C236.669619,16.5510862 237.114582,15.3043517 237.657095,15.3043517 C238.20132,15.3043517 238.644572,16.5510862 238.644572,18.0721023 M238.644572,78.7919091 C238.644572,113.541277 238.933798,116.052009 242.921354,116.052009 C244.444498,116.052009 243.63843,67.9779258 241.92361,56.5444113 C239.245272,38.6988453 238.644572,42.7727901 238.644572,78.7919091 M89.9788844,67.7093984 C94.7879117,69.1076591 97.4012158,73.4271146 93.4359076,73.4271146 C92.516887,73.4271146 92.0633667,72.5870074 92.241352,71.2136814 C92.4398741,69.6907472 92.2653116,69.4356462 91.6834364,70.3965908 C90.6583092,72.0863955 84.553754,71.0122858 84.5297944,69.1383479 C84.5212374,68.4401766 84.1293274,68.5763584 83.6364448,69.4471545 C82.8166854,70.8991207 80.0305301,71.777589 75.0400947,72.1611996 C73.8044656,72.2551842 73.1370205,72.8881417 73.4159783,73.7052323 C73.7052045,74.5491757 73.0565848,75.0881486 71.7507885,75.0881486 C70.5750583,75.0881486 69.8665397,75.5523175 70.1797254,76.1200612 C71.1141485,77.8137021 68.7678224,78.7075148 67.203605,77.2517125 C65.5384151,75.7038437 67.195048,72.356841 69.0039953,73.6112477 C69.5756021,74.0063667 69.7398963,73.7934628 69.37708,73.1317345 C69.0074181,72.4623339 70.0992898,71.1695661 71.8740091,70.1779327 C74.3675154,68.7835081 75.192409,68.706786 75.820492,69.8135026 C76.3920988,70.8262346 76.6162919,70.6766265 76.6282716,69.2764477 C76.6351172,68.2100102 77.3094079,67.3392141 78.1240331,67.3392141 C78.9386584,67.3392141 79.6061035,67.8379079 79.6061035,68.4459308 C79.6061035,69.0539536 80.0767378,69.5526474 80.6517674,69.5526474 C81.2285084,69.5526474 81.4475673,69.0980688 81.1395157,68.5399154 C80.5987141,67.5597902 82.0328653,66.4760902 84.0506031,66.3399085 C84.5948275,66.3034654 87.261185,66.9210785 89.9788844,67.7093984 M100.591261,73.9948584 C102.597019,76.0893723 102.624401,76.3348831 101.051627,78.099492 C99.7116026,79.5994095 99.1297274,79.6991483 98.1439624,78.5924316 C97.156486,77.487633 97.2044051,76.9774309 98.383558,76.0452571 C99.6226099,75.065132 99.5866706,74.9769015 98.159365,75.4890217 C96.287096,76.1622584 94.948783,74.6086353 95.9054543,72.8747154 C96.829609,71.1983369 98.232955,71.5339962 100.591261,73.9948584 M80.5935799,75.7728936 C80.5935799,76.6858869 80.1503279,77.125121 79.6061035,76.7491826 C79.0635904,76.3732442 78.6186271,75.318315 78.6186271,74.4053217 C78.6186271,73.4904104 79.0635904,73.0511762 79.6061035,73.4271146 C80.1503279,73.8049711 80.5935799,74.8599003 80.5935799,75.7728936 M83.3694668,77.0253822 C83.4670165,80.050152 83.2462462,80.7272247 82.5582644,79.5169332 C81.3876684,77.4626984 81.2849845,72.8747154 82.4093728,72.8747154 C82.8646045,72.8747154 83.2975881,74.7428991 83.3694668,77.0253822 M89.7735167,73.5690506 C90.7986438,74.7160463 87.7455105,80.2553837 86.0871662,80.2553837 C84.1241932,80.2553837 84.0865424,78.8436966 86.0272673,78.0093435 C86.8418926,77.6583398 87.5093376,76.3598178 87.5093376,75.1226736 C87.5093376,72.9149945 88.5515788,72.1995607 89.7735167,73.5690506 M78.1959118,76.6762966 C78.5826877,78.3967902 79.3014747,79.1544212 80.1914015,78.7708106 C80.9563962,78.4428235 81.5810563,78.7535481 81.5810563,79.4632277 C81.5810563,80.1748254 81.1378043,80.447189 80.5935799,80.0712506 C80.0510669,79.6933941 79.5907009,80.0386437 79.5735869,80.8346357 C79.5290906,82.7661152 75.6544864,77.5106497 75.6544864,75.5197106 C75.6544864,72.9418472 77.5541377,73.8049711 78.1959118,76.6762966 M92.0599439,76.8393311 C91.7296441,77.8021938 91.4592433,78.8283522 91.4592433,79.1198962 C91.4592433,79.4095222 91.0348167,79.3538987 90.5145518,78.9933047 C89.3679154,78.1992307 90.2886473,75.0881486 91.6714566,75.0881486 C92.2139697,75.0881486 92.3902436,75.8764684 92.0599439,76.8393311 M76.2671667,79.4421291 C77.8587665,82.4630628 78.2934615,82.6452778 82.5189022,82.0852063 C88.7774833,81.2546893 93.7662073,86.0421498 93.2767476,92.4100861 C92.9498706,96.6624098 94.8769043,98.8835153 96.4394104,96.052469 C97.0760503,94.8958829 97.7007104,94.8747844 99.5353286,95.945058 L101.832024,97.2876951 L99.6089187,96.8100999 C96.9425613,96.234684 96.7679987,97.0134136 99.1160362,99.0101068 C101.515416,101.052833 99.0338891,100.991456 95.4587795,98.9180403 C92.3782638,97.1342509 90.4478073,98.9736638 92.7222547,101.524674 C93.3315123,102.207501 93.4872495,102.765655 93.0679571,102.765655 C91.4695117,102.765655 89.3816066,99.4205702 90.1380444,98.0702608 C94.9949908,89.3987428 84.8327118,79.3001932 78.6597006,86.6635991 C76.5889095,89.1340514 74.9716388,97.8381764 76.8216596,96.5549989 C77.1913214,96.2979797 77.7560827,96.5645891 78.0778254,97.1457592 C78.7384249,98.3445424 74.6208022,103.084052 73.7599692,102.117353 C73.4519177,101.774021 74.0286587,100.974193 75.0400947,100.339318 C76.3013947,99.5490797 76.5204536,98.9372208 75.7383449,98.3963298 C73.6675538,96.9616261 73.7223185,89.7190576 75.8256262,86.7211406 C76.8901155,85.2058787 77.4514539,83.410581 77.0766578,82.7315902 C76.5854867,81.8396955 76.1901538,81.8684663 75.6544864,82.8390012 C75.1256645,83.7980277 74.7217747,83.8325527 74.2391606,82.9560024 C73.8660759,82.2827658 74.0201017,81.7303665 74.5780173,81.7303665 C75.1359329,81.7303665 75.3378778,80.9842438 75.0246921,80.0712506 C74.7115063,79.1563392 74.073155,78.4102166 73.6042321,78.4102166 C73.1370205,78.4102166 73.0086657,79.1563392 73.3218515,80.0712506 C73.6350372,80.9842438 73.4348037,81.7303665 72.8785995,81.7303665 C71.374281,81.7303665 70.9070694,79.2081267 72.1221617,77.6449134 C73.7188957,75.5945146 74.391475,75.8860587 76.2671667,79.4421291 M93.3469149,80.4951403 C92.0376957,81.6920054 90.8174692,82.2060437 90.6343497,81.640218 C90.4529415,81.0743923 89.8967373,80.8921773 89.400432,81.2355088 C88.9024153,81.5807583 88.4968141,81.2815421 88.4968141,80.5718624 C88.4968141,79.8602647 89.1574135,79.5648845 89.9634818,79.9101341 C90.838006,80.2879906 91.8716901,79.616672 92.5237326,78.2491001 C93.3007071,76.6245092 93.9253673,76.3022762 94.673248,77.1404654 C95.4211288,77.9767366 95.0343529,78.9549437 93.3469149,80.4951403 M67.4106841,79.0105672 C67.7324269,79.9504132 67.7820574,80.9593091 67.521925,81.2508532 C66.6422666,82.2386506 63.8013466,80.4011557 63.8013466,78.8456146 C63.8013466,76.7491826 66.6833401,76.8834463 67.4106841,79.0105672 M97.6801736,83.7500764 C96.9750778,83.9476359 96.3983368,84.5690851 96.3983368,85.1329927 C96.3983368,86.552352 93.6994628,86.4257605 92.8968173,84.9699582 C92.5357124,84.3159021 93.2493652,82.578146 94.4815715,81.1089173 L96.721791,78.4351513 L97.841045,80.9132759 C98.7121464,82.8409192 98.676207,83.4719587 97.6801736,83.7500764 M104.034593,80.2803184 C104.397409,81.5021182 101.417866,83.2954978 100.580993,82.3594879 C100.319149,82.0660258 100.384182,81.0168507 100.723039,80.0271353 C101.37337,78.1263447 103.440738,78.2855431 104.034593,80.2803184 M157.804994,84.241098 C156.095308,91.8519327 155.131791,113.836657 156.507755,113.836657 C157.132415,113.836657 157.644123,113.418522 157.644123,112.90832 C157.644123,112.396199 158.75482,111.41032 160.11367,110.717903 C162.877577,109.306216 163.24895,104.40559 161.739498,89.2011833 C160.786249,79.5898192 159.276796,77.6871106 157.804994,84.241098 M65.1465051,82.9329858 C65.4922074,82.8811983 65.7318031,83.2111035 65.6787497,83.6695182 C65.623985,84.1260148 65.1704646,84.3715256 64.6690251,84.2142452 C64.169297,84.0588829 64.0323852,85.144501 64.3643964,86.6290741 C64.8863726,88.9595086 64.6844277,89.2433805 62.882326,88.7139978 C61.2736123,88.2440748 61.0459964,87.7645615 61.8897154,86.627156 C62.490416,85.8139015 62.6957837,84.6285447 62.3466586,83.9936691 C61.9958221,83.3587936 62.0129361,82.2866019 62.3843093,81.6133653 C62.8686349,80.7329789 63.2656791,80.7598316 63.7876554,81.7073499 C64.1881224,82.434292 64.7990914,82.9847732 65.1465051,82.9329858 M73.1849396,83.9457178 C74.2956367,85.3190438 74.5181184,86.1591511 73.7736604,86.1591511 C73.1147723,86.1591511 72.8323917,86.625238 73.1455775,87.1948998 C73.5015482,87.8393656 72.4952464,87.8393656 70.4946226,87.1948998 C68.7216147,86.625238 67.0684046,86.1591511 66.8202519,86.1591511 C66.5720993,86.1591511 66.902399,85.5626366 67.5544415,84.8318583 C68.4768848,83.7980277 69.0039953,83.7980277 69.9247272,84.8318583 C70.5767697,85.5626366 71.5779373,86.1476428 72.1478327,86.1342164 C72.7194395,86.12079 72.0742426,85.1368288 70.7153929,83.9457178 C68.9184254,82.3690782 68.6754069,81.7744817 69.8220433,81.7553012 C70.6880105,81.7418748 72.2025974,82.7277541 73.1849396,83.9457178 M106.276524,83.9073568 C106.276524,84.494281 105.388308,85.507013 104.301571,86.1591511 C102.626113,87.1642109 102.326618,87.0011764 102.326618,85.0907955 C102.326618,83.5755336 102.973526,82.8390012 104.301571,82.8390012 C105.388308,82.8390012 106.276524,83.3185145 106.276524,83.9073568 M100.349954,86.1591511 C100.349954,86.769092 100.016231,87.2735399 99.6089187,87.2812121 C99.2016061,87.2908024 97.7571865,87.5804284 96.3983368,87.927596 L93.9287901,88.5567175 L96.3983368,86.912946 C99.4275106,84.8970722 100.349954,84.7225293 100.349954,86.1591511 M407.992499,87.3809509 C407.171029,88.8712782 407.244619,116.065435 408.072935,116.993773 C411.156874,120.448186 412.755319,93.7469691 409.816849,87.8643003 C409.017627,86.264644 408.661656,86.1687414 407.992499,87.3809509 M417.624245,88.4972578 C416.094256,93.2156684 416.239725,111.623224 417.809076,111.623224 C420.966605,111.623224 421.510829,108.81903 420.501105,97.7595362 C419.433192,86.0690026 418.935176,84.4616741 417.624245,88.4972578 M107.080881,91.5181914 C107.250309,93.4419987 107.029539,95.0090481 106.586287,94.9994578 C104.92452,94.9649328 103.084767,93.0066006 103.687179,91.9133104 C104.03117,91.2880251 103.788152,90.5802635 103.144666,90.3405068 C101.397329,89.6864507 103.053962,87.42123 105.046029,87.7415449 C106.189243,87.925678 106.875513,89.1973472 107.080881,91.5181914 M426.879483,96.1790605 C426.131603,105.794261 426.330125,106.749451 428.845879,105.667669 C430.187615,105.090335 430.399828,103.54822 430.110602,96.4840309 C429.633122,84.8261042 427.777967,84.6515614 426.879483,96.1790605 M100.741864,89.6653521 C100.462906,90.1736362 99.2597936,90.6454773 98.0686609,90.7164452 C96.0680371,90.8353645 96.0543459,90.8852339 97.8804071,91.3781736 C101.457228,92.3410362 101.885078,93.9100036 98.5718118,93.9100036 C93.0884938,93.9100036 94.5260678,88.9556725 100.060728,88.7811297 C100.714482,88.7600311 101.022533,89.1570681 100.741864,89.6653521 M346.811746,100.028593 C346.811746,110.027404 346.589265,111.571437 345.083235,112.014507 C343.515595,112.47484 343.354723,111.414156 343.354723,100.684567 C343.354723,90.202407 343.551534,88.829081 345.083235,88.6986534 C346.626915,88.5663077 346.811746,89.7804353 346.811746,100.028593 M63.1647066,90.1256849 C64.8932182,90.8698895 64.2155048,93.9100036 62.3192762,93.9100036 C60.910796,93.9100036 59.649496,91.1825321 60.5770735,90.1429474 C61.3009947,89.3316109 61.3146858,89.3316109 63.1647066,90.1256849 M72.1974632,91.6793079 C72.7416877,91.8097355 72.0742426,92.3141835 70.7153929,92.801369 C68.2800741,93.6760012 68.2766513,93.6894275 70.5271392,93.7987566 C71.7815936,93.8601343 72.5568567,94.3645822 72.2505166,94.9227357 C71.942465,95.4789711 72.2505166,96.1464536 72.9316528,96.4034727 C73.6196346,96.6643279 72.7656472,97.6924043 71.0183103,98.7089725 C68.8961772,99.9441987 67.6519912,100.159021 67.2155848,99.3668647 C66.8579027,98.7185628 67.4945426,97.9168166 68.6291992,97.5830753 C69.7655672,97.2512521 70.4757972,96.5837697 70.2105306,96.1023383 C69.9435526,95.618989 68.9372508,95.4559544 67.9720225,95.7379082 C66.669649,96.1196008 66.1647867,95.5403488 66.0124723,93.488032 C65.8105274,90.7413799 66.9212244,90.4153109 72.1974632,91.6793079 M335.727024,94.7002415 C335.14686,96.3977185 333.774319,96.5722613 333.308819,95.00713 C333.1257,94.393353 329.420524,96.6182946 325.076997,99.9518709 C317.189165,106.003328 315.28438,106.922076 314.303749,105.145959 C314.017945,104.628084 316.201689,102.786753 319.155561,101.052833 C322.111145,99.3208314 324.361632,97.717339 324.157976,97.4910088 C323.956031,97.2627605 321.924602,98.1412288 319.646732,99.4455049 C317.36715,100.747863 315.287802,101.570708 315.022536,101.275328 C314.303749,100.467827 323.677073,96.0486328 324.662838,96.7295417 C325.13005,97.0536927 327.093023,96.4092268 329.026902,95.2986741 C333.146236,92.9298785 336.433831,92.6364164 335.727024,94.7002415 M340.390582,102.096254 L340.390582,111.39114 L336.438965,111.813111 C331.659032,112.323313 331.68128,113.061764 336.146316,101.935138 C340.618198,90.7950854 340.390582,90.7854952 340.390582,102.096254 M355.74353,93.9848077 C356.102924,94.6350277 357.011676,94.9016371 357.764691,94.5774861 C358.519417,94.2533351 359.029414,94.4988459 358.901059,95.1202951 C358.770993,95.7436624 361.752247,98.3809854 365.524168,100.981865 C372.691501,105.924688 373.605387,107.136898 372.515227,110.274833 C371.921372,111.983818 371.669797,111.924358 370.040546,109.68599 C369.042801,108.314582 367.913279,107.194439 367.529926,107.194439 C367.148284,107.194439 364.46139,104.578215 361.560571,101.382739 C353.140495,92.1031976 350.208871,92.8857633 356.219299,102.804016 C362.193788,112.664727 361.945635,113.071354 350.763363,111.742143 C350.188334,111.673093 349.935047,109.191133 350.157529,105.811523 L350.53917,99.9979042 L352.200937,105.475864 C353.114824,108.489125 354.086898,110.481982 354.362433,109.904648 C354.637968,109.327314 353.842168,106.114575 352.59627,102.765655 C351.348661,99.4167341 350.314977,97.3835978 350.299575,98.2448036 C350.282461,99.1079275 350.063402,99.5836047 349.813538,99.3035689 C349.041697,98.438527 350.443332,93.9004134 351.300742,94.4930918 C351.743994,94.7999803 352.38748,94.5467973 352.728048,93.9272661 C353.534116,92.4657097 354.920348,92.4925624 355.74353,93.9848077 M334.898708,102.43575 C330.825581,112.451823 331.58373,111.352778 328.537443,111.638568 C323.444323,112.112328 322.997649,111.657749 325.819743,108.872736 C327.313793,107.399671 328.537443,105.813441 328.537443,105.347354 C328.537443,104.591641 337.47265,93.9100036 338.105867,93.9100036 C338.247913,93.9100036 336.805204,97.7461098 334.898708,102.43575 M64.3678192,96.8657235 C64.0186941,97.8822916 64.2925177,99.1002553 64.9753653,99.5740144 C65.8960972,100.210808 65.7591854,100.628944 64.4482549,101.192851 C63.476181,101.610987 62.1772302,101.388493 61.5611271,100.697994 C60.7276765,99.7658197 60.8081121,99.4397507 61.8743129,99.4282424 C63.0722912,99.412898 63.084271,99.2517815 61.9461916,98.4442812 C60.3135182,97.2857771 61.3232428,95.0167203 63.4710468,95.0167203 C64.4944626,95.0167203 64.7905344,95.6285792 64.3678192,96.8657235 M366.073526,98.3368702 C368.519114,100.159021 371.07423,101.651266 371.753655,101.655102 C372.43308,101.65702 372.989284,102.372454 372.989284,103.245168 C372.989284,104.355721 371.549999,103.774551 368.193948,101.307934 C365.556684,99.3687828 362.554893,97.1898744 361.526343,96.4648504 C360.496082,95.7398263 360.097326,95.1202951 360.64155,95.0857702 C361.184063,95.0531633 363.629651,96.5166378 366.073526,98.3368702 M594.671751,96.3996366 C595.132117,97.5082712 595.363155,97.5082712 595.823521,96.3996366 C596.141841,95.6400875 596.992406,95.0167203 597.718038,95.0167203 C598.44196,95.0167203 599.294236,95.6400875 599.610844,96.3996366 C600.07121,97.5082712 600.302249,97.5082712 600.762615,96.3996366 C601.080935,95.6400875 602.636595,95.0167203 604.221349,95.0167203 C605.824929,95.0167203 607.135859,95.6285792 607.180356,96.3996366 C607.241966,97.5082712 607.358341,97.5082712 607.755385,96.3996366 C608.03092,95.6400875 609.512991,95.0167203 611.053248,95.0167203 C612.591795,95.0167203 614.111516,95.6400875 614.428125,96.3996366 C614.888491,97.5082712 615.119529,97.5082712 615.579895,96.3996366 C616.266166,94.7558651 618.956483,94.535289 618.956483,96.1234369 C618.956483,96.7333778 619.427117,97.2301536 620.002147,97.2301536 C620.577176,97.2301536 620.773987,96.7333778 620.436842,96.1234369 C620.101408,95.5154141 620.74147,95.0167203 621.860724,95.0167203 C622.979978,95.0167203 623.895576,95.4233475 623.895576,95.9220413 C623.895576,96.4207351 625.673718,96.670082 627.845482,96.4782767 C630.025802,96.2845534 631.797099,96.6240488 631.797099,97.2320716 C631.797099,97.8400944 632.267733,98.3368702 632.842763,98.3368702 C633.419504,98.3368702 633.614603,97.8400944 633.279169,97.2301536 C632.943735,96.6221307 633.388699,96.1234369 634.266646,96.1234369 C635.146304,96.1234369 635.591267,96.6221307 635.254122,97.2301536 C634.918688,97.8400944 635.115499,98.3368702 635.690528,98.3368702 C636.265558,98.3368702 636.743038,97.715421 636.751595,96.9539539 C636.761863,95.9508121 637.004882,95.9910913 637.629542,97.0958898 C638.103599,97.934079 638.984969,98.2793286 639.589092,97.861193 C640.193216,97.4430574 640.687809,97.6271905 640.687809,98.2716564 C640.687809,98.9180403 641.158444,99.4455049 641.733473,99.4455049 C642.308503,99.4455049 642.556656,99.0388776 642.282832,98.5440199 C642.01072,98.0491622 644.428925,98.367559 647.658332,99.2517815 C653.975101,100.979947 655.98257,103.153102 649.826673,101.59756 C647.603567,101.035571 645.746701,101.081604 645.183651,101.712644 C644.589796,102.378208 645.315429,102.794426 647.158604,102.844295 C648.760472,102.886492 650.961329,103.383268 652.048067,103.949094 C653.92547,104.925383 649.628151,104.800709 628.340076,103.270103 C624.53735,102.997739 615.923886,102.734966 609.201516,102.690851 C602.477435,102.644817 595.80983,102.103926 594.384236,101.492068 C590.244365,99.7121143 583.282399,99.593195 582.700524,101.290672 C582.421566,102.102008 581.548754,102.765655 580.761511,102.765655 C579.972557,102.765655 579.601183,102.268879 579.936617,101.658938 C580.294299,101.012554 579.394104,100.605927 577.773411,100.680731 C576.103087,100.757453 575.685506,101.010636 576.726035,101.315607 C579.941751,102.257371 578.481929,103.584663 573.40079,104.340376 C567.783983,105.174729 566.045203,104.48423 569.668232,102.859639 C572.024826,101.802792 572.026537,101.798956 569.811989,101.729906 C567.065196,101.641676 566.827311,99.4455049 569.565548,99.4455049 C570.650574,99.4455049 571.540501,99.054222 571.540501,98.5747088 C571.540501,98.0971135 572.396199,97.7058307 573.443575,97.7058307 C574.49095,97.7058307 575.131013,98.0971135 574.867457,98.5747088 C574.603902,99.054222 574.831518,99.4455049 575.375743,99.4455049 C575.918256,99.4455049 576.625063,98.9679097 576.946806,98.3867396 C577.268548,97.8036514 578.182435,97.60801 578.979946,97.9513415 C579.777457,98.294673 580.431211,98.0223095 580.431211,97.3490728 C580.431211,96.6758362 580.901845,96.1234369 581.476875,96.1234369 C582.051905,96.1234369 582.248715,96.6221307 581.913281,97.2301536 C581.576136,97.8400944 581.772947,98.3368702 582.347976,98.3368702 C582.923006,98.3368702 583.39364,97.8707833 583.39364,97.3011215 C583.39364,96.7314597 585.394264,96.4744406 587.839851,96.7314597 C590.382988,96.9980691 592.284351,96.7314597 592.284351,96.1080925 C592.284351,94.5487153 593.987192,94.7577831 594.671751,96.3996366 M106.596555,97.8516028 C106.502428,98.3752312 105.612502,99.1635511 104.621602,99.6008672 C102.894802,100.362334 102.894802,100.398777 104.6062,100.473581 C105.591965,100.517697 106.107095,101.073932 105.754548,101.712644 C104.837238,103.373678 102.326618,100.807323 102.326618,98.2083606 C102.326618,96.6854265 102.915339,96.2385201 104.548012,96.5166378 C105.771662,96.7257056 106.692393,97.3260562 106.596555,97.8516028 M333.476536,96.6873445 C333.476536,100.335482 319.150427,113.485654 317.047119,111.768996 C314.824014,109.954518 316.314641,107.867676 323.848213,102.251617 C331.571751,96.4917031 333.476536,95.3926587 333.476536,96.6873445 M363.360961,105.257206 C365.991379,108.14963 368.567033,110.516507 369.083875,110.516507 C369.602428,110.516507 370.025143,110.88861 370.025143,111.347024 C370.028566,115.545643 362.715764,111.425665 358.63237,104.929219 C351.533492,93.6280498 352.871805,93.7220344 363.360961,105.257206 M72.4456159,100.908979 L69.7313393,103.398612 L73.1678257,103.272021 C76.053242,103.16461 76.4160583,103.40053 75.4251591,104.737413 C74.7132177,105.698358 74.107383,105.867147 73.8985925,105.163221 C73.7069159,104.522591 72.9076932,104.275163 72.1204503,104.61274 C68.8705063,106.011001 67.4894084,102.560423 70.4313009,100.387269 C74.2905025,97.535124 75.7195195,97.9053082 72.4456159,100.908979 M598.495013,100.132168 C599.179572,100.899389 620.121944,100.72101 620.818483,99.9403626 C621.061502,99.667999 616.000899,99.4455049 609.571178,99.4455049 C603.143169,99.4455049 598.157868,99.7543114 598.495013,100.132168 M626.674886,100.70183 C625.846569,101.290672 626.719382,101.632085 629.081111,101.641676 C631.117674,101.651266 632.784575,101.467133 632.784575,101.235048 C632.784575,100.276022 627.877998,99.848296 626.674886,100.70183 M634.660267,100.882127 C635.120633,101.398083 636.998036,101.64743 638.832654,101.434526 C642.087733,101.060506 642.067196,101.037489 637.997492,100.498516 C635.702508,100.193546 634.201613,100.368088 634.660267,100.882127 M88.0381595,101.881432 C88.9725826,102.930607 83.9410736,104.275163 82.0773616,103.473416 C81.261025,103.122413 80.5935799,102.405061 80.5935799,101.877596 C80.5935799,100.745945 87.0301463,100.751699 88.0381595,101.881432 M67.2155848,103.797567 C67.5287706,104.363393 67.3114231,105.155549 66.7329707,105.556422 C65.2714371,106.567236 62.5520263,105.241861 63.3033299,103.881962 C64.0751702,102.481783 66.4625698,102.429995 67.2155848,103.797567 M630.116506,109.124001 C625.661738,109.329232 618.104207,109.329232 613.324273,109.125919 C608.54434,108.922605 612.189617,108.755735 621.426029,108.753817 C630.660731,108.753817 634.572986,108.920687 630.116506,109.124001 M340.390582,118.819759 L340.390582,122.694226 L334.701897,122.694226 C330.081123,122.694226 328.780461,122.278009 327.777582,120.478875 C327.099869,119.262829 326.052493,118.265442 325.450081,118.265442 C324.840824,118.265442 324.584114,119.249403 324.871629,120.478875 C325.246425,122.086204 324.902434,122.694226 323.615463,122.694226 C322.639966,122.694226 321.904066,122.070859 321.979367,121.309392 C322.054669,120.549843 321.671315,119.926476 321.128802,119.926476 C320.584578,119.926476 320.196091,120.509564 320.264547,121.22308 C320.333003,121.934677 319.888039,122.302944 319.27707,122.04017 C318.66439,121.777397 318.164662,120.074166 318.164662,118.253934 L318.164662,114.943374 L329.276766,114.943374 L340.390582,114.943374 L340.390582,118.819759 M346.885336,118.815923 C346.777518,124.41472 343.354723,124.418556 343.354723,118.819759 C343.354723,115.806498 343.75519,114.943374 345.156825,114.943374 C346.572151,114.943374 346.943524,115.775809 346.885336,118.815923 M368.38049,115.712513 C365.910944,116.253404 364.904642,118.359426 366.09064,120.509564 C366.746106,121.696839 367.208183,121.721774 368.38049,120.632319 C369.679441,119.422028 372.051438,120.829879 370.86544,122.107302 C369.775279,123.279233 364.601724,123.077837 364.59659,121.863709 C364.594879,121.102242 364.148204,120.528744 363.60398,120.590122 C363.061467,120.6515 362.727744,121.150194 362.862944,121.696839 C362.999856,122.245402 360.109306,122.694226 356.443492,122.694226 L349.774176,122.694226 L349.774176,118.819759 L349.774176,114.943374 L360.146956,115.0949 C365.851045,115.177376 369.556221,115.455494 368.38049,115.712513" id="path0"></path>
                </g>
            </g>
        </g>
    </g>
</svg>