<?xml version="1.0" encoding="UTF-8"?>
<svg width="65px" height="63px" viewBox="0 0 65 63" version="1.1" xmlns="http://www.w3.org/2000/svg" xmlns:xlink="http://www.w3.org/1999/xlink">
    <!-- Generator: Sketch 53.2 (72643) - https://sketchapp.com -->
    <title>Group 8</title>
    <desc>Created with Sketch.</desc>
    <g id="Page-1" stroke="none" stroke-width="1" fill="none" fill-rule="evenodd">
        <g id="Connected-cars" transform="translate(-704.000000, -550.000000)">
            <g id="Group-8" transform="translate(707.000000, 550.000000)">
                <path d="M16.92,59.76 L3.384,59.76 C1.51506841,59.76 3.55271368e-14,58.2449316 3.55271368e-14,56.376 L3.55271368e-14,47.916" id="Shape" stroke="#1E1E1E" stroke-width="5.384" stroke-linecap="round" stroke-linejoin="round"></path>
                <g id="Group-7">
                    <rect id="Rectangle-path-Copy" fill="#B6FFE0" fill-rule="nonzero" x="7" y="-1.10134124e-13" width="54.144" height="54.144" rx="5.076"></rect>
                    <path d="M33.84,9 L47.376,9 C49.2449316,9 50.76,10.5150684 50.76,12.384 L50.76,20.844" id="Shape" stroke="#1E1E1E" stroke-width="5.384" stroke-linecap="round" stroke-linejoin="round"></path>
                    <path d="M3.55271368e-14,20.844 L3.55271368e-14,12.384 C3.55271368e-14,10.5150684 1.51506841,9 3.384,9 L16.92,9" id="Shape" stroke="#1E1E1E" stroke-width="5.384" stroke-linecap="round" stroke-linejoin="round"></path>
                    <text id="€" font-family="SofiaProBlack, Sofia Pro" font-size="41" font-weight="700" letter-spacing="-0.6717449" fill="#302E2E">
                        <tspan x="7" y="48">€</tspan>
                    </text>
                </g>
                <path d="M50.76,47.916 L50.76,56.376 C50.76,58.2449316 49.2449316,59.76 47.376,59.76 L33.84,59.76" id="Shape" stroke="#1E1E1E" stroke-width="5.384" stroke-linecap="round" stroke-linejoin="round"></path>
            </g>
        </g>
    </g>
</svg>