<?xml version="1.0" encoding="UTF-8"?>
<svg width="65px" height="65px" viewBox="0 0 65 65" version="1.1" xmlns="http://www.w3.org/2000/svg" xmlns:xlink="http://www.w3.org/1999/xlink">
    <!-- Generator: Sketch 55 (78076) - https://sketchapp.com -->
    <title>noun_Highway_13084</title>
    <desc>Created with Sketch.</desc>
    <g id="Page-1" stroke="none" stroke-width="1" fill="none" fill-rule="evenodd">
        <g id="noun_Highway_13084" fill="#34D8A7" fill-rule="nonzero">
            <polygon id="Path" points="24.7044293 0.401867742 30.0210764 0.401867742 29.4809543 16.3706379 22.000615 16.3706379"></polygon>
            <polygon id="Path" points="19.8394857 29.1883339 29.2118543 29.1883339 28.2193879 64.5981323 13.8949386 64.5981323"></polygon>
            <polygon id="Path" points="40.1148893 0.401867742 34.7982421 0.401867742 35.3383643 16.3706379 42.8180629 16.3706379"></polygon>
            <polygon id="Path" points="44.981755 29.1883339 35.6100271 29.1883339 36.59929 64.5981323 50.9295057 64.5981323"></polygon>
            <path d="M57.2360564,27.6641573 L57.2360564,34.3764661 L53.0047793,34.3764661 L51.3792871,26.7476258 C51.0224093,25.423104 50.2984021,25.2241726 49.1252543,25.2241726 L15.3320607,25.2241726 C14.2511757,25.324 13.6207129,25.423104 13.34905,26.7476258 L11.7286836,34.3764661 L7.49228071,34.3764661 L7.49228071,27.6641573 C7.49228071,26.4438032 7.13284,25.2241726 5.15111071,25.2241726 L0.464285714,25.2241726 L0.464285714,20.444754 L64.5357143,20.444754 L64.5357143,25.2241726 L59.3094079,25.2241726 C58.0478414,25.2241726 57.2360564,25.7327137 57.2360564,27.6641573" id="Path"></path>
        </g>
    </g>
</svg>