<?xml version="1.0" encoding="UTF-8"?>
<svg width="26px" height="26px" viewBox="0 0 26 26" version="1.1" xmlns="http://www.w3.org/2000/svg" xmlns:xlink="http://www.w3.org/1999/xlink">
    <!-- Generator: Sketch 52.5 (67469) - http://www.bohemiancoding.com/sketch -->
    <title>wifi</title>
    <desc>Created with Sketch.</desc>
    <g id="Page-1" stroke="none" stroke-width="1" fill="none" fill-rule="evenodd">
        <g id="Desktop-Web" transform="translate(-726.000000, -1734.000000)" fill="#34D8A7" fill-rule="nonzero">
            <g id="wifi" transform="translate(739.000000, 1747.000000) scale(1, -1) rotate(-90.000000) translate(-739.000000, -1747.000000) translate(726.000000, 1734.000000)">
                <path d="M13,18.28125 C13.5609741,18.28125 14.015625,18.7359009 14.015625,19.296875 C14.015625,19.8578491 13.5609741,20.3125 13,20.3125 C12.4390259,20.3125 11.984375,19.8578491 11.984375,19.296875 C11.984375,18.7359009 12.4390259,18.28125 13,18.28125 Z M5.98583984,11.4920349 C7.82626345,9.51731874 10.3173218,8.4296875 13,8.4296875 C15.6826782,8.4296875 18.1737365,9.51712034 20.0143585,11.4920349 C20.3968048,11.9024506 21.039505,11.9250641 21.4497223,11.5426178 C21.8601379,11.1601715 21.8827515,10.5174713 21.5003052,10.107254 C19.271286,7.71557617 16.2523804,6.3984375 13,6.3984375 C9.74761963,6.3984375 6.72891233,7.71557617 4.49989318,10.107254 C4.11744689,10.5174713 4.14006044,11.1601715 4.55047607,11.5426178 C4.74626161,11.7251129 4.99481201,11.8153687 5.24276736,11.8153687 C5.51452637,11.8153687 5.78588867,11.706665 5.98583984,11.4920349 Z M8.33744813,14.2381897 C9.6196747,12.9484253 11.2692719,12.2382812 12.9823456,12.2382812 C14.6952209,12.2382812 16.3448181,12.9484253 17.6274414,14.2381897 C18.0229797,14.63591 18.6658783,14.6376953 19.0635986,14.242157 C19.461319,13.8466187 19.4631043,13.2035217 19.0675659,12.8058014 C17.4009094,11.1300201 15.2397308,10.2070312 12.9823456,10.2070312 C10.7243652,10.2070312 8.56338498,11.1300201 6.89692687,12.8059998 C6.50158691,13.2037201 6.50337218,13.846817 6.90109255,14.242157 C7.09925841,14.4393311 7.3581238,14.5375214 7.6171875,14.5375214 C7.87803651,14.5375214 8.13888552,14.4377441 8.33744813,14.2381897 Z M16.4561005,16.9827576 C16.8526306,16.5858307 16.8522339,15.9427338 16.455307,15.546402 C15.5414429,14.6333313 14.2177582,14.0664062 13.0005951,14.0664062 C13.0003967,14.0664062 13.0001984,14.0664062 13,14.0664062 L12.9525909,14.0664062 C12.9523926,14.0664062 12.9521942,14.0664062 12.9519959,14.0664062 C11.7266998,14.0664062 10.3976593,14.6335297 9.48379514,15.546402 C9.08706662,15.9427338 9.08666992,16.5858307 9.48300173,16.9827576 C9.87953185,17.3794861 10.5224304,17.3798828 10.9193573,16.9833526 C11.4581146,16.4453888 12.2557373,16.0976562 12.9521942,16.0976562 L12.9523926,16.0976562 L13.0001984,16.0976562 L13.0003967,16.0976562 C13.6885224,16.0976562 14.4811859,16.4453888 15.0197449,16.9833526 C15.2181092,17.1815186 15.4779663,17.2805023 15.7376251,17.2805023 C15.9976807,17.2805023 16.2577362,17.1811219 16.4561005,16.9827576 Z M26,21.9375 C26,21.3765259 25.5453491,20.921875 24.984375,20.921875 C24.4234009,20.921875 23.96875,21.3765259 23.96875,21.9375 C23.96875,23.0574646 23.0574646,23.96875 21.9375,23.96875 L4.0625,23.96875 C2.94253538,23.96875 2.03125,23.0574646 2.03125,21.9375 L2.03125,4.0625 C2.03125,2.94253538 2.94253538,2.03125 4.0625,2.03125 L21.9375,2.03125 C23.0574646,2.03125 23.96875,2.94253538 23.96875,4.0625 L23.96875,16.859375 C23.96875,17.4203491 24.4234009,17.875 24.984375,17.875 C25.5453491,17.875 26,17.4203491 26,16.859375 L26,4.0625 C26,1.82237245 24.1776276,0 21.9375,0 L4.0625,0 C1.82237245,0 0,1.82237245 0,4.0625 L0,21.9375 C0,24.1776276 1.82237245,26 4.0625,26 L21.9375,26 C24.1776276,26 26,24.1776276 26,21.9375 Z" id="Shape"></path>
            </g>
        </g>
    </g>
</svg>